G04 #@! TF.GenerationSoftware,KiCad,Pcbnew,(5.1.5-0-10_14)*
G04 #@! TF.CreationDate,2020-04-11T19:26:15-04:00*
G04 #@! TF.ProjectId,crazyflie-usd-spi3,6372617a-7966-46c6-9965-2d7573642d73,rev?*
G04 #@! TF.SameCoordinates,Original*
G04 #@! TF.FileFunction,Legend,Top*
G04 #@! TF.FilePolarity,Positive*
%FSLAX46Y46*%
G04 Gerber Fmt 4.6, Leading zero omitted, Abs format (unit mm)*
G04 Created by KiCad (PCBNEW (5.1.5-0-10_14)) date 2020-04-11 19:26:15*
%MOMM*%
%LPD*%
G04 APERTURE LIST*
%ADD10C,0.120000*%
%ADD11C,0.127000*%
%ADD12C,0.152400*%
%ADD13C,0.100000*%
G04 APERTURE END LIST*
D10*
X139810000Y-58290000D02*
X141040000Y-58290000D01*
X137190000Y-77710000D02*
X137190000Y-78360000D01*
X137190000Y-73710000D02*
X137190000Y-76290000D01*
X137190000Y-69710000D02*
X137190000Y-72290000D01*
X137190000Y-65710000D02*
X137190000Y-68290000D01*
X137190000Y-61710000D02*
X137190000Y-64290000D01*
X137190000Y-57640000D02*
X137190000Y-60290000D01*
X137190000Y-78360000D02*
X139810000Y-78360000D01*
X139810000Y-75710000D02*
X139810000Y-78360000D01*
X139810000Y-71710000D02*
X139810000Y-74290000D01*
X139810000Y-67710000D02*
X139810000Y-70290000D01*
X139810000Y-63710000D02*
X139810000Y-66290000D01*
X139810000Y-59710000D02*
X139810000Y-62290000D01*
X139810000Y-57640000D02*
X139810000Y-58290000D01*
X137190000Y-57640000D02*
X139810000Y-57640000D01*
X161810000Y-58290000D02*
X163040000Y-58290000D01*
X159190000Y-77710000D02*
X159190000Y-78360000D01*
X159190000Y-73710000D02*
X159190000Y-76290000D01*
X159190000Y-69710000D02*
X159190000Y-72290000D01*
X159190000Y-65710000D02*
X159190000Y-68290000D01*
X159190000Y-61710000D02*
X159190000Y-64290000D01*
X159190000Y-57640000D02*
X159190000Y-60290000D01*
X159190000Y-78360000D02*
X161810000Y-78360000D01*
X161810000Y-75710000D02*
X161810000Y-78360000D01*
X161810000Y-71710000D02*
X161810000Y-74290000D01*
X161810000Y-67710000D02*
X161810000Y-70290000D01*
X161810000Y-63710000D02*
X161810000Y-66290000D01*
X161810000Y-59710000D02*
X161810000Y-62290000D01*
X161810000Y-57640000D02*
X161810000Y-58290000D01*
X159190000Y-57640000D02*
X161810000Y-57640000D01*
D11*
X156690000Y-72760000D02*
X156690000Y-58360000D01*
X156690000Y-72760000D02*
X142290000Y-72760000D01*
X142290000Y-72760000D02*
X142290000Y-57560000D01*
D10*
X150330000Y-75090000D02*
X150330000Y-76550000D01*
X147170000Y-75090000D02*
X147170000Y-77250000D01*
X147170000Y-75090000D02*
X148100000Y-75090000D01*
X150330000Y-75090000D02*
X149400000Y-75090000D01*
D12*
X153193600Y-73950000D02*
X154006400Y-73950000D01*
X153193600Y-75550000D02*
X154006400Y-75550000D01*
D10*
X137440000Y-78060000D02*
X139560000Y-78060000D01*
X137440000Y-60000000D02*
X137440000Y-78060000D01*
X139560000Y-60000000D02*
X139560000Y-78060000D01*
X137440000Y-60000000D02*
X139560000Y-60000000D01*
X137440000Y-59000000D02*
X137440000Y-57940000D01*
X137440000Y-57940000D02*
X138500000Y-57940000D01*
X159440000Y-57940000D02*
X160500000Y-57940000D01*
X159440000Y-59000000D02*
X159440000Y-57940000D01*
X159440000Y-60000000D02*
X161560000Y-60000000D01*
X161560000Y-60000000D02*
X161560000Y-78060000D01*
X159440000Y-60000000D02*
X159440000Y-78060000D01*
X159440000Y-78060000D02*
X161560000Y-78060000D01*
%LPC*%
D13*
G36*
X140924504Y-74501204D02*
G01*
X140948773Y-74504804D01*
X140972571Y-74510765D01*
X140995671Y-74519030D01*
X141017849Y-74529520D01*
X141038893Y-74542133D01*
X141058598Y-74556747D01*
X141076777Y-74573223D01*
X141093253Y-74591402D01*
X141107867Y-74611107D01*
X141120480Y-74632151D01*
X141130970Y-74654329D01*
X141139235Y-74677429D01*
X141145196Y-74701227D01*
X141148796Y-74725496D01*
X141150000Y-74750000D01*
X141150000Y-75250000D01*
X141148796Y-75274504D01*
X141145196Y-75298773D01*
X141139235Y-75322571D01*
X141130970Y-75345671D01*
X141120480Y-75367849D01*
X141107867Y-75388893D01*
X141093253Y-75408598D01*
X141076777Y-75426777D01*
X141058598Y-75443253D01*
X141038893Y-75457867D01*
X141017849Y-75470480D01*
X140995671Y-75480970D01*
X140972571Y-75489235D01*
X140948773Y-75495196D01*
X140924504Y-75498796D01*
X140900000Y-75500000D01*
X139500000Y-75500000D01*
X139475496Y-75498796D01*
X139451227Y-75495196D01*
X139427429Y-75489235D01*
X139404329Y-75480970D01*
X139382151Y-75470480D01*
X139361107Y-75457867D01*
X139341402Y-75443253D01*
X139323223Y-75426777D01*
X139306747Y-75408598D01*
X139292133Y-75388893D01*
X139279520Y-75367849D01*
X139269030Y-75345671D01*
X139260765Y-75322571D01*
X139254804Y-75298773D01*
X139251204Y-75274504D01*
X139250000Y-75250000D01*
X139250000Y-74750000D01*
X139251204Y-74725496D01*
X139254804Y-74701227D01*
X139260765Y-74677429D01*
X139269030Y-74654329D01*
X139279520Y-74632151D01*
X139292133Y-74611107D01*
X139306747Y-74591402D01*
X139323223Y-74573223D01*
X139341402Y-74556747D01*
X139361107Y-74542133D01*
X139382151Y-74529520D01*
X139404329Y-74519030D01*
X139427429Y-74510765D01*
X139451227Y-74504804D01*
X139475496Y-74501204D01*
X139500000Y-74500000D01*
X140900000Y-74500000D01*
X140924504Y-74501204D01*
G37*
G36*
X140924504Y-70501204D02*
G01*
X140948773Y-70504804D01*
X140972571Y-70510765D01*
X140995671Y-70519030D01*
X141017849Y-70529520D01*
X141038893Y-70542133D01*
X141058598Y-70556747D01*
X141076777Y-70573223D01*
X141093253Y-70591402D01*
X141107867Y-70611107D01*
X141120480Y-70632151D01*
X141130970Y-70654329D01*
X141139235Y-70677429D01*
X141145196Y-70701227D01*
X141148796Y-70725496D01*
X141150000Y-70750000D01*
X141150000Y-71250000D01*
X141148796Y-71274504D01*
X141145196Y-71298773D01*
X141139235Y-71322571D01*
X141130970Y-71345671D01*
X141120480Y-71367849D01*
X141107867Y-71388893D01*
X141093253Y-71408598D01*
X141076777Y-71426777D01*
X141058598Y-71443253D01*
X141038893Y-71457867D01*
X141017849Y-71470480D01*
X140995671Y-71480970D01*
X140972571Y-71489235D01*
X140948773Y-71495196D01*
X140924504Y-71498796D01*
X140900000Y-71500000D01*
X139500000Y-71500000D01*
X139475496Y-71498796D01*
X139451227Y-71495196D01*
X139427429Y-71489235D01*
X139404329Y-71480970D01*
X139382151Y-71470480D01*
X139361107Y-71457867D01*
X139341402Y-71443253D01*
X139323223Y-71426777D01*
X139306747Y-71408598D01*
X139292133Y-71388893D01*
X139279520Y-71367849D01*
X139269030Y-71345671D01*
X139260765Y-71322571D01*
X139254804Y-71298773D01*
X139251204Y-71274504D01*
X139250000Y-71250000D01*
X139250000Y-70750000D01*
X139251204Y-70725496D01*
X139254804Y-70701227D01*
X139260765Y-70677429D01*
X139269030Y-70654329D01*
X139279520Y-70632151D01*
X139292133Y-70611107D01*
X139306747Y-70591402D01*
X139323223Y-70573223D01*
X139341402Y-70556747D01*
X139361107Y-70542133D01*
X139382151Y-70529520D01*
X139404329Y-70519030D01*
X139427429Y-70510765D01*
X139451227Y-70504804D01*
X139475496Y-70501204D01*
X139500000Y-70500000D01*
X140900000Y-70500000D01*
X140924504Y-70501204D01*
G37*
G36*
X140924504Y-66501204D02*
G01*
X140948773Y-66504804D01*
X140972571Y-66510765D01*
X140995671Y-66519030D01*
X141017849Y-66529520D01*
X141038893Y-66542133D01*
X141058598Y-66556747D01*
X141076777Y-66573223D01*
X141093253Y-66591402D01*
X141107867Y-66611107D01*
X141120480Y-66632151D01*
X141130970Y-66654329D01*
X141139235Y-66677429D01*
X141145196Y-66701227D01*
X141148796Y-66725496D01*
X141150000Y-66750000D01*
X141150000Y-67250000D01*
X141148796Y-67274504D01*
X141145196Y-67298773D01*
X141139235Y-67322571D01*
X141130970Y-67345671D01*
X141120480Y-67367849D01*
X141107867Y-67388893D01*
X141093253Y-67408598D01*
X141076777Y-67426777D01*
X141058598Y-67443253D01*
X141038893Y-67457867D01*
X141017849Y-67470480D01*
X140995671Y-67480970D01*
X140972571Y-67489235D01*
X140948773Y-67495196D01*
X140924504Y-67498796D01*
X140900000Y-67500000D01*
X139500000Y-67500000D01*
X139475496Y-67498796D01*
X139451227Y-67495196D01*
X139427429Y-67489235D01*
X139404329Y-67480970D01*
X139382151Y-67470480D01*
X139361107Y-67457867D01*
X139341402Y-67443253D01*
X139323223Y-67426777D01*
X139306747Y-67408598D01*
X139292133Y-67388893D01*
X139279520Y-67367849D01*
X139269030Y-67345671D01*
X139260765Y-67322571D01*
X139254804Y-67298773D01*
X139251204Y-67274504D01*
X139250000Y-67250000D01*
X139250000Y-66750000D01*
X139251204Y-66725496D01*
X139254804Y-66701227D01*
X139260765Y-66677429D01*
X139269030Y-66654329D01*
X139279520Y-66632151D01*
X139292133Y-66611107D01*
X139306747Y-66591402D01*
X139323223Y-66573223D01*
X139341402Y-66556747D01*
X139361107Y-66542133D01*
X139382151Y-66529520D01*
X139404329Y-66519030D01*
X139427429Y-66510765D01*
X139451227Y-66504804D01*
X139475496Y-66501204D01*
X139500000Y-66500000D01*
X140900000Y-66500000D01*
X140924504Y-66501204D01*
G37*
G36*
X140924504Y-62501204D02*
G01*
X140948773Y-62504804D01*
X140972571Y-62510765D01*
X140995671Y-62519030D01*
X141017849Y-62529520D01*
X141038893Y-62542133D01*
X141058598Y-62556747D01*
X141076777Y-62573223D01*
X141093253Y-62591402D01*
X141107867Y-62611107D01*
X141120480Y-62632151D01*
X141130970Y-62654329D01*
X141139235Y-62677429D01*
X141145196Y-62701227D01*
X141148796Y-62725496D01*
X141150000Y-62750000D01*
X141150000Y-63250000D01*
X141148796Y-63274504D01*
X141145196Y-63298773D01*
X141139235Y-63322571D01*
X141130970Y-63345671D01*
X141120480Y-63367849D01*
X141107867Y-63388893D01*
X141093253Y-63408598D01*
X141076777Y-63426777D01*
X141058598Y-63443253D01*
X141038893Y-63457867D01*
X141017849Y-63470480D01*
X140995671Y-63480970D01*
X140972571Y-63489235D01*
X140948773Y-63495196D01*
X140924504Y-63498796D01*
X140900000Y-63500000D01*
X139500000Y-63500000D01*
X139475496Y-63498796D01*
X139451227Y-63495196D01*
X139427429Y-63489235D01*
X139404329Y-63480970D01*
X139382151Y-63470480D01*
X139361107Y-63457867D01*
X139341402Y-63443253D01*
X139323223Y-63426777D01*
X139306747Y-63408598D01*
X139292133Y-63388893D01*
X139279520Y-63367849D01*
X139269030Y-63345671D01*
X139260765Y-63322571D01*
X139254804Y-63298773D01*
X139251204Y-63274504D01*
X139250000Y-63250000D01*
X139250000Y-62750000D01*
X139251204Y-62725496D01*
X139254804Y-62701227D01*
X139260765Y-62677429D01*
X139269030Y-62654329D01*
X139279520Y-62632151D01*
X139292133Y-62611107D01*
X139306747Y-62591402D01*
X139323223Y-62573223D01*
X139341402Y-62556747D01*
X139361107Y-62542133D01*
X139382151Y-62529520D01*
X139404329Y-62519030D01*
X139427429Y-62510765D01*
X139451227Y-62504804D01*
X139475496Y-62501204D01*
X139500000Y-62500000D01*
X140900000Y-62500000D01*
X140924504Y-62501204D01*
G37*
G36*
X140924504Y-58501204D02*
G01*
X140948773Y-58504804D01*
X140972571Y-58510765D01*
X140995671Y-58519030D01*
X141017849Y-58529520D01*
X141038893Y-58542133D01*
X141058598Y-58556747D01*
X141076777Y-58573223D01*
X141093253Y-58591402D01*
X141107867Y-58611107D01*
X141120480Y-58632151D01*
X141130970Y-58654329D01*
X141139235Y-58677429D01*
X141145196Y-58701227D01*
X141148796Y-58725496D01*
X141150000Y-58750000D01*
X141150000Y-59250000D01*
X141148796Y-59274504D01*
X141145196Y-59298773D01*
X141139235Y-59322571D01*
X141130970Y-59345671D01*
X141120480Y-59367849D01*
X141107867Y-59388893D01*
X141093253Y-59408598D01*
X141076777Y-59426777D01*
X141058598Y-59443253D01*
X141038893Y-59457867D01*
X141017849Y-59470480D01*
X140995671Y-59480970D01*
X140972571Y-59489235D01*
X140948773Y-59495196D01*
X140924504Y-59498796D01*
X140900000Y-59500000D01*
X139500000Y-59500000D01*
X139475496Y-59498796D01*
X139451227Y-59495196D01*
X139427429Y-59489235D01*
X139404329Y-59480970D01*
X139382151Y-59470480D01*
X139361107Y-59457867D01*
X139341402Y-59443253D01*
X139323223Y-59426777D01*
X139306747Y-59408598D01*
X139292133Y-59388893D01*
X139279520Y-59367849D01*
X139269030Y-59345671D01*
X139260765Y-59322571D01*
X139254804Y-59298773D01*
X139251204Y-59274504D01*
X139250000Y-59250000D01*
X139250000Y-58750000D01*
X139251204Y-58725496D01*
X139254804Y-58701227D01*
X139260765Y-58677429D01*
X139269030Y-58654329D01*
X139279520Y-58632151D01*
X139292133Y-58611107D01*
X139306747Y-58591402D01*
X139323223Y-58573223D01*
X139341402Y-58556747D01*
X139361107Y-58542133D01*
X139382151Y-58529520D01*
X139404329Y-58519030D01*
X139427429Y-58510765D01*
X139451227Y-58504804D01*
X139475496Y-58501204D01*
X139500000Y-58500000D01*
X140900000Y-58500000D01*
X140924504Y-58501204D01*
G37*
G36*
X137524504Y-76501204D02*
G01*
X137548773Y-76504804D01*
X137572571Y-76510765D01*
X137595671Y-76519030D01*
X137617849Y-76529520D01*
X137638893Y-76542133D01*
X137658598Y-76556747D01*
X137676777Y-76573223D01*
X137693253Y-76591402D01*
X137707867Y-76611107D01*
X137720480Y-76632151D01*
X137730970Y-76654329D01*
X137739235Y-76677429D01*
X137745196Y-76701227D01*
X137748796Y-76725496D01*
X137750000Y-76750000D01*
X137750000Y-77250000D01*
X137748796Y-77274504D01*
X137745196Y-77298773D01*
X137739235Y-77322571D01*
X137730970Y-77345671D01*
X137720480Y-77367849D01*
X137707867Y-77388893D01*
X137693253Y-77408598D01*
X137676777Y-77426777D01*
X137658598Y-77443253D01*
X137638893Y-77457867D01*
X137617849Y-77470480D01*
X137595671Y-77480970D01*
X137572571Y-77489235D01*
X137548773Y-77495196D01*
X137524504Y-77498796D01*
X137500000Y-77500000D01*
X136100000Y-77500000D01*
X136075496Y-77498796D01*
X136051227Y-77495196D01*
X136027429Y-77489235D01*
X136004329Y-77480970D01*
X135982151Y-77470480D01*
X135961107Y-77457867D01*
X135941402Y-77443253D01*
X135923223Y-77426777D01*
X135906747Y-77408598D01*
X135892133Y-77388893D01*
X135879520Y-77367849D01*
X135869030Y-77345671D01*
X135860765Y-77322571D01*
X135854804Y-77298773D01*
X135851204Y-77274504D01*
X135850000Y-77250000D01*
X135850000Y-76750000D01*
X135851204Y-76725496D01*
X135854804Y-76701227D01*
X135860765Y-76677429D01*
X135869030Y-76654329D01*
X135879520Y-76632151D01*
X135892133Y-76611107D01*
X135906747Y-76591402D01*
X135923223Y-76573223D01*
X135941402Y-76556747D01*
X135961107Y-76542133D01*
X135982151Y-76529520D01*
X136004329Y-76519030D01*
X136027429Y-76510765D01*
X136051227Y-76504804D01*
X136075496Y-76501204D01*
X136100000Y-76500000D01*
X137500000Y-76500000D01*
X137524504Y-76501204D01*
G37*
G36*
X137524504Y-72501204D02*
G01*
X137548773Y-72504804D01*
X137572571Y-72510765D01*
X137595671Y-72519030D01*
X137617849Y-72529520D01*
X137638893Y-72542133D01*
X137658598Y-72556747D01*
X137676777Y-72573223D01*
X137693253Y-72591402D01*
X137707867Y-72611107D01*
X137720480Y-72632151D01*
X137730970Y-72654329D01*
X137739235Y-72677429D01*
X137745196Y-72701227D01*
X137748796Y-72725496D01*
X137750000Y-72750000D01*
X137750000Y-73250000D01*
X137748796Y-73274504D01*
X137745196Y-73298773D01*
X137739235Y-73322571D01*
X137730970Y-73345671D01*
X137720480Y-73367849D01*
X137707867Y-73388893D01*
X137693253Y-73408598D01*
X137676777Y-73426777D01*
X137658598Y-73443253D01*
X137638893Y-73457867D01*
X137617849Y-73470480D01*
X137595671Y-73480970D01*
X137572571Y-73489235D01*
X137548773Y-73495196D01*
X137524504Y-73498796D01*
X137500000Y-73500000D01*
X136100000Y-73500000D01*
X136075496Y-73498796D01*
X136051227Y-73495196D01*
X136027429Y-73489235D01*
X136004329Y-73480970D01*
X135982151Y-73470480D01*
X135961107Y-73457867D01*
X135941402Y-73443253D01*
X135923223Y-73426777D01*
X135906747Y-73408598D01*
X135892133Y-73388893D01*
X135879520Y-73367849D01*
X135869030Y-73345671D01*
X135860765Y-73322571D01*
X135854804Y-73298773D01*
X135851204Y-73274504D01*
X135850000Y-73250000D01*
X135850000Y-72750000D01*
X135851204Y-72725496D01*
X135854804Y-72701227D01*
X135860765Y-72677429D01*
X135869030Y-72654329D01*
X135879520Y-72632151D01*
X135892133Y-72611107D01*
X135906747Y-72591402D01*
X135923223Y-72573223D01*
X135941402Y-72556747D01*
X135961107Y-72542133D01*
X135982151Y-72529520D01*
X136004329Y-72519030D01*
X136027429Y-72510765D01*
X136051227Y-72504804D01*
X136075496Y-72501204D01*
X136100000Y-72500000D01*
X137500000Y-72500000D01*
X137524504Y-72501204D01*
G37*
G36*
X137524504Y-68501204D02*
G01*
X137548773Y-68504804D01*
X137572571Y-68510765D01*
X137595671Y-68519030D01*
X137617849Y-68529520D01*
X137638893Y-68542133D01*
X137658598Y-68556747D01*
X137676777Y-68573223D01*
X137693253Y-68591402D01*
X137707867Y-68611107D01*
X137720480Y-68632151D01*
X137730970Y-68654329D01*
X137739235Y-68677429D01*
X137745196Y-68701227D01*
X137748796Y-68725496D01*
X137750000Y-68750000D01*
X137750000Y-69250000D01*
X137748796Y-69274504D01*
X137745196Y-69298773D01*
X137739235Y-69322571D01*
X137730970Y-69345671D01*
X137720480Y-69367849D01*
X137707867Y-69388893D01*
X137693253Y-69408598D01*
X137676777Y-69426777D01*
X137658598Y-69443253D01*
X137638893Y-69457867D01*
X137617849Y-69470480D01*
X137595671Y-69480970D01*
X137572571Y-69489235D01*
X137548773Y-69495196D01*
X137524504Y-69498796D01*
X137500000Y-69500000D01*
X136100000Y-69500000D01*
X136075496Y-69498796D01*
X136051227Y-69495196D01*
X136027429Y-69489235D01*
X136004329Y-69480970D01*
X135982151Y-69470480D01*
X135961107Y-69457867D01*
X135941402Y-69443253D01*
X135923223Y-69426777D01*
X135906747Y-69408598D01*
X135892133Y-69388893D01*
X135879520Y-69367849D01*
X135869030Y-69345671D01*
X135860765Y-69322571D01*
X135854804Y-69298773D01*
X135851204Y-69274504D01*
X135850000Y-69250000D01*
X135850000Y-68750000D01*
X135851204Y-68725496D01*
X135854804Y-68701227D01*
X135860765Y-68677429D01*
X135869030Y-68654329D01*
X135879520Y-68632151D01*
X135892133Y-68611107D01*
X135906747Y-68591402D01*
X135923223Y-68573223D01*
X135941402Y-68556747D01*
X135961107Y-68542133D01*
X135982151Y-68529520D01*
X136004329Y-68519030D01*
X136027429Y-68510765D01*
X136051227Y-68504804D01*
X136075496Y-68501204D01*
X136100000Y-68500000D01*
X137500000Y-68500000D01*
X137524504Y-68501204D01*
G37*
G36*
X137524504Y-64501204D02*
G01*
X137548773Y-64504804D01*
X137572571Y-64510765D01*
X137595671Y-64519030D01*
X137617849Y-64529520D01*
X137638893Y-64542133D01*
X137658598Y-64556747D01*
X137676777Y-64573223D01*
X137693253Y-64591402D01*
X137707867Y-64611107D01*
X137720480Y-64632151D01*
X137730970Y-64654329D01*
X137739235Y-64677429D01*
X137745196Y-64701227D01*
X137748796Y-64725496D01*
X137750000Y-64750000D01*
X137750000Y-65250000D01*
X137748796Y-65274504D01*
X137745196Y-65298773D01*
X137739235Y-65322571D01*
X137730970Y-65345671D01*
X137720480Y-65367849D01*
X137707867Y-65388893D01*
X137693253Y-65408598D01*
X137676777Y-65426777D01*
X137658598Y-65443253D01*
X137638893Y-65457867D01*
X137617849Y-65470480D01*
X137595671Y-65480970D01*
X137572571Y-65489235D01*
X137548773Y-65495196D01*
X137524504Y-65498796D01*
X137500000Y-65500000D01*
X136100000Y-65500000D01*
X136075496Y-65498796D01*
X136051227Y-65495196D01*
X136027429Y-65489235D01*
X136004329Y-65480970D01*
X135982151Y-65470480D01*
X135961107Y-65457867D01*
X135941402Y-65443253D01*
X135923223Y-65426777D01*
X135906747Y-65408598D01*
X135892133Y-65388893D01*
X135879520Y-65367849D01*
X135869030Y-65345671D01*
X135860765Y-65322571D01*
X135854804Y-65298773D01*
X135851204Y-65274504D01*
X135850000Y-65250000D01*
X135850000Y-64750000D01*
X135851204Y-64725496D01*
X135854804Y-64701227D01*
X135860765Y-64677429D01*
X135869030Y-64654329D01*
X135879520Y-64632151D01*
X135892133Y-64611107D01*
X135906747Y-64591402D01*
X135923223Y-64573223D01*
X135941402Y-64556747D01*
X135961107Y-64542133D01*
X135982151Y-64529520D01*
X136004329Y-64519030D01*
X136027429Y-64510765D01*
X136051227Y-64504804D01*
X136075496Y-64501204D01*
X136100000Y-64500000D01*
X137500000Y-64500000D01*
X137524504Y-64501204D01*
G37*
G36*
X137524504Y-60501204D02*
G01*
X137548773Y-60504804D01*
X137572571Y-60510765D01*
X137595671Y-60519030D01*
X137617849Y-60529520D01*
X137638893Y-60542133D01*
X137658598Y-60556747D01*
X137676777Y-60573223D01*
X137693253Y-60591402D01*
X137707867Y-60611107D01*
X137720480Y-60632151D01*
X137730970Y-60654329D01*
X137739235Y-60677429D01*
X137745196Y-60701227D01*
X137748796Y-60725496D01*
X137750000Y-60750000D01*
X137750000Y-61250000D01*
X137748796Y-61274504D01*
X137745196Y-61298773D01*
X137739235Y-61322571D01*
X137730970Y-61345671D01*
X137720480Y-61367849D01*
X137707867Y-61388893D01*
X137693253Y-61408598D01*
X137676777Y-61426777D01*
X137658598Y-61443253D01*
X137638893Y-61457867D01*
X137617849Y-61470480D01*
X137595671Y-61480970D01*
X137572571Y-61489235D01*
X137548773Y-61495196D01*
X137524504Y-61498796D01*
X137500000Y-61500000D01*
X136100000Y-61500000D01*
X136075496Y-61498796D01*
X136051227Y-61495196D01*
X136027429Y-61489235D01*
X136004329Y-61480970D01*
X135982151Y-61470480D01*
X135961107Y-61457867D01*
X135941402Y-61443253D01*
X135923223Y-61426777D01*
X135906747Y-61408598D01*
X135892133Y-61388893D01*
X135879520Y-61367849D01*
X135869030Y-61345671D01*
X135860765Y-61322571D01*
X135854804Y-61298773D01*
X135851204Y-61274504D01*
X135850000Y-61250000D01*
X135850000Y-60750000D01*
X135851204Y-60725496D01*
X135854804Y-60701227D01*
X135860765Y-60677429D01*
X135869030Y-60654329D01*
X135879520Y-60632151D01*
X135892133Y-60611107D01*
X135906747Y-60591402D01*
X135923223Y-60573223D01*
X135941402Y-60556747D01*
X135961107Y-60542133D01*
X135982151Y-60529520D01*
X136004329Y-60519030D01*
X136027429Y-60510765D01*
X136051227Y-60504804D01*
X136075496Y-60501204D01*
X136100000Y-60500000D01*
X137500000Y-60500000D01*
X137524504Y-60501204D01*
G37*
G36*
X162924504Y-74501204D02*
G01*
X162948773Y-74504804D01*
X162972571Y-74510765D01*
X162995671Y-74519030D01*
X163017849Y-74529520D01*
X163038893Y-74542133D01*
X163058598Y-74556747D01*
X163076777Y-74573223D01*
X163093253Y-74591402D01*
X163107867Y-74611107D01*
X163120480Y-74632151D01*
X163130970Y-74654329D01*
X163139235Y-74677429D01*
X163145196Y-74701227D01*
X163148796Y-74725496D01*
X163150000Y-74750000D01*
X163150000Y-75250000D01*
X163148796Y-75274504D01*
X163145196Y-75298773D01*
X163139235Y-75322571D01*
X163130970Y-75345671D01*
X163120480Y-75367849D01*
X163107867Y-75388893D01*
X163093253Y-75408598D01*
X163076777Y-75426777D01*
X163058598Y-75443253D01*
X163038893Y-75457867D01*
X163017849Y-75470480D01*
X162995671Y-75480970D01*
X162972571Y-75489235D01*
X162948773Y-75495196D01*
X162924504Y-75498796D01*
X162900000Y-75500000D01*
X161500000Y-75500000D01*
X161475496Y-75498796D01*
X161451227Y-75495196D01*
X161427429Y-75489235D01*
X161404329Y-75480970D01*
X161382151Y-75470480D01*
X161361107Y-75457867D01*
X161341402Y-75443253D01*
X161323223Y-75426777D01*
X161306747Y-75408598D01*
X161292133Y-75388893D01*
X161279520Y-75367849D01*
X161269030Y-75345671D01*
X161260765Y-75322571D01*
X161254804Y-75298773D01*
X161251204Y-75274504D01*
X161250000Y-75250000D01*
X161250000Y-74750000D01*
X161251204Y-74725496D01*
X161254804Y-74701227D01*
X161260765Y-74677429D01*
X161269030Y-74654329D01*
X161279520Y-74632151D01*
X161292133Y-74611107D01*
X161306747Y-74591402D01*
X161323223Y-74573223D01*
X161341402Y-74556747D01*
X161361107Y-74542133D01*
X161382151Y-74529520D01*
X161404329Y-74519030D01*
X161427429Y-74510765D01*
X161451227Y-74504804D01*
X161475496Y-74501204D01*
X161500000Y-74500000D01*
X162900000Y-74500000D01*
X162924504Y-74501204D01*
G37*
G36*
X162924504Y-70501204D02*
G01*
X162948773Y-70504804D01*
X162972571Y-70510765D01*
X162995671Y-70519030D01*
X163017849Y-70529520D01*
X163038893Y-70542133D01*
X163058598Y-70556747D01*
X163076777Y-70573223D01*
X163093253Y-70591402D01*
X163107867Y-70611107D01*
X163120480Y-70632151D01*
X163130970Y-70654329D01*
X163139235Y-70677429D01*
X163145196Y-70701227D01*
X163148796Y-70725496D01*
X163150000Y-70750000D01*
X163150000Y-71250000D01*
X163148796Y-71274504D01*
X163145196Y-71298773D01*
X163139235Y-71322571D01*
X163130970Y-71345671D01*
X163120480Y-71367849D01*
X163107867Y-71388893D01*
X163093253Y-71408598D01*
X163076777Y-71426777D01*
X163058598Y-71443253D01*
X163038893Y-71457867D01*
X163017849Y-71470480D01*
X162995671Y-71480970D01*
X162972571Y-71489235D01*
X162948773Y-71495196D01*
X162924504Y-71498796D01*
X162900000Y-71500000D01*
X161500000Y-71500000D01*
X161475496Y-71498796D01*
X161451227Y-71495196D01*
X161427429Y-71489235D01*
X161404329Y-71480970D01*
X161382151Y-71470480D01*
X161361107Y-71457867D01*
X161341402Y-71443253D01*
X161323223Y-71426777D01*
X161306747Y-71408598D01*
X161292133Y-71388893D01*
X161279520Y-71367849D01*
X161269030Y-71345671D01*
X161260765Y-71322571D01*
X161254804Y-71298773D01*
X161251204Y-71274504D01*
X161250000Y-71250000D01*
X161250000Y-70750000D01*
X161251204Y-70725496D01*
X161254804Y-70701227D01*
X161260765Y-70677429D01*
X161269030Y-70654329D01*
X161279520Y-70632151D01*
X161292133Y-70611107D01*
X161306747Y-70591402D01*
X161323223Y-70573223D01*
X161341402Y-70556747D01*
X161361107Y-70542133D01*
X161382151Y-70529520D01*
X161404329Y-70519030D01*
X161427429Y-70510765D01*
X161451227Y-70504804D01*
X161475496Y-70501204D01*
X161500000Y-70500000D01*
X162900000Y-70500000D01*
X162924504Y-70501204D01*
G37*
G36*
X162924504Y-66501204D02*
G01*
X162948773Y-66504804D01*
X162972571Y-66510765D01*
X162995671Y-66519030D01*
X163017849Y-66529520D01*
X163038893Y-66542133D01*
X163058598Y-66556747D01*
X163076777Y-66573223D01*
X163093253Y-66591402D01*
X163107867Y-66611107D01*
X163120480Y-66632151D01*
X163130970Y-66654329D01*
X163139235Y-66677429D01*
X163145196Y-66701227D01*
X163148796Y-66725496D01*
X163150000Y-66750000D01*
X163150000Y-67250000D01*
X163148796Y-67274504D01*
X163145196Y-67298773D01*
X163139235Y-67322571D01*
X163130970Y-67345671D01*
X163120480Y-67367849D01*
X163107867Y-67388893D01*
X163093253Y-67408598D01*
X163076777Y-67426777D01*
X163058598Y-67443253D01*
X163038893Y-67457867D01*
X163017849Y-67470480D01*
X162995671Y-67480970D01*
X162972571Y-67489235D01*
X162948773Y-67495196D01*
X162924504Y-67498796D01*
X162900000Y-67500000D01*
X161500000Y-67500000D01*
X161475496Y-67498796D01*
X161451227Y-67495196D01*
X161427429Y-67489235D01*
X161404329Y-67480970D01*
X161382151Y-67470480D01*
X161361107Y-67457867D01*
X161341402Y-67443253D01*
X161323223Y-67426777D01*
X161306747Y-67408598D01*
X161292133Y-67388893D01*
X161279520Y-67367849D01*
X161269030Y-67345671D01*
X161260765Y-67322571D01*
X161254804Y-67298773D01*
X161251204Y-67274504D01*
X161250000Y-67250000D01*
X161250000Y-66750000D01*
X161251204Y-66725496D01*
X161254804Y-66701227D01*
X161260765Y-66677429D01*
X161269030Y-66654329D01*
X161279520Y-66632151D01*
X161292133Y-66611107D01*
X161306747Y-66591402D01*
X161323223Y-66573223D01*
X161341402Y-66556747D01*
X161361107Y-66542133D01*
X161382151Y-66529520D01*
X161404329Y-66519030D01*
X161427429Y-66510765D01*
X161451227Y-66504804D01*
X161475496Y-66501204D01*
X161500000Y-66500000D01*
X162900000Y-66500000D01*
X162924504Y-66501204D01*
G37*
G36*
X162924504Y-62501204D02*
G01*
X162948773Y-62504804D01*
X162972571Y-62510765D01*
X162995671Y-62519030D01*
X163017849Y-62529520D01*
X163038893Y-62542133D01*
X163058598Y-62556747D01*
X163076777Y-62573223D01*
X163093253Y-62591402D01*
X163107867Y-62611107D01*
X163120480Y-62632151D01*
X163130970Y-62654329D01*
X163139235Y-62677429D01*
X163145196Y-62701227D01*
X163148796Y-62725496D01*
X163150000Y-62750000D01*
X163150000Y-63250000D01*
X163148796Y-63274504D01*
X163145196Y-63298773D01*
X163139235Y-63322571D01*
X163130970Y-63345671D01*
X163120480Y-63367849D01*
X163107867Y-63388893D01*
X163093253Y-63408598D01*
X163076777Y-63426777D01*
X163058598Y-63443253D01*
X163038893Y-63457867D01*
X163017849Y-63470480D01*
X162995671Y-63480970D01*
X162972571Y-63489235D01*
X162948773Y-63495196D01*
X162924504Y-63498796D01*
X162900000Y-63500000D01*
X161500000Y-63500000D01*
X161475496Y-63498796D01*
X161451227Y-63495196D01*
X161427429Y-63489235D01*
X161404329Y-63480970D01*
X161382151Y-63470480D01*
X161361107Y-63457867D01*
X161341402Y-63443253D01*
X161323223Y-63426777D01*
X161306747Y-63408598D01*
X161292133Y-63388893D01*
X161279520Y-63367849D01*
X161269030Y-63345671D01*
X161260765Y-63322571D01*
X161254804Y-63298773D01*
X161251204Y-63274504D01*
X161250000Y-63250000D01*
X161250000Y-62750000D01*
X161251204Y-62725496D01*
X161254804Y-62701227D01*
X161260765Y-62677429D01*
X161269030Y-62654329D01*
X161279520Y-62632151D01*
X161292133Y-62611107D01*
X161306747Y-62591402D01*
X161323223Y-62573223D01*
X161341402Y-62556747D01*
X161361107Y-62542133D01*
X161382151Y-62529520D01*
X161404329Y-62519030D01*
X161427429Y-62510765D01*
X161451227Y-62504804D01*
X161475496Y-62501204D01*
X161500000Y-62500000D01*
X162900000Y-62500000D01*
X162924504Y-62501204D01*
G37*
G36*
X162924504Y-58501204D02*
G01*
X162948773Y-58504804D01*
X162972571Y-58510765D01*
X162995671Y-58519030D01*
X163017849Y-58529520D01*
X163038893Y-58542133D01*
X163058598Y-58556747D01*
X163076777Y-58573223D01*
X163093253Y-58591402D01*
X163107867Y-58611107D01*
X163120480Y-58632151D01*
X163130970Y-58654329D01*
X163139235Y-58677429D01*
X163145196Y-58701227D01*
X163148796Y-58725496D01*
X163150000Y-58750000D01*
X163150000Y-59250000D01*
X163148796Y-59274504D01*
X163145196Y-59298773D01*
X163139235Y-59322571D01*
X163130970Y-59345671D01*
X163120480Y-59367849D01*
X163107867Y-59388893D01*
X163093253Y-59408598D01*
X163076777Y-59426777D01*
X163058598Y-59443253D01*
X163038893Y-59457867D01*
X163017849Y-59470480D01*
X162995671Y-59480970D01*
X162972571Y-59489235D01*
X162948773Y-59495196D01*
X162924504Y-59498796D01*
X162900000Y-59500000D01*
X161500000Y-59500000D01*
X161475496Y-59498796D01*
X161451227Y-59495196D01*
X161427429Y-59489235D01*
X161404329Y-59480970D01*
X161382151Y-59470480D01*
X161361107Y-59457867D01*
X161341402Y-59443253D01*
X161323223Y-59426777D01*
X161306747Y-59408598D01*
X161292133Y-59388893D01*
X161279520Y-59367849D01*
X161269030Y-59345671D01*
X161260765Y-59322571D01*
X161254804Y-59298773D01*
X161251204Y-59274504D01*
X161250000Y-59250000D01*
X161250000Y-58750000D01*
X161251204Y-58725496D01*
X161254804Y-58701227D01*
X161260765Y-58677429D01*
X161269030Y-58654329D01*
X161279520Y-58632151D01*
X161292133Y-58611107D01*
X161306747Y-58591402D01*
X161323223Y-58573223D01*
X161341402Y-58556747D01*
X161361107Y-58542133D01*
X161382151Y-58529520D01*
X161404329Y-58519030D01*
X161427429Y-58510765D01*
X161451227Y-58504804D01*
X161475496Y-58501204D01*
X161500000Y-58500000D01*
X162900000Y-58500000D01*
X162924504Y-58501204D01*
G37*
G36*
X159524504Y-76501204D02*
G01*
X159548773Y-76504804D01*
X159572571Y-76510765D01*
X159595671Y-76519030D01*
X159617849Y-76529520D01*
X159638893Y-76542133D01*
X159658598Y-76556747D01*
X159676777Y-76573223D01*
X159693253Y-76591402D01*
X159707867Y-76611107D01*
X159720480Y-76632151D01*
X159730970Y-76654329D01*
X159739235Y-76677429D01*
X159745196Y-76701227D01*
X159748796Y-76725496D01*
X159750000Y-76750000D01*
X159750000Y-77250000D01*
X159748796Y-77274504D01*
X159745196Y-77298773D01*
X159739235Y-77322571D01*
X159730970Y-77345671D01*
X159720480Y-77367849D01*
X159707867Y-77388893D01*
X159693253Y-77408598D01*
X159676777Y-77426777D01*
X159658598Y-77443253D01*
X159638893Y-77457867D01*
X159617849Y-77470480D01*
X159595671Y-77480970D01*
X159572571Y-77489235D01*
X159548773Y-77495196D01*
X159524504Y-77498796D01*
X159500000Y-77500000D01*
X158100000Y-77500000D01*
X158075496Y-77498796D01*
X158051227Y-77495196D01*
X158027429Y-77489235D01*
X158004329Y-77480970D01*
X157982151Y-77470480D01*
X157961107Y-77457867D01*
X157941402Y-77443253D01*
X157923223Y-77426777D01*
X157906747Y-77408598D01*
X157892133Y-77388893D01*
X157879520Y-77367849D01*
X157869030Y-77345671D01*
X157860765Y-77322571D01*
X157854804Y-77298773D01*
X157851204Y-77274504D01*
X157850000Y-77250000D01*
X157850000Y-76750000D01*
X157851204Y-76725496D01*
X157854804Y-76701227D01*
X157860765Y-76677429D01*
X157869030Y-76654329D01*
X157879520Y-76632151D01*
X157892133Y-76611107D01*
X157906747Y-76591402D01*
X157923223Y-76573223D01*
X157941402Y-76556747D01*
X157961107Y-76542133D01*
X157982151Y-76529520D01*
X158004329Y-76519030D01*
X158027429Y-76510765D01*
X158051227Y-76504804D01*
X158075496Y-76501204D01*
X158100000Y-76500000D01*
X159500000Y-76500000D01*
X159524504Y-76501204D01*
G37*
G36*
X159524504Y-72501204D02*
G01*
X159548773Y-72504804D01*
X159572571Y-72510765D01*
X159595671Y-72519030D01*
X159617849Y-72529520D01*
X159638893Y-72542133D01*
X159658598Y-72556747D01*
X159676777Y-72573223D01*
X159693253Y-72591402D01*
X159707867Y-72611107D01*
X159720480Y-72632151D01*
X159730970Y-72654329D01*
X159739235Y-72677429D01*
X159745196Y-72701227D01*
X159748796Y-72725496D01*
X159750000Y-72750000D01*
X159750000Y-73250000D01*
X159748796Y-73274504D01*
X159745196Y-73298773D01*
X159739235Y-73322571D01*
X159730970Y-73345671D01*
X159720480Y-73367849D01*
X159707867Y-73388893D01*
X159693253Y-73408598D01*
X159676777Y-73426777D01*
X159658598Y-73443253D01*
X159638893Y-73457867D01*
X159617849Y-73470480D01*
X159595671Y-73480970D01*
X159572571Y-73489235D01*
X159548773Y-73495196D01*
X159524504Y-73498796D01*
X159500000Y-73500000D01*
X158100000Y-73500000D01*
X158075496Y-73498796D01*
X158051227Y-73495196D01*
X158027429Y-73489235D01*
X158004329Y-73480970D01*
X157982151Y-73470480D01*
X157961107Y-73457867D01*
X157941402Y-73443253D01*
X157923223Y-73426777D01*
X157906747Y-73408598D01*
X157892133Y-73388893D01*
X157879520Y-73367849D01*
X157869030Y-73345671D01*
X157860765Y-73322571D01*
X157854804Y-73298773D01*
X157851204Y-73274504D01*
X157850000Y-73250000D01*
X157850000Y-72750000D01*
X157851204Y-72725496D01*
X157854804Y-72701227D01*
X157860765Y-72677429D01*
X157869030Y-72654329D01*
X157879520Y-72632151D01*
X157892133Y-72611107D01*
X157906747Y-72591402D01*
X157923223Y-72573223D01*
X157941402Y-72556747D01*
X157961107Y-72542133D01*
X157982151Y-72529520D01*
X158004329Y-72519030D01*
X158027429Y-72510765D01*
X158051227Y-72504804D01*
X158075496Y-72501204D01*
X158100000Y-72500000D01*
X159500000Y-72500000D01*
X159524504Y-72501204D01*
G37*
G36*
X159524504Y-68501204D02*
G01*
X159548773Y-68504804D01*
X159572571Y-68510765D01*
X159595671Y-68519030D01*
X159617849Y-68529520D01*
X159638893Y-68542133D01*
X159658598Y-68556747D01*
X159676777Y-68573223D01*
X159693253Y-68591402D01*
X159707867Y-68611107D01*
X159720480Y-68632151D01*
X159730970Y-68654329D01*
X159739235Y-68677429D01*
X159745196Y-68701227D01*
X159748796Y-68725496D01*
X159750000Y-68750000D01*
X159750000Y-69250000D01*
X159748796Y-69274504D01*
X159745196Y-69298773D01*
X159739235Y-69322571D01*
X159730970Y-69345671D01*
X159720480Y-69367849D01*
X159707867Y-69388893D01*
X159693253Y-69408598D01*
X159676777Y-69426777D01*
X159658598Y-69443253D01*
X159638893Y-69457867D01*
X159617849Y-69470480D01*
X159595671Y-69480970D01*
X159572571Y-69489235D01*
X159548773Y-69495196D01*
X159524504Y-69498796D01*
X159500000Y-69500000D01*
X158100000Y-69500000D01*
X158075496Y-69498796D01*
X158051227Y-69495196D01*
X158027429Y-69489235D01*
X158004329Y-69480970D01*
X157982151Y-69470480D01*
X157961107Y-69457867D01*
X157941402Y-69443253D01*
X157923223Y-69426777D01*
X157906747Y-69408598D01*
X157892133Y-69388893D01*
X157879520Y-69367849D01*
X157869030Y-69345671D01*
X157860765Y-69322571D01*
X157854804Y-69298773D01*
X157851204Y-69274504D01*
X157850000Y-69250000D01*
X157850000Y-68750000D01*
X157851204Y-68725496D01*
X157854804Y-68701227D01*
X157860765Y-68677429D01*
X157869030Y-68654329D01*
X157879520Y-68632151D01*
X157892133Y-68611107D01*
X157906747Y-68591402D01*
X157923223Y-68573223D01*
X157941402Y-68556747D01*
X157961107Y-68542133D01*
X157982151Y-68529520D01*
X158004329Y-68519030D01*
X158027429Y-68510765D01*
X158051227Y-68504804D01*
X158075496Y-68501204D01*
X158100000Y-68500000D01*
X159500000Y-68500000D01*
X159524504Y-68501204D01*
G37*
G36*
X159524504Y-64501204D02*
G01*
X159548773Y-64504804D01*
X159572571Y-64510765D01*
X159595671Y-64519030D01*
X159617849Y-64529520D01*
X159638893Y-64542133D01*
X159658598Y-64556747D01*
X159676777Y-64573223D01*
X159693253Y-64591402D01*
X159707867Y-64611107D01*
X159720480Y-64632151D01*
X159730970Y-64654329D01*
X159739235Y-64677429D01*
X159745196Y-64701227D01*
X159748796Y-64725496D01*
X159750000Y-64750000D01*
X159750000Y-65250000D01*
X159748796Y-65274504D01*
X159745196Y-65298773D01*
X159739235Y-65322571D01*
X159730970Y-65345671D01*
X159720480Y-65367849D01*
X159707867Y-65388893D01*
X159693253Y-65408598D01*
X159676777Y-65426777D01*
X159658598Y-65443253D01*
X159638893Y-65457867D01*
X159617849Y-65470480D01*
X159595671Y-65480970D01*
X159572571Y-65489235D01*
X159548773Y-65495196D01*
X159524504Y-65498796D01*
X159500000Y-65500000D01*
X158100000Y-65500000D01*
X158075496Y-65498796D01*
X158051227Y-65495196D01*
X158027429Y-65489235D01*
X158004329Y-65480970D01*
X157982151Y-65470480D01*
X157961107Y-65457867D01*
X157941402Y-65443253D01*
X157923223Y-65426777D01*
X157906747Y-65408598D01*
X157892133Y-65388893D01*
X157879520Y-65367849D01*
X157869030Y-65345671D01*
X157860765Y-65322571D01*
X157854804Y-65298773D01*
X157851204Y-65274504D01*
X157850000Y-65250000D01*
X157850000Y-64750000D01*
X157851204Y-64725496D01*
X157854804Y-64701227D01*
X157860765Y-64677429D01*
X157869030Y-64654329D01*
X157879520Y-64632151D01*
X157892133Y-64611107D01*
X157906747Y-64591402D01*
X157923223Y-64573223D01*
X157941402Y-64556747D01*
X157961107Y-64542133D01*
X157982151Y-64529520D01*
X158004329Y-64519030D01*
X158027429Y-64510765D01*
X158051227Y-64504804D01*
X158075496Y-64501204D01*
X158100000Y-64500000D01*
X159500000Y-64500000D01*
X159524504Y-64501204D01*
G37*
G36*
X159524504Y-60501204D02*
G01*
X159548773Y-60504804D01*
X159572571Y-60510765D01*
X159595671Y-60519030D01*
X159617849Y-60529520D01*
X159638893Y-60542133D01*
X159658598Y-60556747D01*
X159676777Y-60573223D01*
X159693253Y-60591402D01*
X159707867Y-60611107D01*
X159720480Y-60632151D01*
X159730970Y-60654329D01*
X159739235Y-60677429D01*
X159745196Y-60701227D01*
X159748796Y-60725496D01*
X159750000Y-60750000D01*
X159750000Y-61250000D01*
X159748796Y-61274504D01*
X159745196Y-61298773D01*
X159739235Y-61322571D01*
X159730970Y-61345671D01*
X159720480Y-61367849D01*
X159707867Y-61388893D01*
X159693253Y-61408598D01*
X159676777Y-61426777D01*
X159658598Y-61443253D01*
X159638893Y-61457867D01*
X159617849Y-61470480D01*
X159595671Y-61480970D01*
X159572571Y-61489235D01*
X159548773Y-61495196D01*
X159524504Y-61498796D01*
X159500000Y-61500000D01*
X158100000Y-61500000D01*
X158075496Y-61498796D01*
X158051227Y-61495196D01*
X158027429Y-61489235D01*
X158004329Y-61480970D01*
X157982151Y-61470480D01*
X157961107Y-61457867D01*
X157941402Y-61443253D01*
X157923223Y-61426777D01*
X157906747Y-61408598D01*
X157892133Y-61388893D01*
X157879520Y-61367849D01*
X157869030Y-61345671D01*
X157860765Y-61322571D01*
X157854804Y-61298773D01*
X157851204Y-61274504D01*
X157850000Y-61250000D01*
X157850000Y-60750000D01*
X157851204Y-60725496D01*
X157854804Y-60701227D01*
X157860765Y-60677429D01*
X157869030Y-60654329D01*
X157879520Y-60632151D01*
X157892133Y-60611107D01*
X157906747Y-60591402D01*
X157923223Y-60573223D01*
X157941402Y-60556747D01*
X157961107Y-60542133D01*
X157982151Y-60529520D01*
X158004329Y-60519030D01*
X158027429Y-60510765D01*
X158051227Y-60504804D01*
X158075496Y-60501204D01*
X158100000Y-60500000D01*
X159500000Y-60500000D01*
X159524504Y-60501204D01*
G37*
G36*
X155497054Y-60501083D02*
G01*
X155518895Y-60504323D01*
X155540314Y-60509688D01*
X155561104Y-60517127D01*
X155581064Y-60526568D01*
X155600003Y-60537919D01*
X155617738Y-60551073D01*
X155634099Y-60565901D01*
X155648927Y-60582262D01*
X155662081Y-60599997D01*
X155673432Y-60618936D01*
X155682873Y-60638896D01*
X155690312Y-60659686D01*
X155695677Y-60681105D01*
X155698917Y-60702946D01*
X155700000Y-60725000D01*
X155700000Y-61875000D01*
X155698917Y-61897054D01*
X155695677Y-61918895D01*
X155690312Y-61940314D01*
X155682873Y-61961104D01*
X155673432Y-61981064D01*
X155662081Y-62000003D01*
X155648927Y-62017738D01*
X155634099Y-62034099D01*
X155617738Y-62048927D01*
X155600003Y-62062081D01*
X155581064Y-62073432D01*
X155561104Y-62082873D01*
X155540314Y-62090312D01*
X155518895Y-62095677D01*
X155497054Y-62098917D01*
X155475000Y-62100000D01*
X155025000Y-62100000D01*
X155002946Y-62098917D01*
X154981105Y-62095677D01*
X154959686Y-62090312D01*
X154938896Y-62082873D01*
X154918936Y-62073432D01*
X154899997Y-62062081D01*
X154882262Y-62048927D01*
X154865901Y-62034099D01*
X154851073Y-62017738D01*
X154837919Y-62000003D01*
X154826568Y-61981064D01*
X154817127Y-61961104D01*
X154809688Y-61940314D01*
X154804323Y-61918895D01*
X154801083Y-61897054D01*
X154800000Y-61875000D01*
X154800000Y-60725000D01*
X154801083Y-60702946D01*
X154804323Y-60681105D01*
X154809688Y-60659686D01*
X154817127Y-60638896D01*
X154826568Y-60618936D01*
X154837919Y-60599997D01*
X154851073Y-60582262D01*
X154865901Y-60565901D01*
X154882262Y-60551073D01*
X154899997Y-60537919D01*
X154918936Y-60526568D01*
X154938896Y-60517127D01*
X154959686Y-60509688D01*
X154981105Y-60504323D01*
X155002946Y-60501083D01*
X155025000Y-60500000D01*
X155475000Y-60500000D01*
X155497054Y-60501083D01*
G37*
G36*
X154397054Y-60501083D02*
G01*
X154418895Y-60504323D01*
X154440314Y-60509688D01*
X154461104Y-60517127D01*
X154481064Y-60526568D01*
X154500003Y-60537919D01*
X154517738Y-60551073D01*
X154534099Y-60565901D01*
X154548927Y-60582262D01*
X154562081Y-60599997D01*
X154573432Y-60618936D01*
X154582873Y-60638896D01*
X154590312Y-60659686D01*
X154595677Y-60681105D01*
X154598917Y-60702946D01*
X154600000Y-60725000D01*
X154600000Y-61875000D01*
X154598917Y-61897054D01*
X154595677Y-61918895D01*
X154590312Y-61940314D01*
X154582873Y-61961104D01*
X154573432Y-61981064D01*
X154562081Y-62000003D01*
X154548927Y-62017738D01*
X154534099Y-62034099D01*
X154517738Y-62048927D01*
X154500003Y-62062081D01*
X154481064Y-62073432D01*
X154461104Y-62082873D01*
X154440314Y-62090312D01*
X154418895Y-62095677D01*
X154397054Y-62098917D01*
X154375000Y-62100000D01*
X153925000Y-62100000D01*
X153902946Y-62098917D01*
X153881105Y-62095677D01*
X153859686Y-62090312D01*
X153838896Y-62082873D01*
X153818936Y-62073432D01*
X153799997Y-62062081D01*
X153782262Y-62048927D01*
X153765901Y-62034099D01*
X153751073Y-62017738D01*
X153737919Y-62000003D01*
X153726568Y-61981064D01*
X153717127Y-61961104D01*
X153709688Y-61940314D01*
X153704323Y-61918895D01*
X153701083Y-61897054D01*
X153700000Y-61875000D01*
X153700000Y-60725000D01*
X153701083Y-60702946D01*
X153704323Y-60681105D01*
X153709688Y-60659686D01*
X153717127Y-60638896D01*
X153726568Y-60618936D01*
X153737919Y-60599997D01*
X153751073Y-60582262D01*
X153765901Y-60565901D01*
X153782262Y-60551073D01*
X153799997Y-60537919D01*
X153818936Y-60526568D01*
X153838896Y-60517127D01*
X153859686Y-60509688D01*
X153881105Y-60504323D01*
X153902946Y-60501083D01*
X153925000Y-60500000D01*
X154375000Y-60500000D01*
X154397054Y-60501083D01*
G37*
G36*
X153297054Y-60301083D02*
G01*
X153318895Y-60304323D01*
X153340314Y-60309688D01*
X153361104Y-60317127D01*
X153381064Y-60326568D01*
X153400003Y-60337919D01*
X153417738Y-60351073D01*
X153434099Y-60365901D01*
X153448927Y-60382262D01*
X153462081Y-60399997D01*
X153473432Y-60418936D01*
X153482873Y-60438896D01*
X153490312Y-60459686D01*
X153495677Y-60481105D01*
X153498917Y-60502946D01*
X153500000Y-60525000D01*
X153500000Y-61675000D01*
X153498917Y-61697054D01*
X153495677Y-61718895D01*
X153490312Y-61740314D01*
X153482873Y-61761104D01*
X153473432Y-61781064D01*
X153462081Y-61800003D01*
X153448927Y-61817738D01*
X153434099Y-61834099D01*
X153417738Y-61848927D01*
X153400003Y-61862081D01*
X153381064Y-61873432D01*
X153361104Y-61882873D01*
X153340314Y-61890312D01*
X153318895Y-61895677D01*
X153297054Y-61898917D01*
X153275000Y-61900000D01*
X152825000Y-61900000D01*
X152802946Y-61898917D01*
X152781105Y-61895677D01*
X152759686Y-61890312D01*
X152738896Y-61882873D01*
X152718936Y-61873432D01*
X152699997Y-61862081D01*
X152682262Y-61848927D01*
X152665901Y-61834099D01*
X152651073Y-61817738D01*
X152637919Y-61800003D01*
X152626568Y-61781064D01*
X152617127Y-61761104D01*
X152609688Y-61740314D01*
X152604323Y-61718895D01*
X152601083Y-61697054D01*
X152600000Y-61675000D01*
X152600000Y-60525000D01*
X152601083Y-60502946D01*
X152604323Y-60481105D01*
X152609688Y-60459686D01*
X152617127Y-60438896D01*
X152626568Y-60418936D01*
X152637919Y-60399997D01*
X152651073Y-60382262D01*
X152665901Y-60365901D01*
X152682262Y-60351073D01*
X152699997Y-60337919D01*
X152718936Y-60326568D01*
X152738896Y-60317127D01*
X152759686Y-60309688D01*
X152781105Y-60304323D01*
X152802946Y-60301083D01*
X152825000Y-60300000D01*
X153275000Y-60300000D01*
X153297054Y-60301083D01*
G37*
G36*
X152197054Y-60501083D02*
G01*
X152218895Y-60504323D01*
X152240314Y-60509688D01*
X152261104Y-60517127D01*
X152281064Y-60526568D01*
X152300003Y-60537919D01*
X152317738Y-60551073D01*
X152334099Y-60565901D01*
X152348927Y-60582262D01*
X152362081Y-60599997D01*
X152373432Y-60618936D01*
X152382873Y-60638896D01*
X152390312Y-60659686D01*
X152395677Y-60681105D01*
X152398917Y-60702946D01*
X152400000Y-60725000D01*
X152400000Y-61875000D01*
X152398917Y-61897054D01*
X152395677Y-61918895D01*
X152390312Y-61940314D01*
X152382873Y-61961104D01*
X152373432Y-61981064D01*
X152362081Y-62000003D01*
X152348927Y-62017738D01*
X152334099Y-62034099D01*
X152317738Y-62048927D01*
X152300003Y-62062081D01*
X152281064Y-62073432D01*
X152261104Y-62082873D01*
X152240314Y-62090312D01*
X152218895Y-62095677D01*
X152197054Y-62098917D01*
X152175000Y-62100000D01*
X151725000Y-62100000D01*
X151702946Y-62098917D01*
X151681105Y-62095677D01*
X151659686Y-62090312D01*
X151638896Y-62082873D01*
X151618936Y-62073432D01*
X151599997Y-62062081D01*
X151582262Y-62048927D01*
X151565901Y-62034099D01*
X151551073Y-62017738D01*
X151537919Y-62000003D01*
X151526568Y-61981064D01*
X151517127Y-61961104D01*
X151509688Y-61940314D01*
X151504323Y-61918895D01*
X151501083Y-61897054D01*
X151500000Y-61875000D01*
X151500000Y-60725000D01*
X151501083Y-60702946D01*
X151504323Y-60681105D01*
X151509688Y-60659686D01*
X151517127Y-60638896D01*
X151526568Y-60618936D01*
X151537919Y-60599997D01*
X151551073Y-60582262D01*
X151565901Y-60565901D01*
X151582262Y-60551073D01*
X151599997Y-60537919D01*
X151618936Y-60526568D01*
X151638896Y-60517127D01*
X151659686Y-60509688D01*
X151681105Y-60504323D01*
X151702946Y-60501083D01*
X151725000Y-60500000D01*
X152175000Y-60500000D01*
X152197054Y-60501083D01*
G37*
G36*
X151097054Y-60301083D02*
G01*
X151118895Y-60304323D01*
X151140314Y-60309688D01*
X151161104Y-60317127D01*
X151181064Y-60326568D01*
X151200003Y-60337919D01*
X151217738Y-60351073D01*
X151234099Y-60365901D01*
X151248927Y-60382262D01*
X151262081Y-60399997D01*
X151273432Y-60418936D01*
X151282873Y-60438896D01*
X151290312Y-60459686D01*
X151295677Y-60481105D01*
X151298917Y-60502946D01*
X151300000Y-60525000D01*
X151300000Y-61675000D01*
X151298917Y-61697054D01*
X151295677Y-61718895D01*
X151290312Y-61740314D01*
X151282873Y-61761104D01*
X151273432Y-61781064D01*
X151262081Y-61800003D01*
X151248927Y-61817738D01*
X151234099Y-61834099D01*
X151217738Y-61848927D01*
X151200003Y-61862081D01*
X151181064Y-61873432D01*
X151161104Y-61882873D01*
X151140314Y-61890312D01*
X151118895Y-61895677D01*
X151097054Y-61898917D01*
X151075000Y-61900000D01*
X150625000Y-61900000D01*
X150602946Y-61898917D01*
X150581105Y-61895677D01*
X150559686Y-61890312D01*
X150538896Y-61882873D01*
X150518936Y-61873432D01*
X150499997Y-61862081D01*
X150482262Y-61848927D01*
X150465901Y-61834099D01*
X150451073Y-61817738D01*
X150437919Y-61800003D01*
X150426568Y-61781064D01*
X150417127Y-61761104D01*
X150409688Y-61740314D01*
X150404323Y-61718895D01*
X150401083Y-61697054D01*
X150400000Y-61675000D01*
X150400000Y-60525000D01*
X150401083Y-60502946D01*
X150404323Y-60481105D01*
X150409688Y-60459686D01*
X150417127Y-60438896D01*
X150426568Y-60418936D01*
X150437919Y-60399997D01*
X150451073Y-60382262D01*
X150465901Y-60365901D01*
X150482262Y-60351073D01*
X150499997Y-60337919D01*
X150518936Y-60326568D01*
X150538896Y-60317127D01*
X150559686Y-60309688D01*
X150581105Y-60304323D01*
X150602946Y-60301083D01*
X150625000Y-60300000D01*
X151075000Y-60300000D01*
X151097054Y-60301083D01*
G37*
G36*
X149997054Y-60501083D02*
G01*
X150018895Y-60504323D01*
X150040314Y-60509688D01*
X150061104Y-60517127D01*
X150081064Y-60526568D01*
X150100003Y-60537919D01*
X150117738Y-60551073D01*
X150134099Y-60565901D01*
X150148927Y-60582262D01*
X150162081Y-60599997D01*
X150173432Y-60618936D01*
X150182873Y-60638896D01*
X150190312Y-60659686D01*
X150195677Y-60681105D01*
X150198917Y-60702946D01*
X150200000Y-60725000D01*
X150200000Y-61875000D01*
X150198917Y-61897054D01*
X150195677Y-61918895D01*
X150190312Y-61940314D01*
X150182873Y-61961104D01*
X150173432Y-61981064D01*
X150162081Y-62000003D01*
X150148927Y-62017738D01*
X150134099Y-62034099D01*
X150117738Y-62048927D01*
X150100003Y-62062081D01*
X150081064Y-62073432D01*
X150061104Y-62082873D01*
X150040314Y-62090312D01*
X150018895Y-62095677D01*
X149997054Y-62098917D01*
X149975000Y-62100000D01*
X149525000Y-62100000D01*
X149502946Y-62098917D01*
X149481105Y-62095677D01*
X149459686Y-62090312D01*
X149438896Y-62082873D01*
X149418936Y-62073432D01*
X149399997Y-62062081D01*
X149382262Y-62048927D01*
X149365901Y-62034099D01*
X149351073Y-62017738D01*
X149337919Y-62000003D01*
X149326568Y-61981064D01*
X149317127Y-61961104D01*
X149309688Y-61940314D01*
X149304323Y-61918895D01*
X149301083Y-61897054D01*
X149300000Y-61875000D01*
X149300000Y-60725000D01*
X149301083Y-60702946D01*
X149304323Y-60681105D01*
X149309688Y-60659686D01*
X149317127Y-60638896D01*
X149326568Y-60618936D01*
X149337919Y-60599997D01*
X149351073Y-60582262D01*
X149365901Y-60565901D01*
X149382262Y-60551073D01*
X149399997Y-60537919D01*
X149418936Y-60526568D01*
X149438896Y-60517127D01*
X149459686Y-60509688D01*
X149481105Y-60504323D01*
X149502946Y-60501083D01*
X149525000Y-60500000D01*
X149975000Y-60500000D01*
X149997054Y-60501083D01*
G37*
G36*
X148897054Y-60901083D02*
G01*
X148918895Y-60904323D01*
X148940314Y-60909688D01*
X148961104Y-60917127D01*
X148981064Y-60926568D01*
X149000003Y-60937919D01*
X149017738Y-60951073D01*
X149034099Y-60965901D01*
X149048927Y-60982262D01*
X149062081Y-60999997D01*
X149073432Y-61018936D01*
X149082873Y-61038896D01*
X149090312Y-61059686D01*
X149095677Y-61081105D01*
X149098917Y-61102946D01*
X149100000Y-61125000D01*
X149100000Y-62275000D01*
X149098917Y-62297054D01*
X149095677Y-62318895D01*
X149090312Y-62340314D01*
X149082873Y-62361104D01*
X149073432Y-62381064D01*
X149062081Y-62400003D01*
X149048927Y-62417738D01*
X149034099Y-62434099D01*
X149017738Y-62448927D01*
X149000003Y-62462081D01*
X148981064Y-62473432D01*
X148961104Y-62482873D01*
X148940314Y-62490312D01*
X148918895Y-62495677D01*
X148897054Y-62498917D01*
X148875000Y-62500000D01*
X148425000Y-62500000D01*
X148402946Y-62498917D01*
X148381105Y-62495677D01*
X148359686Y-62490312D01*
X148338896Y-62482873D01*
X148318936Y-62473432D01*
X148299997Y-62462081D01*
X148282262Y-62448927D01*
X148265901Y-62434099D01*
X148251073Y-62417738D01*
X148237919Y-62400003D01*
X148226568Y-62381064D01*
X148217127Y-62361104D01*
X148209688Y-62340314D01*
X148204323Y-62318895D01*
X148201083Y-62297054D01*
X148200000Y-62275000D01*
X148200000Y-61125000D01*
X148201083Y-61102946D01*
X148204323Y-61081105D01*
X148209688Y-61059686D01*
X148217127Y-61038896D01*
X148226568Y-61018936D01*
X148237919Y-60999997D01*
X148251073Y-60982262D01*
X148265901Y-60965901D01*
X148282262Y-60951073D01*
X148299997Y-60937919D01*
X148318936Y-60926568D01*
X148338896Y-60917127D01*
X148359686Y-60909688D01*
X148381105Y-60904323D01*
X148402946Y-60901083D01*
X148425000Y-60900000D01*
X148875000Y-60900000D01*
X148897054Y-60901083D01*
G37*
G36*
X147797054Y-60501083D02*
G01*
X147818895Y-60504323D01*
X147840314Y-60509688D01*
X147861104Y-60517127D01*
X147881064Y-60526568D01*
X147900003Y-60537919D01*
X147917738Y-60551073D01*
X147934099Y-60565901D01*
X147948927Y-60582262D01*
X147962081Y-60599997D01*
X147973432Y-60618936D01*
X147982873Y-60638896D01*
X147990312Y-60659686D01*
X147995677Y-60681105D01*
X147998917Y-60702946D01*
X148000000Y-60725000D01*
X148000000Y-61875000D01*
X147998917Y-61897054D01*
X147995677Y-61918895D01*
X147990312Y-61940314D01*
X147982873Y-61961104D01*
X147973432Y-61981064D01*
X147962081Y-62000003D01*
X147948927Y-62017738D01*
X147934099Y-62034099D01*
X147917738Y-62048927D01*
X147900003Y-62062081D01*
X147881064Y-62073432D01*
X147861104Y-62082873D01*
X147840314Y-62090312D01*
X147818895Y-62095677D01*
X147797054Y-62098917D01*
X147775000Y-62100000D01*
X147325000Y-62100000D01*
X147302946Y-62098917D01*
X147281105Y-62095677D01*
X147259686Y-62090312D01*
X147238896Y-62082873D01*
X147218936Y-62073432D01*
X147199997Y-62062081D01*
X147182262Y-62048927D01*
X147165901Y-62034099D01*
X147151073Y-62017738D01*
X147137919Y-62000003D01*
X147126568Y-61981064D01*
X147117127Y-61961104D01*
X147109688Y-61940314D01*
X147104323Y-61918895D01*
X147101083Y-61897054D01*
X147100000Y-61875000D01*
X147100000Y-60725000D01*
X147101083Y-60702946D01*
X147104323Y-60681105D01*
X147109688Y-60659686D01*
X147117127Y-60638896D01*
X147126568Y-60618936D01*
X147137919Y-60599997D01*
X147151073Y-60582262D01*
X147165901Y-60565901D01*
X147182262Y-60551073D01*
X147199997Y-60537919D01*
X147218936Y-60526568D01*
X147238896Y-60517127D01*
X147259686Y-60509688D01*
X147281105Y-60504323D01*
X147302946Y-60501083D01*
X147325000Y-60500000D01*
X147775000Y-60500000D01*
X147797054Y-60501083D01*
G37*
G36*
X143301756Y-57061806D02*
G01*
X143338159Y-57067206D01*
X143373857Y-57076147D01*
X143408506Y-57088545D01*
X143441774Y-57104280D01*
X143473339Y-57123199D01*
X143502897Y-57145121D01*
X143530165Y-57169835D01*
X143554879Y-57197103D01*
X143576801Y-57226661D01*
X143595720Y-57258226D01*
X143611455Y-57291494D01*
X143623853Y-57326143D01*
X143632794Y-57361841D01*
X143638194Y-57398244D01*
X143640000Y-57435000D01*
X143640000Y-58685000D01*
X143638194Y-58721756D01*
X143632794Y-58758159D01*
X143623853Y-58793857D01*
X143611455Y-58828506D01*
X143595720Y-58861774D01*
X143576801Y-58893339D01*
X143554879Y-58922897D01*
X143530165Y-58950165D01*
X143502897Y-58974879D01*
X143473339Y-58996801D01*
X143441774Y-59015720D01*
X143408506Y-59031455D01*
X143373857Y-59043853D01*
X143338159Y-59052794D01*
X143301756Y-59058194D01*
X143265000Y-59060000D01*
X142515000Y-59060000D01*
X142478244Y-59058194D01*
X142441841Y-59052794D01*
X142406143Y-59043853D01*
X142371494Y-59031455D01*
X142338226Y-59015720D01*
X142306661Y-58996801D01*
X142277103Y-58974879D01*
X142249835Y-58950165D01*
X142225121Y-58922897D01*
X142203199Y-58893339D01*
X142184280Y-58861774D01*
X142168545Y-58828506D01*
X142156147Y-58793857D01*
X142147206Y-58758159D01*
X142141806Y-58721756D01*
X142140000Y-58685000D01*
X142140000Y-57435000D01*
X142141806Y-57398244D01*
X142147206Y-57361841D01*
X142156147Y-57326143D01*
X142168545Y-57291494D01*
X142184280Y-57258226D01*
X142203199Y-57226661D01*
X142225121Y-57197103D01*
X142249835Y-57169835D01*
X142277103Y-57145121D01*
X142306661Y-57123199D01*
X142338226Y-57104280D01*
X142371494Y-57088545D01*
X142406143Y-57076147D01*
X142441841Y-57067206D01*
X142478244Y-57061806D01*
X142515000Y-57060000D01*
X143265000Y-57060000D01*
X143301756Y-57061806D01*
G37*
G36*
X149124306Y-71461685D02*
G01*
X149158282Y-71466725D01*
X149191600Y-71475071D01*
X149223939Y-71486642D01*
X149254989Y-71501328D01*
X149284450Y-71518986D01*
X149312038Y-71539446D01*
X149337487Y-71562513D01*
X149360554Y-71587962D01*
X149381014Y-71615550D01*
X149398672Y-71645011D01*
X149413358Y-71676061D01*
X149424929Y-71708400D01*
X149433275Y-71741718D01*
X149438315Y-71775694D01*
X149440000Y-71810000D01*
X149440000Y-72610000D01*
X149438315Y-72644306D01*
X149433275Y-72678282D01*
X149424929Y-72711600D01*
X149413358Y-72743939D01*
X149398672Y-72774989D01*
X149381014Y-72804450D01*
X149360554Y-72832038D01*
X149337487Y-72857487D01*
X149312038Y-72880554D01*
X149284450Y-72901014D01*
X149254989Y-72918672D01*
X149223939Y-72933358D01*
X149191600Y-72944929D01*
X149158282Y-72953275D01*
X149124306Y-72958315D01*
X149090000Y-72960000D01*
X148390000Y-72960000D01*
X148355694Y-72958315D01*
X148321718Y-72953275D01*
X148288400Y-72944929D01*
X148256061Y-72933358D01*
X148225011Y-72918672D01*
X148195550Y-72901014D01*
X148167962Y-72880554D01*
X148142513Y-72857487D01*
X148119446Y-72832038D01*
X148098986Y-72804450D01*
X148081328Y-72774989D01*
X148066642Y-72743939D01*
X148055071Y-72711600D01*
X148046725Y-72678282D01*
X148041685Y-72644306D01*
X148040000Y-72610000D01*
X148040000Y-71810000D01*
X148041685Y-71775694D01*
X148046725Y-71741718D01*
X148055071Y-71708400D01*
X148066642Y-71676061D01*
X148081328Y-71645011D01*
X148098986Y-71615550D01*
X148119446Y-71587962D01*
X148142513Y-71562513D01*
X148167962Y-71539446D01*
X148195550Y-71518986D01*
X148225011Y-71501328D01*
X148256061Y-71486642D01*
X148288400Y-71475071D01*
X148321718Y-71466725D01*
X148355694Y-71461685D01*
X148390000Y-71460000D01*
X149090000Y-71460000D01*
X149124306Y-71461685D01*
G37*
G36*
X153363229Y-71726264D02*
G01*
X153388711Y-71730044D01*
X153413700Y-71736303D01*
X153437954Y-71744982D01*
X153461242Y-71755996D01*
X153483337Y-71769239D01*
X153504028Y-71784585D01*
X153523116Y-71801884D01*
X153540415Y-71820972D01*
X153555761Y-71841663D01*
X153569004Y-71863758D01*
X153580018Y-71887046D01*
X153588697Y-71911300D01*
X153594956Y-71936289D01*
X153598736Y-71961771D01*
X153600000Y-71987500D01*
X153600000Y-72512500D01*
X153598736Y-72538229D01*
X153594956Y-72563711D01*
X153588697Y-72588700D01*
X153580018Y-72612954D01*
X153569004Y-72636242D01*
X153555761Y-72658337D01*
X153540415Y-72679028D01*
X153523116Y-72698116D01*
X153504028Y-72715415D01*
X153483337Y-72730761D01*
X153461242Y-72744004D01*
X153437954Y-72755018D01*
X153413700Y-72763697D01*
X153388711Y-72769956D01*
X153363229Y-72773736D01*
X153337500Y-72775000D01*
X152762500Y-72775000D01*
X152736771Y-72773736D01*
X152711289Y-72769956D01*
X152686300Y-72763697D01*
X152662046Y-72755018D01*
X152638758Y-72744004D01*
X152616663Y-72730761D01*
X152595972Y-72715415D01*
X152576884Y-72698116D01*
X152559585Y-72679028D01*
X152544239Y-72658337D01*
X152530996Y-72636242D01*
X152519982Y-72612954D01*
X152511303Y-72588700D01*
X152505044Y-72563711D01*
X152501264Y-72538229D01*
X152500000Y-72512500D01*
X152500000Y-71987500D01*
X152501264Y-71961771D01*
X152505044Y-71936289D01*
X152511303Y-71911300D01*
X152519982Y-71887046D01*
X152530996Y-71863758D01*
X152544239Y-71841663D01*
X152559585Y-71820972D01*
X152576884Y-71801884D01*
X152595972Y-71784585D01*
X152616663Y-71769239D01*
X152638758Y-71755996D01*
X152662046Y-71744982D01*
X152686300Y-71736303D01*
X152711289Y-71730044D01*
X152736771Y-71726264D01*
X152762500Y-71725000D01*
X153337500Y-71725000D01*
X153363229Y-71726264D01*
G37*
G36*
X154824306Y-71411685D02*
G01*
X154858282Y-71416725D01*
X154891600Y-71425071D01*
X154923939Y-71436642D01*
X154954989Y-71451328D01*
X154984450Y-71468986D01*
X155012038Y-71489446D01*
X155037487Y-71512513D01*
X155060554Y-71537962D01*
X155081014Y-71565550D01*
X155098672Y-71595011D01*
X155113358Y-71626061D01*
X155124929Y-71658400D01*
X155133275Y-71691718D01*
X155138315Y-71725694D01*
X155140000Y-71760000D01*
X155140000Y-72560000D01*
X155138315Y-72594306D01*
X155133275Y-72628282D01*
X155124929Y-72661600D01*
X155113358Y-72693939D01*
X155098672Y-72724989D01*
X155081014Y-72754450D01*
X155060554Y-72782038D01*
X155037487Y-72807487D01*
X155012038Y-72830554D01*
X154984450Y-72851014D01*
X154954989Y-72868672D01*
X154923939Y-72883358D01*
X154891600Y-72894929D01*
X154858282Y-72903275D01*
X154824306Y-72908315D01*
X154790000Y-72910000D01*
X154090000Y-72910000D01*
X154055694Y-72908315D01*
X154021718Y-72903275D01*
X153988400Y-72894929D01*
X153956061Y-72883358D01*
X153925011Y-72868672D01*
X153895550Y-72851014D01*
X153867962Y-72830554D01*
X153842513Y-72807487D01*
X153819446Y-72782038D01*
X153798986Y-72754450D01*
X153781328Y-72724989D01*
X153766642Y-72693939D01*
X153755071Y-72661600D01*
X153746725Y-72628282D01*
X153741685Y-72594306D01*
X153740000Y-72560000D01*
X153740000Y-71760000D01*
X153741685Y-71725694D01*
X153746725Y-71691718D01*
X153755071Y-71658400D01*
X153766642Y-71626061D01*
X153781328Y-71595011D01*
X153798986Y-71565550D01*
X153819446Y-71537962D01*
X153842513Y-71512513D01*
X153867962Y-71489446D01*
X153895550Y-71468986D01*
X153925011Y-71451328D01*
X153956061Y-71436642D01*
X153988400Y-71425071D01*
X154021718Y-71416725D01*
X154055694Y-71411685D01*
X154090000Y-71410000D01*
X154790000Y-71410000D01*
X154824306Y-71411685D01*
G37*
G36*
X156451756Y-58011806D02*
G01*
X156488159Y-58017206D01*
X156523857Y-58026147D01*
X156558506Y-58038545D01*
X156591774Y-58054280D01*
X156623339Y-58073199D01*
X156652897Y-58095121D01*
X156680165Y-58119835D01*
X156704879Y-58147103D01*
X156726801Y-58176661D01*
X156745720Y-58208226D01*
X156761455Y-58241494D01*
X156773853Y-58276143D01*
X156782794Y-58311841D01*
X156788194Y-58348244D01*
X156790000Y-58385000D01*
X156790000Y-59635000D01*
X156788194Y-59671756D01*
X156782794Y-59708159D01*
X156773853Y-59743857D01*
X156761455Y-59778506D01*
X156745720Y-59811774D01*
X156726801Y-59843339D01*
X156704879Y-59872897D01*
X156680165Y-59900165D01*
X156652897Y-59924879D01*
X156623339Y-59946801D01*
X156591774Y-59965720D01*
X156558506Y-59981455D01*
X156523857Y-59993853D01*
X156488159Y-60002794D01*
X156451756Y-60008194D01*
X156415000Y-60010000D01*
X155665000Y-60010000D01*
X155628244Y-60008194D01*
X155591841Y-60002794D01*
X155556143Y-59993853D01*
X155521494Y-59981455D01*
X155488226Y-59965720D01*
X155456661Y-59946801D01*
X155427103Y-59924879D01*
X155399835Y-59900165D01*
X155375121Y-59872897D01*
X155353199Y-59843339D01*
X155334280Y-59811774D01*
X155318545Y-59778506D01*
X155306147Y-59743857D01*
X155297206Y-59708159D01*
X155291806Y-59671756D01*
X155290000Y-59635000D01*
X155290000Y-58385000D01*
X155291806Y-58348244D01*
X155297206Y-58311841D01*
X155306147Y-58276143D01*
X155318545Y-58241494D01*
X155334280Y-58208226D01*
X155353199Y-58176661D01*
X155375121Y-58147103D01*
X155399835Y-58119835D01*
X155427103Y-58095121D01*
X155456661Y-58073199D01*
X155488226Y-58054280D01*
X155521494Y-58038545D01*
X155556143Y-58026147D01*
X155591841Y-58017206D01*
X155628244Y-58011806D01*
X155665000Y-58010000D01*
X156415000Y-58010000D01*
X156451756Y-58011806D01*
G37*
G36*
X148997054Y-74076083D02*
G01*
X149018895Y-74079323D01*
X149040314Y-74084688D01*
X149061104Y-74092127D01*
X149081064Y-74101568D01*
X149100003Y-74112919D01*
X149117738Y-74126073D01*
X149134099Y-74140901D01*
X149148927Y-74157262D01*
X149162081Y-74174997D01*
X149173432Y-74193936D01*
X149182873Y-74213896D01*
X149190312Y-74234686D01*
X149195677Y-74256105D01*
X149198917Y-74277946D01*
X149200000Y-74300000D01*
X149200000Y-75300000D01*
X149198917Y-75322054D01*
X149195677Y-75343895D01*
X149190312Y-75365314D01*
X149182873Y-75386104D01*
X149173432Y-75406064D01*
X149162081Y-75425003D01*
X149148927Y-75442738D01*
X149134099Y-75459099D01*
X149117738Y-75473927D01*
X149100003Y-75487081D01*
X149081064Y-75498432D01*
X149061104Y-75507873D01*
X149040314Y-75515312D01*
X149018895Y-75520677D01*
X148997054Y-75523917D01*
X148975000Y-75525000D01*
X148525000Y-75525000D01*
X148502946Y-75523917D01*
X148481105Y-75520677D01*
X148459686Y-75515312D01*
X148438896Y-75507873D01*
X148418936Y-75498432D01*
X148399997Y-75487081D01*
X148382262Y-75473927D01*
X148365901Y-75459099D01*
X148351073Y-75442738D01*
X148337919Y-75425003D01*
X148326568Y-75406064D01*
X148317127Y-75386104D01*
X148309688Y-75365314D01*
X148304323Y-75343895D01*
X148301083Y-75322054D01*
X148300000Y-75300000D01*
X148300000Y-74300000D01*
X148301083Y-74277946D01*
X148304323Y-74256105D01*
X148309688Y-74234686D01*
X148317127Y-74213896D01*
X148326568Y-74193936D01*
X148337919Y-74174997D01*
X148351073Y-74157262D01*
X148365901Y-74140901D01*
X148382262Y-74126073D01*
X148399997Y-74112919D01*
X148418936Y-74101568D01*
X148438896Y-74092127D01*
X148459686Y-74084688D01*
X148481105Y-74079323D01*
X148502946Y-74076083D01*
X148525000Y-74075000D01*
X148975000Y-74075000D01*
X148997054Y-74076083D01*
G37*
G36*
X149947054Y-76176083D02*
G01*
X149968895Y-76179323D01*
X149990314Y-76184688D01*
X150011104Y-76192127D01*
X150031064Y-76201568D01*
X150050003Y-76212919D01*
X150067738Y-76226073D01*
X150084099Y-76240901D01*
X150098927Y-76257262D01*
X150112081Y-76274997D01*
X150123432Y-76293936D01*
X150132873Y-76313896D01*
X150140312Y-76334686D01*
X150145677Y-76356105D01*
X150148917Y-76377946D01*
X150150000Y-76400000D01*
X150150000Y-77400000D01*
X150148917Y-77422054D01*
X150145677Y-77443895D01*
X150140312Y-77465314D01*
X150132873Y-77486104D01*
X150123432Y-77506064D01*
X150112081Y-77525003D01*
X150098927Y-77542738D01*
X150084099Y-77559099D01*
X150067738Y-77573927D01*
X150050003Y-77587081D01*
X150031064Y-77598432D01*
X150011104Y-77607873D01*
X149990314Y-77615312D01*
X149968895Y-77620677D01*
X149947054Y-77623917D01*
X149925000Y-77625000D01*
X149475000Y-77625000D01*
X149452946Y-77623917D01*
X149431105Y-77620677D01*
X149409686Y-77615312D01*
X149388896Y-77607873D01*
X149368936Y-77598432D01*
X149349997Y-77587081D01*
X149332262Y-77573927D01*
X149315901Y-77559099D01*
X149301073Y-77542738D01*
X149287919Y-77525003D01*
X149276568Y-77506064D01*
X149267127Y-77486104D01*
X149259688Y-77465314D01*
X149254323Y-77443895D01*
X149251083Y-77422054D01*
X149250000Y-77400000D01*
X149250000Y-76400000D01*
X149251083Y-76377946D01*
X149254323Y-76356105D01*
X149259688Y-76334686D01*
X149267127Y-76313896D01*
X149276568Y-76293936D01*
X149287919Y-76274997D01*
X149301073Y-76257262D01*
X149315901Y-76240901D01*
X149332262Y-76226073D01*
X149349997Y-76212919D01*
X149368936Y-76201568D01*
X149388896Y-76192127D01*
X149409686Y-76184688D01*
X149431105Y-76179323D01*
X149452946Y-76176083D01*
X149475000Y-76175000D01*
X149925000Y-76175000D01*
X149947054Y-76176083D01*
G37*
G36*
X148047054Y-76176083D02*
G01*
X148068895Y-76179323D01*
X148090314Y-76184688D01*
X148111104Y-76192127D01*
X148131064Y-76201568D01*
X148150003Y-76212919D01*
X148167738Y-76226073D01*
X148184099Y-76240901D01*
X148198927Y-76257262D01*
X148212081Y-76274997D01*
X148223432Y-76293936D01*
X148232873Y-76313896D01*
X148240312Y-76334686D01*
X148245677Y-76356105D01*
X148248917Y-76377946D01*
X148250000Y-76400000D01*
X148250000Y-77400000D01*
X148248917Y-77422054D01*
X148245677Y-77443895D01*
X148240312Y-77465314D01*
X148232873Y-77486104D01*
X148223432Y-77506064D01*
X148212081Y-77525003D01*
X148198927Y-77542738D01*
X148184099Y-77559099D01*
X148167738Y-77573927D01*
X148150003Y-77587081D01*
X148131064Y-77598432D01*
X148111104Y-77607873D01*
X148090314Y-77615312D01*
X148068895Y-77620677D01*
X148047054Y-77623917D01*
X148025000Y-77625000D01*
X147575000Y-77625000D01*
X147552946Y-77623917D01*
X147531105Y-77620677D01*
X147509686Y-77615312D01*
X147488896Y-77607873D01*
X147468936Y-77598432D01*
X147449997Y-77587081D01*
X147432262Y-77573927D01*
X147415901Y-77559099D01*
X147401073Y-77542738D01*
X147387919Y-77525003D01*
X147376568Y-77506064D01*
X147367127Y-77486104D01*
X147359688Y-77465314D01*
X147354323Y-77443895D01*
X147351083Y-77422054D01*
X147350000Y-77400000D01*
X147350000Y-76400000D01*
X147351083Y-76377946D01*
X147354323Y-76356105D01*
X147359688Y-76334686D01*
X147367127Y-76313896D01*
X147376568Y-76293936D01*
X147387919Y-76274997D01*
X147401073Y-76257262D01*
X147415901Y-76240901D01*
X147432262Y-76226073D01*
X147449997Y-76212919D01*
X147468936Y-76201568D01*
X147488896Y-76192127D01*
X147509686Y-76184688D01*
X147531105Y-76179323D01*
X147552946Y-76176083D01*
X147575000Y-76175000D01*
X148025000Y-76175000D01*
X148047054Y-76176083D01*
G37*
G36*
X153065680Y-74001384D02*
G01*
X153093588Y-74005524D01*
X153120957Y-74012380D01*
X153147521Y-74021885D01*
X153173027Y-74033948D01*
X153197226Y-74048452D01*
X153219888Y-74065259D01*
X153240793Y-74084207D01*
X153259741Y-74105112D01*
X153276548Y-74127774D01*
X153291052Y-74151973D01*
X153303115Y-74177479D01*
X153312620Y-74204043D01*
X153319476Y-74231412D01*
X153323616Y-74259320D01*
X153325000Y-74287500D01*
X153325000Y-75212500D01*
X153323616Y-75240680D01*
X153319476Y-75268588D01*
X153312620Y-75295957D01*
X153303115Y-75322521D01*
X153291052Y-75348027D01*
X153276548Y-75372226D01*
X153259741Y-75394888D01*
X153240793Y-75415793D01*
X153219888Y-75434741D01*
X153197226Y-75451548D01*
X153173027Y-75466052D01*
X153147521Y-75478115D01*
X153120957Y-75487620D01*
X153093588Y-75494476D01*
X153065680Y-75498616D01*
X153037500Y-75500000D01*
X152462500Y-75500000D01*
X152434320Y-75498616D01*
X152406412Y-75494476D01*
X152379043Y-75487620D01*
X152352479Y-75478115D01*
X152326973Y-75466052D01*
X152302774Y-75451548D01*
X152280112Y-75434741D01*
X152259207Y-75415793D01*
X152240259Y-75394888D01*
X152223452Y-75372226D01*
X152208948Y-75348027D01*
X152196885Y-75322521D01*
X152187380Y-75295957D01*
X152180524Y-75268588D01*
X152176384Y-75240680D01*
X152175000Y-75212500D01*
X152175000Y-74287500D01*
X152176384Y-74259320D01*
X152180524Y-74231412D01*
X152187380Y-74204043D01*
X152196885Y-74177479D01*
X152208948Y-74151973D01*
X152223452Y-74127774D01*
X152240259Y-74105112D01*
X152259207Y-74084207D01*
X152280112Y-74065259D01*
X152302774Y-74048452D01*
X152326973Y-74033948D01*
X152352479Y-74021885D01*
X152379043Y-74012380D01*
X152406412Y-74005524D01*
X152434320Y-74001384D01*
X152462500Y-74000000D01*
X153037500Y-74000000D01*
X153065680Y-74001384D01*
G37*
G36*
X154765680Y-74001384D02*
G01*
X154793588Y-74005524D01*
X154820957Y-74012380D01*
X154847521Y-74021885D01*
X154873027Y-74033948D01*
X154897226Y-74048452D01*
X154919888Y-74065259D01*
X154940793Y-74084207D01*
X154959741Y-74105112D01*
X154976548Y-74127774D01*
X154991052Y-74151973D01*
X155003115Y-74177479D01*
X155012620Y-74204043D01*
X155019476Y-74231412D01*
X155023616Y-74259320D01*
X155025000Y-74287500D01*
X155025000Y-75212500D01*
X155023616Y-75240680D01*
X155019476Y-75268588D01*
X155012620Y-75295957D01*
X155003115Y-75322521D01*
X154991052Y-75348027D01*
X154976548Y-75372226D01*
X154959741Y-75394888D01*
X154940793Y-75415793D01*
X154919888Y-75434741D01*
X154897226Y-75451548D01*
X154873027Y-75466052D01*
X154847521Y-75478115D01*
X154820957Y-75487620D01*
X154793588Y-75494476D01*
X154765680Y-75498616D01*
X154737500Y-75500000D01*
X154162500Y-75500000D01*
X154134320Y-75498616D01*
X154106412Y-75494476D01*
X154079043Y-75487620D01*
X154052479Y-75478115D01*
X154026973Y-75466052D01*
X154002774Y-75451548D01*
X153980112Y-75434741D01*
X153959207Y-75415793D01*
X153940259Y-75394888D01*
X153923452Y-75372226D01*
X153908948Y-75348027D01*
X153896885Y-75322521D01*
X153887380Y-75295957D01*
X153880524Y-75268588D01*
X153876384Y-75240680D01*
X153875000Y-75212500D01*
X153875000Y-74287500D01*
X153876384Y-74259320D01*
X153880524Y-74231412D01*
X153887380Y-74204043D01*
X153896885Y-74177479D01*
X153908948Y-74151973D01*
X153923452Y-74127774D01*
X153940259Y-74105112D01*
X153959207Y-74084207D01*
X153980112Y-74065259D01*
X154002774Y-74048452D01*
X154026973Y-74033948D01*
X154052479Y-74021885D01*
X154079043Y-74012380D01*
X154106412Y-74005524D01*
X154134320Y-74001384D01*
X154162500Y-74000000D01*
X154737500Y-74000000D01*
X154765680Y-74001384D01*
G37*
M02*
