M48
; DRILL file {KiCad (5.1.5-0-10_14)} date Saturday, April 11, 2020 at 07:26:17 PM
; FORMAT={-:-/ absolute / inch / decimal}
; #@! TF.CreationDate,2020-04-11T19:26:17-04:00
; #@! TF.GenerationSoftware,Kicad,Pcbnew,(5.1.5-0-10_14)
FMAT,2
INCH
T1C0.0157
T2C0.0315
T3C0.0425
%
G90
G05
T1
X5.3839Y-2.2736
X5.3839Y-3.0807
X5.5787Y-2.3346
X5.5906Y-2.4016
X5.5906Y-2.4606
X5.622Y-2.9232
X5.626Y-2.3465
X5.6772Y-2.2854
X5.7264Y-2.4783
X5.7795Y-3.0256
X5.8051Y-2.315
X5.8071Y-2.8425
X5.8169Y-2.9449
X5.8327Y-2.5492
X5.8524Y-2.374
X5.8563Y-2.7913
X5.8563Y-2.8937
X5.8661Y-2.6988
X5.8957Y-2.502
X5.8957Y-2.9449
X5.9055Y-2.8425
X5.939Y-2.4587
X5.9705Y-2.9429
X5.9724Y-2.5512
X5.9823Y-2.3563
X6.0138Y-2.8917
X6.0138Y-2.9941
X6.0256Y-2.3524
X6.0256Y-2.4587
X6.0689Y-2.3563
X6.0807Y-2.7894
X6.0807Y-2.8917
X6.0807Y-2.9941
X6.0925Y-2.3228
X6.124Y-2.9429
X6.1299Y-2.8406
X6.1949Y-2.3228
X6.3878Y-2.2736
X6.3878Y-3.0807
T2
X5.4528Y-2.4016
X5.4528Y-2.4803
X5.4528Y-2.5591
X5.4528Y-2.6378
X5.4528Y-2.7165
X5.4528Y-2.7953
X5.4528Y-2.874
X5.4528Y-2.9528
X6.3189Y-2.4016
X6.3189Y-2.4803
X6.3189Y-2.5591
X6.3189Y-2.6378
X6.3189Y-2.7165
X6.3189Y-2.7953
X6.3189Y-2.874
X6.3189Y-2.9528
T3
X5.4528Y-2.3228
X5.4528Y-3.0315
X6.3189Y-2.3228
X6.3189Y-3.0315
T0
M30
