G04 #@! TF.GenerationSoftware,KiCad,Pcbnew,(5.1.5-0-10_14)*
G04 #@! TF.CreationDate,2020-04-11T19:26:15-04:00*
G04 #@! TF.ProjectId,crazyflie-usd-spi3,6372617a-7966-46c6-9965-2d7573642d73,rev?*
G04 #@! TF.SameCoordinates,Original*
G04 #@! TF.FileFunction,Copper,L2,Bot*
G04 #@! TF.FilePolarity,Positive*
%FSLAX46Y46*%
G04 Gerber Fmt 4.6, Leading zero omitted, Abs format (unit mm)*
G04 Created by KiCad (PCBNEW (5.1.5-0-10_14)) date 2020-04-11 19:26:15*
%MOMM*%
%LPD*%
G04 APERTURE LIST*
%ADD10R,1.450000X1.440000*%
%ADD11O,1.350000X1.350000*%
%ADD12O,1.450000X1.440000*%
%ADD13C,0.800000*%
%ADD14C,0.800000*%
%ADD15C,0.250000*%
%ADD16C,0.200000*%
G04 APERTURE END LIST*
D10*
X138500000Y-59000000D03*
D11*
X138500000Y-61000000D03*
X138500000Y-63000000D03*
X138500000Y-65000000D03*
X138500000Y-67000000D03*
X138500000Y-69000000D03*
X138500000Y-71000000D03*
X138500000Y-73000000D03*
X138500000Y-75000000D03*
D12*
X138500000Y-77000000D03*
X160500000Y-77000000D03*
D11*
X160500000Y-75000000D03*
X160500000Y-73000000D03*
X160500000Y-71000000D03*
X160500000Y-69000000D03*
X160500000Y-67000000D03*
X160500000Y-65000000D03*
X160500000Y-63000000D03*
X160500000Y-61000000D03*
D10*
X160500000Y-59000000D03*
D13*
X152750000Y-73450000D03*
X151650000Y-74750000D03*
X152750000Y-76050000D03*
X150850000Y-62450000D03*
X141700000Y-59300000D03*
X151950000Y-59850000D03*
X142000000Y-62500000D03*
X149750000Y-63550000D03*
X142000000Y-61000000D03*
X154150000Y-59850000D03*
X157350000Y-59000000D03*
X154750000Y-59000000D03*
X144200000Y-58050000D03*
X147500000Y-72200000D03*
X148750000Y-70900000D03*
X150000000Y-72200000D03*
X148750000Y-73500000D03*
X154450000Y-70850000D03*
X155700000Y-72150000D03*
X154450000Y-76050000D03*
X155550000Y-74750000D03*
X154450000Y-73450000D03*
X153050000Y-62450000D03*
X153050000Y-59750000D03*
X145450000Y-62950000D03*
X136750000Y-57750000D03*
X162250000Y-57750000D03*
X136750000Y-78250000D03*
X162250000Y-78250000D03*
X151700000Y-64800000D03*
X147450000Y-58800000D03*
X149000000Y-68550000D03*
X142800000Y-74250000D03*
X147750000Y-74800000D03*
X149750000Y-74800000D03*
X148150000Y-64750000D03*
X142900000Y-59600000D03*
X148650000Y-60300000D03*
X146800000Y-76850000D03*
D14*
X151650000Y-74950000D02*
X152750000Y-76050000D01*
X151650000Y-74750000D02*
X151650000Y-74950000D01*
X151650000Y-74550000D02*
X151650000Y-74750000D01*
X152750000Y-73450000D02*
X151650000Y-74550000D01*
X152700000Y-74750000D02*
X152750000Y-74700000D01*
X151650000Y-74750000D02*
X152700000Y-74750000D01*
X152750000Y-74700000D02*
X152750000Y-73450000D01*
X152750000Y-76050000D02*
X152750000Y-74700000D01*
X152750000Y-64350000D02*
X150850000Y-62450000D01*
X152750000Y-73450000D02*
X152750000Y-64350000D01*
X147050000Y-64000000D02*
X141250000Y-64000000D01*
X150400000Y-62000000D02*
X149050000Y-62000000D01*
X139950000Y-59000000D02*
X138500000Y-59000000D01*
X141250000Y-64000000D02*
X140500000Y-63250000D01*
X149050000Y-62000000D02*
X147050000Y-64000000D01*
X140500000Y-59550000D02*
X139950000Y-59000000D01*
X150850000Y-62450000D02*
X150400000Y-62000000D01*
X140500000Y-63250000D02*
X140500000Y-59550000D01*
X140750000Y-59300000D02*
X140500000Y-59550000D01*
X141700000Y-59300000D02*
X140750000Y-59300000D01*
X141400000Y-59000000D02*
X141700000Y-59300000D01*
X139950000Y-59000000D02*
X141400000Y-59000000D01*
D15*
X148250000Y-59050000D02*
X151150000Y-59050000D01*
X144800000Y-62500000D02*
X148250000Y-59050000D01*
X151150000Y-59050000D02*
X151950000Y-59850000D01*
X142000000Y-62500000D02*
X144800000Y-62500000D01*
X139650000Y-75000000D02*
X138500000Y-75000000D01*
X149750000Y-64900000D02*
X139650000Y-75000000D01*
X149750000Y-63550000D02*
X149750000Y-64900000D01*
D14*
X138550000Y-61050000D02*
X138500000Y-61000000D01*
D15*
X144200000Y-61000000D02*
X142000000Y-61000000D01*
X147150000Y-58050000D02*
X144200000Y-61000000D01*
X152450000Y-58050000D02*
X147150000Y-58050000D01*
X154150000Y-59750000D02*
X152450000Y-58050000D01*
X154150000Y-59850000D02*
X154150000Y-59750000D01*
X150550000Y-60300000D02*
X148650000Y-60300000D01*
X151250000Y-61000000D02*
X150550000Y-60300000D01*
X160000000Y-61000000D02*
X151250000Y-61000000D01*
X159250000Y-73000000D02*
X160500000Y-73000000D01*
X154800000Y-77450000D02*
X159250000Y-73000000D01*
X146800000Y-76850000D02*
X147400000Y-77450000D01*
X147400000Y-77450000D02*
X154800000Y-77450000D01*
D16*
G36*
X162227922Y-57348906D02*
G01*
X162447165Y-57415100D01*
X162649370Y-57522614D01*
X162826847Y-57667361D01*
X162972829Y-57843824D01*
X163081754Y-58045276D01*
X163149474Y-58264047D01*
X163175001Y-58506925D01*
X163175000Y-77484104D01*
X163151094Y-77727922D01*
X163084900Y-77947166D01*
X162977386Y-78149370D01*
X162832639Y-78326847D01*
X162656176Y-78472830D01*
X162454727Y-78581753D01*
X162235958Y-78649474D01*
X161993085Y-78675000D01*
X137015896Y-78675000D01*
X136772078Y-78651094D01*
X136552834Y-78584900D01*
X136350630Y-78477386D01*
X136173153Y-78332639D01*
X136027170Y-78156176D01*
X135918247Y-77954727D01*
X135850526Y-77735958D01*
X135825000Y-77493085D01*
X135825000Y-77305982D01*
X137521977Y-77305982D01*
X137593238Y-77475938D01*
X137703416Y-77642718D01*
X137844014Y-77784799D01*
X138009629Y-77896720D01*
X138193897Y-77974181D01*
X138350000Y-77934290D01*
X138350000Y-77150000D01*
X138650000Y-77150000D01*
X138650000Y-77934290D01*
X138806103Y-77974181D01*
X138990371Y-77896720D01*
X139155986Y-77784799D01*
X139296584Y-77642718D01*
X139406762Y-77475938D01*
X139478023Y-77305982D01*
X139438019Y-77150000D01*
X138650000Y-77150000D01*
X138350000Y-77150000D01*
X137561981Y-77150000D01*
X137521977Y-77305982D01*
X135825000Y-77305982D01*
X135825000Y-76694018D01*
X137521977Y-76694018D01*
X137561981Y-76850000D01*
X138350000Y-76850000D01*
X138350000Y-76065710D01*
X138650000Y-76065710D01*
X138650000Y-76850000D01*
X139438019Y-76850000D01*
X139455700Y-76781056D01*
X146100000Y-76781056D01*
X146100000Y-76918944D01*
X146126901Y-77054182D01*
X146179668Y-77181574D01*
X146256274Y-77296224D01*
X146353776Y-77393726D01*
X146468426Y-77470332D01*
X146595818Y-77523099D01*
X146731056Y-77550000D01*
X146868944Y-77550000D01*
X146893979Y-77545020D01*
X147084721Y-77735762D01*
X147098026Y-77751974D01*
X147162740Y-77805084D01*
X147236573Y-77844548D01*
X147292383Y-77861478D01*
X147316685Y-77868850D01*
X147325098Y-77869679D01*
X147379126Y-77875000D01*
X147379132Y-77875000D01*
X147399999Y-77877055D01*
X147420866Y-77875000D01*
X154779133Y-77875000D01*
X154800000Y-77877055D01*
X154820867Y-77875000D01*
X154820874Y-77875000D01*
X154883314Y-77868850D01*
X154963427Y-77844548D01*
X155037260Y-77805084D01*
X155101974Y-77751974D01*
X155115284Y-77735756D01*
X155851040Y-77000000D01*
X159470065Y-77000000D01*
X159489759Y-77199955D01*
X159548084Y-77392226D01*
X159642798Y-77569423D01*
X159770262Y-77724738D01*
X159925577Y-77852202D01*
X160102774Y-77946916D01*
X160295045Y-78005241D01*
X160444894Y-78020000D01*
X160555106Y-78020000D01*
X160704955Y-78005241D01*
X160897226Y-77946916D01*
X161074423Y-77852202D01*
X161229738Y-77724738D01*
X161357202Y-77569423D01*
X161451916Y-77392226D01*
X161510241Y-77199955D01*
X161529935Y-77000000D01*
X161510241Y-76800045D01*
X161451916Y-76607774D01*
X161357202Y-76430577D01*
X161229738Y-76275262D01*
X161074423Y-76147798D01*
X160897226Y-76053084D01*
X160704955Y-75994759D01*
X160555106Y-75980000D01*
X160444894Y-75980000D01*
X160295045Y-75994759D01*
X160102774Y-76053084D01*
X159925577Y-76147798D01*
X159770262Y-76275262D01*
X159642798Y-76430577D01*
X159548084Y-76607774D01*
X159489759Y-76800045D01*
X159470065Y-77000000D01*
X155851040Y-77000000D01*
X157947069Y-74903971D01*
X159525000Y-74903971D01*
X159525000Y-75096029D01*
X159562468Y-75284397D01*
X159635966Y-75461836D01*
X159742668Y-75621527D01*
X159878473Y-75757332D01*
X160038164Y-75864034D01*
X160215603Y-75937532D01*
X160403971Y-75975000D01*
X160596029Y-75975000D01*
X160784397Y-75937532D01*
X160961836Y-75864034D01*
X161121527Y-75757332D01*
X161257332Y-75621527D01*
X161364034Y-75461836D01*
X161437532Y-75284397D01*
X161475000Y-75096029D01*
X161475000Y-74903971D01*
X161437532Y-74715603D01*
X161364034Y-74538164D01*
X161257332Y-74378473D01*
X161121527Y-74242668D01*
X160961836Y-74135966D01*
X160784397Y-74062468D01*
X160596029Y-74025000D01*
X160403971Y-74025000D01*
X160215603Y-74062468D01*
X160038164Y-74135966D01*
X159878473Y-74242668D01*
X159742668Y-74378473D01*
X159635966Y-74538164D01*
X159562468Y-74715603D01*
X159525000Y-74903971D01*
X157947069Y-74903971D01*
X159426041Y-73425000D01*
X159620708Y-73425000D01*
X159635966Y-73461836D01*
X159742668Y-73621527D01*
X159878473Y-73757332D01*
X160038164Y-73864034D01*
X160215603Y-73937532D01*
X160403971Y-73975000D01*
X160596029Y-73975000D01*
X160784397Y-73937532D01*
X160961836Y-73864034D01*
X161121527Y-73757332D01*
X161257332Y-73621527D01*
X161364034Y-73461836D01*
X161437532Y-73284397D01*
X161475000Y-73096029D01*
X161475000Y-72903971D01*
X161437532Y-72715603D01*
X161364034Y-72538164D01*
X161257332Y-72378473D01*
X161121527Y-72242668D01*
X160961836Y-72135966D01*
X160784397Y-72062468D01*
X160596029Y-72025000D01*
X160403971Y-72025000D01*
X160215603Y-72062468D01*
X160038164Y-72135966D01*
X159878473Y-72242668D01*
X159742668Y-72378473D01*
X159635966Y-72538164D01*
X159620708Y-72575000D01*
X159270866Y-72575000D01*
X159249999Y-72572945D01*
X159229132Y-72575000D01*
X159229126Y-72575000D01*
X159175098Y-72580321D01*
X159166685Y-72581150D01*
X159142383Y-72588522D01*
X159086573Y-72605452D01*
X159012740Y-72644916D01*
X158948026Y-72698026D01*
X158934721Y-72714238D01*
X154623960Y-77025000D01*
X147576041Y-77025000D01*
X147495020Y-76943979D01*
X147500000Y-76918944D01*
X147500000Y-76781056D01*
X147473099Y-76645818D01*
X147420332Y-76518426D01*
X147343726Y-76403776D01*
X147246224Y-76306274D01*
X147131574Y-76229668D01*
X147004182Y-76176901D01*
X146868944Y-76150000D01*
X146731056Y-76150000D01*
X146595818Y-76176901D01*
X146468426Y-76229668D01*
X146353776Y-76306274D01*
X146256274Y-76403776D01*
X146179668Y-76518426D01*
X146126901Y-76645818D01*
X146100000Y-76781056D01*
X139455700Y-76781056D01*
X139478023Y-76694018D01*
X139406762Y-76524062D01*
X139296584Y-76357282D01*
X139155986Y-76215201D01*
X138990371Y-76103280D01*
X138806103Y-76025819D01*
X138650000Y-76065710D01*
X138350000Y-76065710D01*
X138193897Y-76025819D01*
X138009629Y-76103280D01*
X137844014Y-76215201D01*
X137703416Y-76357282D01*
X137593238Y-76524062D01*
X137521977Y-76694018D01*
X135825000Y-76694018D01*
X135825000Y-74903971D01*
X137525000Y-74903971D01*
X137525000Y-75096029D01*
X137562468Y-75284397D01*
X137635966Y-75461836D01*
X137742668Y-75621527D01*
X137878473Y-75757332D01*
X138038164Y-75864034D01*
X138215603Y-75937532D01*
X138403971Y-75975000D01*
X138596029Y-75975000D01*
X138784397Y-75937532D01*
X138961836Y-75864034D01*
X139121527Y-75757332D01*
X139257332Y-75621527D01*
X139364034Y-75461836D01*
X139379292Y-75425000D01*
X139629133Y-75425000D01*
X139650000Y-75427055D01*
X139670867Y-75425000D01*
X139670874Y-75425000D01*
X139733314Y-75418850D01*
X139813427Y-75394548D01*
X139887260Y-75355084D01*
X139951974Y-75301974D01*
X139965284Y-75285756D01*
X150035762Y-65215279D01*
X150051974Y-65201974D01*
X150105084Y-65137260D01*
X150144548Y-65063427D01*
X150168850Y-64983314D01*
X150175000Y-64920874D01*
X150175000Y-64920867D01*
X150177055Y-64900000D01*
X150175000Y-64879133D01*
X150175000Y-64107907D01*
X150196224Y-64093726D01*
X150293726Y-63996224D01*
X150370332Y-63881574D01*
X150423099Y-63754182D01*
X150450000Y-63618944D01*
X150450000Y-63481056D01*
X150423099Y-63345818D01*
X150370332Y-63218426D01*
X150293726Y-63103776D01*
X150196224Y-63006274D01*
X150081574Y-62929668D01*
X149954182Y-62876901D01*
X149818944Y-62850000D01*
X149681056Y-62850000D01*
X149545818Y-62876901D01*
X149418426Y-62929668D01*
X149303776Y-63006274D01*
X149206274Y-63103776D01*
X149129668Y-63218426D01*
X149076901Y-63345818D01*
X149050000Y-63481056D01*
X149050000Y-63618944D01*
X149076901Y-63754182D01*
X149129668Y-63881574D01*
X149206274Y-63996224D01*
X149303776Y-64093726D01*
X149325000Y-64107908D01*
X149325001Y-64723958D01*
X139473960Y-74575000D01*
X139379292Y-74575000D01*
X139364034Y-74538164D01*
X139257332Y-74378473D01*
X139121527Y-74242668D01*
X138961836Y-74135966D01*
X138784397Y-74062468D01*
X138596029Y-74025000D01*
X138403971Y-74025000D01*
X138215603Y-74062468D01*
X138038164Y-74135966D01*
X137878473Y-74242668D01*
X137742668Y-74378473D01*
X137635966Y-74538164D01*
X137562468Y-74715603D01*
X137525000Y-74903971D01*
X135825000Y-74903971D01*
X135825000Y-72903971D01*
X137525000Y-72903971D01*
X137525000Y-73096029D01*
X137562468Y-73284397D01*
X137635966Y-73461836D01*
X137742668Y-73621527D01*
X137878473Y-73757332D01*
X138038164Y-73864034D01*
X138215603Y-73937532D01*
X138403971Y-73975000D01*
X138596029Y-73975000D01*
X138784397Y-73937532D01*
X138961836Y-73864034D01*
X139121527Y-73757332D01*
X139257332Y-73621527D01*
X139364034Y-73461836D01*
X139437532Y-73284397D01*
X139475000Y-73096029D01*
X139475000Y-72903971D01*
X139437532Y-72715603D01*
X139364034Y-72538164D01*
X139257332Y-72378473D01*
X139121527Y-72242668D01*
X138961836Y-72135966D01*
X138784397Y-72062468D01*
X138596029Y-72025000D01*
X138403971Y-72025000D01*
X138215603Y-72062468D01*
X138038164Y-72135966D01*
X137878473Y-72242668D01*
X137742668Y-72378473D01*
X137635966Y-72538164D01*
X137562468Y-72715603D01*
X137525000Y-72903971D01*
X135825000Y-72903971D01*
X135825000Y-70903971D01*
X137525000Y-70903971D01*
X137525000Y-71096029D01*
X137562468Y-71284397D01*
X137635966Y-71461836D01*
X137742668Y-71621527D01*
X137878473Y-71757332D01*
X138038164Y-71864034D01*
X138215603Y-71937532D01*
X138403971Y-71975000D01*
X138596029Y-71975000D01*
X138784397Y-71937532D01*
X138961836Y-71864034D01*
X139121527Y-71757332D01*
X139257332Y-71621527D01*
X139364034Y-71461836D01*
X139437532Y-71284397D01*
X139475000Y-71096029D01*
X139475000Y-70903971D01*
X139437532Y-70715603D01*
X139364034Y-70538164D01*
X139257332Y-70378473D01*
X139121527Y-70242668D01*
X138961836Y-70135966D01*
X138784397Y-70062468D01*
X138596029Y-70025000D01*
X138403971Y-70025000D01*
X138215603Y-70062468D01*
X138038164Y-70135966D01*
X137878473Y-70242668D01*
X137742668Y-70378473D01*
X137635966Y-70538164D01*
X137562468Y-70715603D01*
X137525000Y-70903971D01*
X135825000Y-70903971D01*
X135825000Y-68903971D01*
X137525000Y-68903971D01*
X137525000Y-69096029D01*
X137562468Y-69284397D01*
X137635966Y-69461836D01*
X137742668Y-69621527D01*
X137878473Y-69757332D01*
X138038164Y-69864034D01*
X138215603Y-69937532D01*
X138403971Y-69975000D01*
X138596029Y-69975000D01*
X138784397Y-69937532D01*
X138961836Y-69864034D01*
X139121527Y-69757332D01*
X139257332Y-69621527D01*
X139364034Y-69461836D01*
X139437532Y-69284397D01*
X139475000Y-69096029D01*
X139475000Y-68903971D01*
X139437532Y-68715603D01*
X139364034Y-68538164D01*
X139257332Y-68378473D01*
X139121527Y-68242668D01*
X138961836Y-68135966D01*
X138784397Y-68062468D01*
X138596029Y-68025000D01*
X138403971Y-68025000D01*
X138215603Y-68062468D01*
X138038164Y-68135966D01*
X137878473Y-68242668D01*
X137742668Y-68378473D01*
X137635966Y-68538164D01*
X137562468Y-68715603D01*
X137525000Y-68903971D01*
X135825000Y-68903971D01*
X135825000Y-66903971D01*
X137525000Y-66903971D01*
X137525000Y-67096029D01*
X137562468Y-67284397D01*
X137635966Y-67461836D01*
X137742668Y-67621527D01*
X137878473Y-67757332D01*
X138038164Y-67864034D01*
X138215603Y-67937532D01*
X138403971Y-67975000D01*
X138596029Y-67975000D01*
X138784397Y-67937532D01*
X138961836Y-67864034D01*
X139121527Y-67757332D01*
X139257332Y-67621527D01*
X139364034Y-67461836D01*
X139437532Y-67284397D01*
X139475000Y-67096029D01*
X139475000Y-66903971D01*
X139437532Y-66715603D01*
X139364034Y-66538164D01*
X139257332Y-66378473D01*
X139121527Y-66242668D01*
X138961836Y-66135966D01*
X138784397Y-66062468D01*
X138596029Y-66025000D01*
X138403971Y-66025000D01*
X138215603Y-66062468D01*
X138038164Y-66135966D01*
X137878473Y-66242668D01*
X137742668Y-66378473D01*
X137635966Y-66538164D01*
X137562468Y-66715603D01*
X137525000Y-66903971D01*
X135825000Y-66903971D01*
X135825000Y-64903971D01*
X137525000Y-64903971D01*
X137525000Y-65096029D01*
X137562468Y-65284397D01*
X137635966Y-65461836D01*
X137742668Y-65621527D01*
X137878473Y-65757332D01*
X138038164Y-65864034D01*
X138215603Y-65937532D01*
X138403971Y-65975000D01*
X138596029Y-65975000D01*
X138784397Y-65937532D01*
X138961836Y-65864034D01*
X139121527Y-65757332D01*
X139257332Y-65621527D01*
X139364034Y-65461836D01*
X139437532Y-65284397D01*
X139475000Y-65096029D01*
X139475000Y-64903971D01*
X139437532Y-64715603D01*
X139364034Y-64538164D01*
X139257332Y-64378473D01*
X139121527Y-64242668D01*
X138961836Y-64135966D01*
X138784397Y-64062468D01*
X138596029Y-64025000D01*
X138403971Y-64025000D01*
X138215603Y-64062468D01*
X138038164Y-64135966D01*
X137878473Y-64242668D01*
X137742668Y-64378473D01*
X137635966Y-64538164D01*
X137562468Y-64715603D01*
X137525000Y-64903971D01*
X135825000Y-64903971D01*
X135825000Y-62903971D01*
X137525000Y-62903971D01*
X137525000Y-63096029D01*
X137562468Y-63284397D01*
X137635966Y-63461836D01*
X137742668Y-63621527D01*
X137878473Y-63757332D01*
X138038164Y-63864034D01*
X138215603Y-63937532D01*
X138403971Y-63975000D01*
X138596029Y-63975000D01*
X138784397Y-63937532D01*
X138961836Y-63864034D01*
X139121527Y-63757332D01*
X139257332Y-63621527D01*
X139364034Y-63461836D01*
X139437532Y-63284397D01*
X139475000Y-63096029D01*
X139475000Y-62903971D01*
X139437532Y-62715603D01*
X139364034Y-62538164D01*
X139257332Y-62378473D01*
X139121527Y-62242668D01*
X138961836Y-62135966D01*
X138784397Y-62062468D01*
X138596029Y-62025000D01*
X138403971Y-62025000D01*
X138215603Y-62062468D01*
X138038164Y-62135966D01*
X137878473Y-62242668D01*
X137742668Y-62378473D01*
X137635966Y-62538164D01*
X137562468Y-62715603D01*
X137525000Y-62903971D01*
X135825000Y-62903971D01*
X135825000Y-60903971D01*
X137525000Y-60903971D01*
X137525000Y-61096029D01*
X137562468Y-61284397D01*
X137635966Y-61461836D01*
X137742668Y-61621527D01*
X137878473Y-61757332D01*
X138038164Y-61864034D01*
X138215603Y-61937532D01*
X138403971Y-61975000D01*
X138596029Y-61975000D01*
X138784397Y-61937532D01*
X138961836Y-61864034D01*
X139121527Y-61757332D01*
X139257332Y-61621527D01*
X139364034Y-61461836D01*
X139437532Y-61284397D01*
X139475000Y-61096029D01*
X139475000Y-60903971D01*
X139437532Y-60715603D01*
X139364034Y-60538164D01*
X139257332Y-60378473D01*
X139121527Y-60242668D01*
X138961836Y-60135966D01*
X138784397Y-60062468D01*
X138596029Y-60025000D01*
X138403971Y-60025000D01*
X138215603Y-60062468D01*
X138038164Y-60135966D01*
X137878473Y-60242668D01*
X137742668Y-60378473D01*
X137635966Y-60538164D01*
X137562468Y-60715603D01*
X137525000Y-60903971D01*
X135825000Y-60903971D01*
X135825000Y-58515896D01*
X135848129Y-58280000D01*
X137473549Y-58280000D01*
X137473549Y-59720000D01*
X137479341Y-59778810D01*
X137496496Y-59835360D01*
X137524353Y-59887477D01*
X137561842Y-59933158D01*
X137607523Y-59970647D01*
X137659640Y-59998504D01*
X137716190Y-60015659D01*
X137775000Y-60021451D01*
X139225000Y-60021451D01*
X139283810Y-60015659D01*
X139340360Y-59998504D01*
X139392477Y-59970647D01*
X139438158Y-59933158D01*
X139475647Y-59887477D01*
X139503504Y-59835360D01*
X139520659Y-59778810D01*
X139526451Y-59720000D01*
X139526451Y-59700000D01*
X139660051Y-59700000D01*
X139800001Y-59839950D01*
X139800000Y-63215613D01*
X139796613Y-63250000D01*
X139800000Y-63284387D01*
X139800000Y-63284389D01*
X139810128Y-63387223D01*
X139850155Y-63519174D01*
X139915155Y-63640781D01*
X139980708Y-63720657D01*
X140002630Y-63747369D01*
X140029342Y-63769291D01*
X140730708Y-64470658D01*
X140752630Y-64497370D01*
X140779341Y-64519291D01*
X140779342Y-64519292D01*
X140859218Y-64584845D01*
X140980825Y-64649845D01*
X141112776Y-64689872D01*
X141215610Y-64700000D01*
X141215612Y-64700000D01*
X141249999Y-64703387D01*
X141284386Y-64700000D01*
X147015613Y-64700000D01*
X147050000Y-64703387D01*
X147084387Y-64700000D01*
X147084390Y-64700000D01*
X147187224Y-64689872D01*
X147319175Y-64649845D01*
X147440781Y-64584845D01*
X147547370Y-64497370D01*
X147569296Y-64470653D01*
X149339950Y-62700000D01*
X150110051Y-62700000D01*
X150306272Y-62896221D01*
X150306274Y-62896224D01*
X150403776Y-62993726D01*
X150403779Y-62993728D01*
X152050001Y-64639951D01*
X152050000Y-73160050D01*
X151179343Y-74030708D01*
X151152630Y-74052631D01*
X151130709Y-74079342D01*
X151130708Y-74079343D01*
X151065155Y-74159219D01*
X151011218Y-74260129D01*
X151000155Y-74280826D01*
X150960128Y-74412777D01*
X150953426Y-74480826D01*
X150946613Y-74550000D01*
X150950000Y-74584387D01*
X150950000Y-74715610D01*
X150946613Y-74750000D01*
X150950000Y-74784389D01*
X150950000Y-74915613D01*
X150946613Y-74950000D01*
X150950000Y-74984387D01*
X150950000Y-74984390D01*
X150960128Y-75087224D01*
X151000155Y-75219175D01*
X151065155Y-75340781D01*
X151152631Y-75447370D01*
X151179342Y-75469291D01*
X152206274Y-76496224D01*
X152230713Y-76520663D01*
X152252630Y-76547369D01*
X152279337Y-76569287D01*
X152303776Y-76593726D01*
X152332504Y-76612921D01*
X152359218Y-76634845D01*
X152389699Y-76651137D01*
X152418426Y-76670332D01*
X152450346Y-76683554D01*
X152480825Y-76699845D01*
X152513900Y-76709878D01*
X152545818Y-76723099D01*
X152579702Y-76729839D01*
X152612776Y-76739872D01*
X152647169Y-76743259D01*
X152681056Y-76750000D01*
X152715610Y-76750000D01*
X152750000Y-76753387D01*
X152784390Y-76750000D01*
X152818944Y-76750000D01*
X152852832Y-76743259D01*
X152887223Y-76739872D01*
X152920295Y-76729840D01*
X152954182Y-76723099D01*
X152986103Y-76709877D01*
X153019174Y-76699845D01*
X153049650Y-76683555D01*
X153081574Y-76670332D01*
X153110305Y-76651135D01*
X153140781Y-76634845D01*
X153167489Y-76612926D01*
X153196224Y-76593726D01*
X153220663Y-76569287D01*
X153247369Y-76547370D01*
X153269287Y-76520663D01*
X153293726Y-76496224D01*
X153312925Y-76467490D01*
X153334845Y-76440781D01*
X153351135Y-76410304D01*
X153370332Y-76381574D01*
X153383554Y-76349654D01*
X153399845Y-76319175D01*
X153409878Y-76286100D01*
X153423099Y-76254182D01*
X153429839Y-76220298D01*
X153439872Y-76187224D01*
X153443259Y-76152831D01*
X153450000Y-76118944D01*
X153450000Y-76084387D01*
X153453387Y-76050000D01*
X153450000Y-76015613D01*
X153450000Y-74734387D01*
X153453387Y-74700000D01*
X153450000Y-74665610D01*
X153450000Y-73484387D01*
X153453387Y-73450000D01*
X153450000Y-73415610D01*
X153450000Y-70903971D01*
X159525000Y-70903971D01*
X159525000Y-71096029D01*
X159562468Y-71284397D01*
X159635966Y-71461836D01*
X159742668Y-71621527D01*
X159878473Y-71757332D01*
X160038164Y-71864034D01*
X160215603Y-71937532D01*
X160403971Y-71975000D01*
X160596029Y-71975000D01*
X160784397Y-71937532D01*
X160961836Y-71864034D01*
X161121527Y-71757332D01*
X161257332Y-71621527D01*
X161364034Y-71461836D01*
X161437532Y-71284397D01*
X161475000Y-71096029D01*
X161475000Y-70903971D01*
X161437532Y-70715603D01*
X161364034Y-70538164D01*
X161257332Y-70378473D01*
X161121527Y-70242668D01*
X160961836Y-70135966D01*
X160784397Y-70062468D01*
X160596029Y-70025000D01*
X160403971Y-70025000D01*
X160215603Y-70062468D01*
X160038164Y-70135966D01*
X159878473Y-70242668D01*
X159742668Y-70378473D01*
X159635966Y-70538164D01*
X159562468Y-70715603D01*
X159525000Y-70903971D01*
X153450000Y-70903971D01*
X153450000Y-68903971D01*
X159525000Y-68903971D01*
X159525000Y-69096029D01*
X159562468Y-69284397D01*
X159635966Y-69461836D01*
X159742668Y-69621527D01*
X159878473Y-69757332D01*
X160038164Y-69864034D01*
X160215603Y-69937532D01*
X160403971Y-69975000D01*
X160596029Y-69975000D01*
X160784397Y-69937532D01*
X160961836Y-69864034D01*
X161121527Y-69757332D01*
X161257332Y-69621527D01*
X161364034Y-69461836D01*
X161437532Y-69284397D01*
X161475000Y-69096029D01*
X161475000Y-68903971D01*
X161437532Y-68715603D01*
X161364034Y-68538164D01*
X161257332Y-68378473D01*
X161121527Y-68242668D01*
X160961836Y-68135966D01*
X160784397Y-68062468D01*
X160596029Y-68025000D01*
X160403971Y-68025000D01*
X160215603Y-68062468D01*
X160038164Y-68135966D01*
X159878473Y-68242668D01*
X159742668Y-68378473D01*
X159635966Y-68538164D01*
X159562468Y-68715603D01*
X159525000Y-68903971D01*
X153450000Y-68903971D01*
X153450000Y-66903971D01*
X159525000Y-66903971D01*
X159525000Y-67096029D01*
X159562468Y-67284397D01*
X159635966Y-67461836D01*
X159742668Y-67621527D01*
X159878473Y-67757332D01*
X160038164Y-67864034D01*
X160215603Y-67937532D01*
X160403971Y-67975000D01*
X160596029Y-67975000D01*
X160784397Y-67937532D01*
X160961836Y-67864034D01*
X161121527Y-67757332D01*
X161257332Y-67621527D01*
X161364034Y-67461836D01*
X161437532Y-67284397D01*
X161475000Y-67096029D01*
X161475000Y-66903971D01*
X161437532Y-66715603D01*
X161364034Y-66538164D01*
X161257332Y-66378473D01*
X161121527Y-66242668D01*
X160961836Y-66135966D01*
X160784397Y-66062468D01*
X160596029Y-66025000D01*
X160403971Y-66025000D01*
X160215603Y-66062468D01*
X160038164Y-66135966D01*
X159878473Y-66242668D01*
X159742668Y-66378473D01*
X159635966Y-66538164D01*
X159562468Y-66715603D01*
X159525000Y-66903971D01*
X153450000Y-66903971D01*
X153450000Y-64903971D01*
X159525000Y-64903971D01*
X159525000Y-65096029D01*
X159562468Y-65284397D01*
X159635966Y-65461836D01*
X159742668Y-65621527D01*
X159878473Y-65757332D01*
X160038164Y-65864034D01*
X160215603Y-65937532D01*
X160403971Y-65975000D01*
X160596029Y-65975000D01*
X160784397Y-65937532D01*
X160961836Y-65864034D01*
X161121527Y-65757332D01*
X161257332Y-65621527D01*
X161364034Y-65461836D01*
X161437532Y-65284397D01*
X161475000Y-65096029D01*
X161475000Y-64903971D01*
X161437532Y-64715603D01*
X161364034Y-64538164D01*
X161257332Y-64378473D01*
X161121527Y-64242668D01*
X160961836Y-64135966D01*
X160784397Y-64062468D01*
X160596029Y-64025000D01*
X160403971Y-64025000D01*
X160215603Y-64062468D01*
X160038164Y-64135966D01*
X159878473Y-64242668D01*
X159742668Y-64378473D01*
X159635966Y-64538164D01*
X159562468Y-64715603D01*
X159525000Y-64903971D01*
X153450000Y-64903971D01*
X153450000Y-64384387D01*
X153453387Y-64350000D01*
X153450000Y-64315610D01*
X153439872Y-64212776D01*
X153399845Y-64080825D01*
X153334845Y-63959219D01*
X153247370Y-63852630D01*
X153220658Y-63830709D01*
X152293920Y-62903971D01*
X159525000Y-62903971D01*
X159525000Y-63096029D01*
X159562468Y-63284397D01*
X159635966Y-63461836D01*
X159742668Y-63621527D01*
X159878473Y-63757332D01*
X160038164Y-63864034D01*
X160215603Y-63937532D01*
X160403971Y-63975000D01*
X160596029Y-63975000D01*
X160784397Y-63937532D01*
X160961836Y-63864034D01*
X161121527Y-63757332D01*
X161257332Y-63621527D01*
X161364034Y-63461836D01*
X161437532Y-63284397D01*
X161475000Y-63096029D01*
X161475000Y-62903971D01*
X161437532Y-62715603D01*
X161364034Y-62538164D01*
X161257332Y-62378473D01*
X161121527Y-62242668D01*
X160961836Y-62135966D01*
X160784397Y-62062468D01*
X160596029Y-62025000D01*
X160403971Y-62025000D01*
X160215603Y-62062468D01*
X160038164Y-62135966D01*
X159878473Y-62242668D01*
X159742668Y-62378473D01*
X159635966Y-62538164D01*
X159562468Y-62715603D01*
X159525000Y-62903971D01*
X152293920Y-62903971D01*
X151393728Y-62003779D01*
X151393726Y-62003776D01*
X151296224Y-61906274D01*
X151296221Y-61906272D01*
X150919296Y-61529347D01*
X150897370Y-61502630D01*
X150790781Y-61415155D01*
X150669175Y-61350155D01*
X150537224Y-61310128D01*
X150434390Y-61300000D01*
X150434387Y-61300000D01*
X150400000Y-61296613D01*
X150365613Y-61300000D01*
X149084386Y-61300000D01*
X149049999Y-61296613D01*
X149015612Y-61300000D01*
X149015610Y-61300000D01*
X148912776Y-61310128D01*
X148780825Y-61350155D01*
X148659218Y-61415155D01*
X148591589Y-61470657D01*
X148552630Y-61502630D01*
X148530709Y-61529342D01*
X146760051Y-63300000D01*
X141539950Y-63300000D01*
X141200000Y-62960051D01*
X141200000Y-62431056D01*
X141300000Y-62431056D01*
X141300000Y-62568944D01*
X141326901Y-62704182D01*
X141379668Y-62831574D01*
X141456274Y-62946224D01*
X141553776Y-63043726D01*
X141668426Y-63120332D01*
X141795818Y-63173099D01*
X141931056Y-63200000D01*
X142068944Y-63200000D01*
X142204182Y-63173099D01*
X142331574Y-63120332D01*
X142446224Y-63043726D01*
X142543726Y-62946224D01*
X142557907Y-62925000D01*
X144779133Y-62925000D01*
X144800000Y-62927055D01*
X144820867Y-62925000D01*
X144820874Y-62925000D01*
X144883314Y-62918850D01*
X144963427Y-62894548D01*
X145037260Y-62855084D01*
X145101974Y-62801974D01*
X145115283Y-62785757D01*
X147669984Y-60231056D01*
X147950000Y-60231056D01*
X147950000Y-60368944D01*
X147976901Y-60504182D01*
X148029668Y-60631574D01*
X148106274Y-60746224D01*
X148203776Y-60843726D01*
X148318426Y-60920332D01*
X148445818Y-60973099D01*
X148581056Y-61000000D01*
X148718944Y-61000000D01*
X148854182Y-60973099D01*
X148981574Y-60920332D01*
X149096224Y-60843726D01*
X149193726Y-60746224D01*
X149207907Y-60725000D01*
X150373960Y-60725000D01*
X150934721Y-61285762D01*
X150948026Y-61301974D01*
X151012740Y-61355084D01*
X151086573Y-61394548D01*
X151142383Y-61411478D01*
X151166685Y-61418850D01*
X151175098Y-61419679D01*
X151229126Y-61425000D01*
X151229132Y-61425000D01*
X151249999Y-61427055D01*
X151270866Y-61425000D01*
X159620708Y-61425000D01*
X159635966Y-61461836D01*
X159742668Y-61621527D01*
X159878473Y-61757332D01*
X160038164Y-61864034D01*
X160215603Y-61937532D01*
X160403971Y-61975000D01*
X160596029Y-61975000D01*
X160784397Y-61937532D01*
X160961836Y-61864034D01*
X161121527Y-61757332D01*
X161257332Y-61621527D01*
X161364034Y-61461836D01*
X161437532Y-61284397D01*
X161475000Y-61096029D01*
X161475000Y-60903971D01*
X161437532Y-60715603D01*
X161364034Y-60538164D01*
X161257332Y-60378473D01*
X161121527Y-60242668D01*
X160961836Y-60135966D01*
X160784397Y-60062468D01*
X160596029Y-60025000D01*
X160403971Y-60025000D01*
X160215603Y-60062468D01*
X160038164Y-60135966D01*
X159878473Y-60242668D01*
X159742668Y-60378473D01*
X159635966Y-60538164D01*
X159620708Y-60575000D01*
X151426041Y-60575000D01*
X150865283Y-60014243D01*
X150851974Y-59998026D01*
X150787260Y-59944916D01*
X150713427Y-59905452D01*
X150633314Y-59881150D01*
X150570874Y-59875000D01*
X150570867Y-59875000D01*
X150550000Y-59872945D01*
X150529133Y-59875000D01*
X149207907Y-59875000D01*
X149193726Y-59853776D01*
X149096224Y-59756274D01*
X148981574Y-59679668D01*
X148854182Y-59626901D01*
X148718944Y-59600000D01*
X148581056Y-59600000D01*
X148445818Y-59626901D01*
X148318426Y-59679668D01*
X148203776Y-59756274D01*
X148106274Y-59853776D01*
X148029668Y-59968426D01*
X147976901Y-60095818D01*
X147950000Y-60231056D01*
X147669984Y-60231056D01*
X148426041Y-59475000D01*
X150973960Y-59475000D01*
X151254980Y-59756020D01*
X151250000Y-59781056D01*
X151250000Y-59918944D01*
X151276901Y-60054182D01*
X151329668Y-60181574D01*
X151406274Y-60296224D01*
X151503776Y-60393726D01*
X151618426Y-60470332D01*
X151745818Y-60523099D01*
X151881056Y-60550000D01*
X152018944Y-60550000D01*
X152154182Y-60523099D01*
X152281574Y-60470332D01*
X152396224Y-60393726D01*
X152493726Y-60296224D01*
X152570332Y-60181574D01*
X152623099Y-60054182D01*
X152650000Y-59918944D01*
X152650000Y-59781056D01*
X152623099Y-59645818D01*
X152570332Y-59518426D01*
X152493726Y-59403776D01*
X152396224Y-59306274D01*
X152281574Y-59229668D01*
X152154182Y-59176901D01*
X152018944Y-59150000D01*
X151881056Y-59150000D01*
X151856020Y-59154980D01*
X151465283Y-58764243D01*
X151451974Y-58748026D01*
X151387260Y-58694916D01*
X151313427Y-58655452D01*
X151233314Y-58631150D01*
X151170874Y-58625000D01*
X151170867Y-58625000D01*
X151150000Y-58622945D01*
X151129133Y-58625000D01*
X148270867Y-58625000D01*
X148250000Y-58622945D01*
X148229133Y-58625000D01*
X148229126Y-58625000D01*
X148174327Y-58630397D01*
X148166685Y-58631150D01*
X148086572Y-58655452D01*
X148060855Y-58669199D01*
X148012740Y-58694916D01*
X147948026Y-58748026D01*
X147934721Y-58764238D01*
X144623960Y-62075000D01*
X142557907Y-62075000D01*
X142543726Y-62053776D01*
X142446224Y-61956274D01*
X142331574Y-61879668D01*
X142204182Y-61826901D01*
X142068944Y-61800000D01*
X141931056Y-61800000D01*
X141795818Y-61826901D01*
X141668426Y-61879668D01*
X141553776Y-61956274D01*
X141456274Y-62053776D01*
X141379668Y-62168426D01*
X141326901Y-62295818D01*
X141300000Y-62431056D01*
X141200000Y-62431056D01*
X141200000Y-60931056D01*
X141300000Y-60931056D01*
X141300000Y-61068944D01*
X141326901Y-61204182D01*
X141379668Y-61331574D01*
X141456274Y-61446224D01*
X141553776Y-61543726D01*
X141668426Y-61620332D01*
X141795818Y-61673099D01*
X141931056Y-61700000D01*
X142068944Y-61700000D01*
X142204182Y-61673099D01*
X142331574Y-61620332D01*
X142446224Y-61543726D01*
X142543726Y-61446224D01*
X142557907Y-61425000D01*
X144179133Y-61425000D01*
X144200000Y-61427055D01*
X144220867Y-61425000D01*
X144220874Y-61425000D01*
X144283314Y-61418850D01*
X144363427Y-61394548D01*
X144437260Y-61355084D01*
X144501974Y-61301974D01*
X144515283Y-61285757D01*
X147326041Y-58475000D01*
X152273960Y-58475000D01*
X153471571Y-59672612D01*
X153450000Y-59781056D01*
X153450000Y-59918944D01*
X153476901Y-60054182D01*
X153529668Y-60181574D01*
X153606274Y-60296224D01*
X153703776Y-60393726D01*
X153818426Y-60470332D01*
X153945818Y-60523099D01*
X154081056Y-60550000D01*
X154218944Y-60550000D01*
X154354182Y-60523099D01*
X154481574Y-60470332D01*
X154596224Y-60393726D01*
X154693726Y-60296224D01*
X154770332Y-60181574D01*
X154823099Y-60054182D01*
X154850000Y-59918944D01*
X154850000Y-59781056D01*
X154823099Y-59645818D01*
X154770332Y-59518426D01*
X154693726Y-59403776D01*
X154596224Y-59306274D01*
X154481574Y-59229668D01*
X154354182Y-59176901D01*
X154218944Y-59150000D01*
X154151041Y-59150000D01*
X153281041Y-58280000D01*
X159473549Y-58280000D01*
X159473549Y-59720000D01*
X159479341Y-59778810D01*
X159496496Y-59835360D01*
X159524353Y-59887477D01*
X159561842Y-59933158D01*
X159607523Y-59970647D01*
X159659640Y-59998504D01*
X159716190Y-60015659D01*
X159775000Y-60021451D01*
X161225000Y-60021451D01*
X161283810Y-60015659D01*
X161340360Y-59998504D01*
X161392477Y-59970647D01*
X161438158Y-59933158D01*
X161475647Y-59887477D01*
X161503504Y-59835360D01*
X161520659Y-59778810D01*
X161526451Y-59720000D01*
X161526451Y-58280000D01*
X161520659Y-58221190D01*
X161503504Y-58164640D01*
X161475647Y-58112523D01*
X161438158Y-58066842D01*
X161392477Y-58029353D01*
X161340360Y-58001496D01*
X161283810Y-57984341D01*
X161225000Y-57978549D01*
X159775000Y-57978549D01*
X159716190Y-57984341D01*
X159659640Y-58001496D01*
X159607523Y-58029353D01*
X159561842Y-58066842D01*
X159524353Y-58112523D01*
X159496496Y-58164640D01*
X159479341Y-58221190D01*
X159473549Y-58280000D01*
X153281041Y-58280000D01*
X152765283Y-57764243D01*
X152751974Y-57748026D01*
X152687260Y-57694916D01*
X152613427Y-57655452D01*
X152533314Y-57631150D01*
X152470874Y-57625000D01*
X152470867Y-57625000D01*
X152450000Y-57622945D01*
X152429133Y-57625000D01*
X147170866Y-57625000D01*
X147149999Y-57622945D01*
X147129132Y-57625000D01*
X147129126Y-57625000D01*
X147075098Y-57630321D01*
X147066685Y-57631150D01*
X147064645Y-57631769D01*
X146986573Y-57655452D01*
X146912740Y-57694916D01*
X146848026Y-57748026D01*
X146834721Y-57764238D01*
X144023960Y-60575000D01*
X142557907Y-60575000D01*
X142543726Y-60553776D01*
X142446224Y-60456274D01*
X142331574Y-60379668D01*
X142204182Y-60326901D01*
X142068944Y-60300000D01*
X141931056Y-60300000D01*
X141795818Y-60326901D01*
X141668426Y-60379668D01*
X141553776Y-60456274D01*
X141456274Y-60553776D01*
X141379668Y-60668426D01*
X141326901Y-60795818D01*
X141300000Y-60931056D01*
X141200000Y-60931056D01*
X141200000Y-60000000D01*
X141665612Y-60000000D01*
X141699999Y-60003387D01*
X141734386Y-60000000D01*
X141768944Y-60000000D01*
X141802831Y-59993259D01*
X141837224Y-59989872D01*
X141870298Y-59979839D01*
X141904182Y-59973099D01*
X141936100Y-59959878D01*
X141969175Y-59949845D01*
X141999654Y-59933554D01*
X142031574Y-59920332D01*
X142060304Y-59901135D01*
X142090781Y-59884845D01*
X142117492Y-59862924D01*
X142146224Y-59843726D01*
X142170659Y-59819291D01*
X142197370Y-59797370D01*
X142219293Y-59770657D01*
X142243726Y-59746224D01*
X142262924Y-59717492D01*
X142284845Y-59690781D01*
X142301135Y-59660304D01*
X142320332Y-59631574D01*
X142333554Y-59599654D01*
X142349845Y-59569175D01*
X142359878Y-59536100D01*
X142373099Y-59504182D01*
X142379839Y-59470298D01*
X142389872Y-59437224D01*
X142393259Y-59402831D01*
X142400000Y-59368944D01*
X142400000Y-59334390D01*
X142403387Y-59300000D01*
X142400000Y-59265610D01*
X142400000Y-59231056D01*
X142393259Y-59197169D01*
X142389872Y-59162776D01*
X142379839Y-59129702D01*
X142373099Y-59095818D01*
X142359878Y-59063900D01*
X142349845Y-59030825D01*
X142333554Y-59000346D01*
X142320332Y-58968426D01*
X142301135Y-58939696D01*
X142284845Y-58909219D01*
X142262924Y-58882508D01*
X142243726Y-58853776D01*
X142219291Y-58829341D01*
X142197370Y-58802630D01*
X142170659Y-58780709D01*
X142146224Y-58756274D01*
X142146221Y-58756272D01*
X141919296Y-58529347D01*
X141897370Y-58502630D01*
X141790781Y-58415155D01*
X141669175Y-58350155D01*
X141537224Y-58310128D01*
X141434390Y-58300000D01*
X141434387Y-58300000D01*
X141400000Y-58296613D01*
X141365613Y-58300000D01*
X139984387Y-58300000D01*
X139950000Y-58296613D01*
X139915613Y-58300000D01*
X139526451Y-58300000D01*
X139526451Y-58280000D01*
X139520659Y-58221190D01*
X139503504Y-58164640D01*
X139475647Y-58112523D01*
X139438158Y-58066842D01*
X139392477Y-58029353D01*
X139340360Y-58001496D01*
X139283810Y-57984341D01*
X139225000Y-57978549D01*
X137775000Y-57978549D01*
X137716190Y-57984341D01*
X137659640Y-58001496D01*
X137607523Y-58029353D01*
X137561842Y-58066842D01*
X137524353Y-58112523D01*
X137496496Y-58164640D01*
X137479341Y-58221190D01*
X137473549Y-58280000D01*
X135848129Y-58280000D01*
X135848906Y-58272078D01*
X135915100Y-58052835D01*
X136022614Y-57850630D01*
X136167361Y-57673153D01*
X136343824Y-57527171D01*
X136545276Y-57418246D01*
X136764047Y-57350526D01*
X137006915Y-57325000D01*
X161984104Y-57325000D01*
X162227922Y-57348906D01*
G37*
X162227922Y-57348906D02*
X162447165Y-57415100D01*
X162649370Y-57522614D01*
X162826847Y-57667361D01*
X162972829Y-57843824D01*
X163081754Y-58045276D01*
X163149474Y-58264047D01*
X163175001Y-58506925D01*
X163175000Y-77484104D01*
X163151094Y-77727922D01*
X163084900Y-77947166D01*
X162977386Y-78149370D01*
X162832639Y-78326847D01*
X162656176Y-78472830D01*
X162454727Y-78581753D01*
X162235958Y-78649474D01*
X161993085Y-78675000D01*
X137015896Y-78675000D01*
X136772078Y-78651094D01*
X136552834Y-78584900D01*
X136350630Y-78477386D01*
X136173153Y-78332639D01*
X136027170Y-78156176D01*
X135918247Y-77954727D01*
X135850526Y-77735958D01*
X135825000Y-77493085D01*
X135825000Y-77305982D01*
X137521977Y-77305982D01*
X137593238Y-77475938D01*
X137703416Y-77642718D01*
X137844014Y-77784799D01*
X138009629Y-77896720D01*
X138193897Y-77974181D01*
X138350000Y-77934290D01*
X138350000Y-77150000D01*
X138650000Y-77150000D01*
X138650000Y-77934290D01*
X138806103Y-77974181D01*
X138990371Y-77896720D01*
X139155986Y-77784799D01*
X139296584Y-77642718D01*
X139406762Y-77475938D01*
X139478023Y-77305982D01*
X139438019Y-77150000D01*
X138650000Y-77150000D01*
X138350000Y-77150000D01*
X137561981Y-77150000D01*
X137521977Y-77305982D01*
X135825000Y-77305982D01*
X135825000Y-76694018D01*
X137521977Y-76694018D01*
X137561981Y-76850000D01*
X138350000Y-76850000D01*
X138350000Y-76065710D01*
X138650000Y-76065710D01*
X138650000Y-76850000D01*
X139438019Y-76850000D01*
X139455700Y-76781056D01*
X146100000Y-76781056D01*
X146100000Y-76918944D01*
X146126901Y-77054182D01*
X146179668Y-77181574D01*
X146256274Y-77296224D01*
X146353776Y-77393726D01*
X146468426Y-77470332D01*
X146595818Y-77523099D01*
X146731056Y-77550000D01*
X146868944Y-77550000D01*
X146893979Y-77545020D01*
X147084721Y-77735762D01*
X147098026Y-77751974D01*
X147162740Y-77805084D01*
X147236573Y-77844548D01*
X147292383Y-77861478D01*
X147316685Y-77868850D01*
X147325098Y-77869679D01*
X147379126Y-77875000D01*
X147379132Y-77875000D01*
X147399999Y-77877055D01*
X147420866Y-77875000D01*
X154779133Y-77875000D01*
X154800000Y-77877055D01*
X154820867Y-77875000D01*
X154820874Y-77875000D01*
X154883314Y-77868850D01*
X154963427Y-77844548D01*
X155037260Y-77805084D01*
X155101974Y-77751974D01*
X155115284Y-77735756D01*
X155851040Y-77000000D01*
X159470065Y-77000000D01*
X159489759Y-77199955D01*
X159548084Y-77392226D01*
X159642798Y-77569423D01*
X159770262Y-77724738D01*
X159925577Y-77852202D01*
X160102774Y-77946916D01*
X160295045Y-78005241D01*
X160444894Y-78020000D01*
X160555106Y-78020000D01*
X160704955Y-78005241D01*
X160897226Y-77946916D01*
X161074423Y-77852202D01*
X161229738Y-77724738D01*
X161357202Y-77569423D01*
X161451916Y-77392226D01*
X161510241Y-77199955D01*
X161529935Y-77000000D01*
X161510241Y-76800045D01*
X161451916Y-76607774D01*
X161357202Y-76430577D01*
X161229738Y-76275262D01*
X161074423Y-76147798D01*
X160897226Y-76053084D01*
X160704955Y-75994759D01*
X160555106Y-75980000D01*
X160444894Y-75980000D01*
X160295045Y-75994759D01*
X160102774Y-76053084D01*
X159925577Y-76147798D01*
X159770262Y-76275262D01*
X159642798Y-76430577D01*
X159548084Y-76607774D01*
X159489759Y-76800045D01*
X159470065Y-77000000D01*
X155851040Y-77000000D01*
X157947069Y-74903971D01*
X159525000Y-74903971D01*
X159525000Y-75096029D01*
X159562468Y-75284397D01*
X159635966Y-75461836D01*
X159742668Y-75621527D01*
X159878473Y-75757332D01*
X160038164Y-75864034D01*
X160215603Y-75937532D01*
X160403971Y-75975000D01*
X160596029Y-75975000D01*
X160784397Y-75937532D01*
X160961836Y-75864034D01*
X161121527Y-75757332D01*
X161257332Y-75621527D01*
X161364034Y-75461836D01*
X161437532Y-75284397D01*
X161475000Y-75096029D01*
X161475000Y-74903971D01*
X161437532Y-74715603D01*
X161364034Y-74538164D01*
X161257332Y-74378473D01*
X161121527Y-74242668D01*
X160961836Y-74135966D01*
X160784397Y-74062468D01*
X160596029Y-74025000D01*
X160403971Y-74025000D01*
X160215603Y-74062468D01*
X160038164Y-74135966D01*
X159878473Y-74242668D01*
X159742668Y-74378473D01*
X159635966Y-74538164D01*
X159562468Y-74715603D01*
X159525000Y-74903971D01*
X157947069Y-74903971D01*
X159426041Y-73425000D01*
X159620708Y-73425000D01*
X159635966Y-73461836D01*
X159742668Y-73621527D01*
X159878473Y-73757332D01*
X160038164Y-73864034D01*
X160215603Y-73937532D01*
X160403971Y-73975000D01*
X160596029Y-73975000D01*
X160784397Y-73937532D01*
X160961836Y-73864034D01*
X161121527Y-73757332D01*
X161257332Y-73621527D01*
X161364034Y-73461836D01*
X161437532Y-73284397D01*
X161475000Y-73096029D01*
X161475000Y-72903971D01*
X161437532Y-72715603D01*
X161364034Y-72538164D01*
X161257332Y-72378473D01*
X161121527Y-72242668D01*
X160961836Y-72135966D01*
X160784397Y-72062468D01*
X160596029Y-72025000D01*
X160403971Y-72025000D01*
X160215603Y-72062468D01*
X160038164Y-72135966D01*
X159878473Y-72242668D01*
X159742668Y-72378473D01*
X159635966Y-72538164D01*
X159620708Y-72575000D01*
X159270866Y-72575000D01*
X159249999Y-72572945D01*
X159229132Y-72575000D01*
X159229126Y-72575000D01*
X159175098Y-72580321D01*
X159166685Y-72581150D01*
X159142383Y-72588522D01*
X159086573Y-72605452D01*
X159012740Y-72644916D01*
X158948026Y-72698026D01*
X158934721Y-72714238D01*
X154623960Y-77025000D01*
X147576041Y-77025000D01*
X147495020Y-76943979D01*
X147500000Y-76918944D01*
X147500000Y-76781056D01*
X147473099Y-76645818D01*
X147420332Y-76518426D01*
X147343726Y-76403776D01*
X147246224Y-76306274D01*
X147131574Y-76229668D01*
X147004182Y-76176901D01*
X146868944Y-76150000D01*
X146731056Y-76150000D01*
X146595818Y-76176901D01*
X146468426Y-76229668D01*
X146353776Y-76306274D01*
X146256274Y-76403776D01*
X146179668Y-76518426D01*
X146126901Y-76645818D01*
X146100000Y-76781056D01*
X139455700Y-76781056D01*
X139478023Y-76694018D01*
X139406762Y-76524062D01*
X139296584Y-76357282D01*
X139155986Y-76215201D01*
X138990371Y-76103280D01*
X138806103Y-76025819D01*
X138650000Y-76065710D01*
X138350000Y-76065710D01*
X138193897Y-76025819D01*
X138009629Y-76103280D01*
X137844014Y-76215201D01*
X137703416Y-76357282D01*
X137593238Y-76524062D01*
X137521977Y-76694018D01*
X135825000Y-76694018D01*
X135825000Y-74903971D01*
X137525000Y-74903971D01*
X137525000Y-75096029D01*
X137562468Y-75284397D01*
X137635966Y-75461836D01*
X137742668Y-75621527D01*
X137878473Y-75757332D01*
X138038164Y-75864034D01*
X138215603Y-75937532D01*
X138403971Y-75975000D01*
X138596029Y-75975000D01*
X138784397Y-75937532D01*
X138961836Y-75864034D01*
X139121527Y-75757332D01*
X139257332Y-75621527D01*
X139364034Y-75461836D01*
X139379292Y-75425000D01*
X139629133Y-75425000D01*
X139650000Y-75427055D01*
X139670867Y-75425000D01*
X139670874Y-75425000D01*
X139733314Y-75418850D01*
X139813427Y-75394548D01*
X139887260Y-75355084D01*
X139951974Y-75301974D01*
X139965284Y-75285756D01*
X150035762Y-65215279D01*
X150051974Y-65201974D01*
X150105084Y-65137260D01*
X150144548Y-65063427D01*
X150168850Y-64983314D01*
X150175000Y-64920874D01*
X150175000Y-64920867D01*
X150177055Y-64900000D01*
X150175000Y-64879133D01*
X150175000Y-64107907D01*
X150196224Y-64093726D01*
X150293726Y-63996224D01*
X150370332Y-63881574D01*
X150423099Y-63754182D01*
X150450000Y-63618944D01*
X150450000Y-63481056D01*
X150423099Y-63345818D01*
X150370332Y-63218426D01*
X150293726Y-63103776D01*
X150196224Y-63006274D01*
X150081574Y-62929668D01*
X149954182Y-62876901D01*
X149818944Y-62850000D01*
X149681056Y-62850000D01*
X149545818Y-62876901D01*
X149418426Y-62929668D01*
X149303776Y-63006274D01*
X149206274Y-63103776D01*
X149129668Y-63218426D01*
X149076901Y-63345818D01*
X149050000Y-63481056D01*
X149050000Y-63618944D01*
X149076901Y-63754182D01*
X149129668Y-63881574D01*
X149206274Y-63996224D01*
X149303776Y-64093726D01*
X149325000Y-64107908D01*
X149325001Y-64723958D01*
X139473960Y-74575000D01*
X139379292Y-74575000D01*
X139364034Y-74538164D01*
X139257332Y-74378473D01*
X139121527Y-74242668D01*
X138961836Y-74135966D01*
X138784397Y-74062468D01*
X138596029Y-74025000D01*
X138403971Y-74025000D01*
X138215603Y-74062468D01*
X138038164Y-74135966D01*
X137878473Y-74242668D01*
X137742668Y-74378473D01*
X137635966Y-74538164D01*
X137562468Y-74715603D01*
X137525000Y-74903971D01*
X135825000Y-74903971D01*
X135825000Y-72903971D01*
X137525000Y-72903971D01*
X137525000Y-73096029D01*
X137562468Y-73284397D01*
X137635966Y-73461836D01*
X137742668Y-73621527D01*
X137878473Y-73757332D01*
X138038164Y-73864034D01*
X138215603Y-73937532D01*
X138403971Y-73975000D01*
X138596029Y-73975000D01*
X138784397Y-73937532D01*
X138961836Y-73864034D01*
X139121527Y-73757332D01*
X139257332Y-73621527D01*
X139364034Y-73461836D01*
X139437532Y-73284397D01*
X139475000Y-73096029D01*
X139475000Y-72903971D01*
X139437532Y-72715603D01*
X139364034Y-72538164D01*
X139257332Y-72378473D01*
X139121527Y-72242668D01*
X138961836Y-72135966D01*
X138784397Y-72062468D01*
X138596029Y-72025000D01*
X138403971Y-72025000D01*
X138215603Y-72062468D01*
X138038164Y-72135966D01*
X137878473Y-72242668D01*
X137742668Y-72378473D01*
X137635966Y-72538164D01*
X137562468Y-72715603D01*
X137525000Y-72903971D01*
X135825000Y-72903971D01*
X135825000Y-70903971D01*
X137525000Y-70903971D01*
X137525000Y-71096029D01*
X137562468Y-71284397D01*
X137635966Y-71461836D01*
X137742668Y-71621527D01*
X137878473Y-71757332D01*
X138038164Y-71864034D01*
X138215603Y-71937532D01*
X138403971Y-71975000D01*
X138596029Y-71975000D01*
X138784397Y-71937532D01*
X138961836Y-71864034D01*
X139121527Y-71757332D01*
X139257332Y-71621527D01*
X139364034Y-71461836D01*
X139437532Y-71284397D01*
X139475000Y-71096029D01*
X139475000Y-70903971D01*
X139437532Y-70715603D01*
X139364034Y-70538164D01*
X139257332Y-70378473D01*
X139121527Y-70242668D01*
X138961836Y-70135966D01*
X138784397Y-70062468D01*
X138596029Y-70025000D01*
X138403971Y-70025000D01*
X138215603Y-70062468D01*
X138038164Y-70135966D01*
X137878473Y-70242668D01*
X137742668Y-70378473D01*
X137635966Y-70538164D01*
X137562468Y-70715603D01*
X137525000Y-70903971D01*
X135825000Y-70903971D01*
X135825000Y-68903971D01*
X137525000Y-68903971D01*
X137525000Y-69096029D01*
X137562468Y-69284397D01*
X137635966Y-69461836D01*
X137742668Y-69621527D01*
X137878473Y-69757332D01*
X138038164Y-69864034D01*
X138215603Y-69937532D01*
X138403971Y-69975000D01*
X138596029Y-69975000D01*
X138784397Y-69937532D01*
X138961836Y-69864034D01*
X139121527Y-69757332D01*
X139257332Y-69621527D01*
X139364034Y-69461836D01*
X139437532Y-69284397D01*
X139475000Y-69096029D01*
X139475000Y-68903971D01*
X139437532Y-68715603D01*
X139364034Y-68538164D01*
X139257332Y-68378473D01*
X139121527Y-68242668D01*
X138961836Y-68135966D01*
X138784397Y-68062468D01*
X138596029Y-68025000D01*
X138403971Y-68025000D01*
X138215603Y-68062468D01*
X138038164Y-68135966D01*
X137878473Y-68242668D01*
X137742668Y-68378473D01*
X137635966Y-68538164D01*
X137562468Y-68715603D01*
X137525000Y-68903971D01*
X135825000Y-68903971D01*
X135825000Y-66903971D01*
X137525000Y-66903971D01*
X137525000Y-67096029D01*
X137562468Y-67284397D01*
X137635966Y-67461836D01*
X137742668Y-67621527D01*
X137878473Y-67757332D01*
X138038164Y-67864034D01*
X138215603Y-67937532D01*
X138403971Y-67975000D01*
X138596029Y-67975000D01*
X138784397Y-67937532D01*
X138961836Y-67864034D01*
X139121527Y-67757332D01*
X139257332Y-67621527D01*
X139364034Y-67461836D01*
X139437532Y-67284397D01*
X139475000Y-67096029D01*
X139475000Y-66903971D01*
X139437532Y-66715603D01*
X139364034Y-66538164D01*
X139257332Y-66378473D01*
X139121527Y-66242668D01*
X138961836Y-66135966D01*
X138784397Y-66062468D01*
X138596029Y-66025000D01*
X138403971Y-66025000D01*
X138215603Y-66062468D01*
X138038164Y-66135966D01*
X137878473Y-66242668D01*
X137742668Y-66378473D01*
X137635966Y-66538164D01*
X137562468Y-66715603D01*
X137525000Y-66903971D01*
X135825000Y-66903971D01*
X135825000Y-64903971D01*
X137525000Y-64903971D01*
X137525000Y-65096029D01*
X137562468Y-65284397D01*
X137635966Y-65461836D01*
X137742668Y-65621527D01*
X137878473Y-65757332D01*
X138038164Y-65864034D01*
X138215603Y-65937532D01*
X138403971Y-65975000D01*
X138596029Y-65975000D01*
X138784397Y-65937532D01*
X138961836Y-65864034D01*
X139121527Y-65757332D01*
X139257332Y-65621527D01*
X139364034Y-65461836D01*
X139437532Y-65284397D01*
X139475000Y-65096029D01*
X139475000Y-64903971D01*
X139437532Y-64715603D01*
X139364034Y-64538164D01*
X139257332Y-64378473D01*
X139121527Y-64242668D01*
X138961836Y-64135966D01*
X138784397Y-64062468D01*
X138596029Y-64025000D01*
X138403971Y-64025000D01*
X138215603Y-64062468D01*
X138038164Y-64135966D01*
X137878473Y-64242668D01*
X137742668Y-64378473D01*
X137635966Y-64538164D01*
X137562468Y-64715603D01*
X137525000Y-64903971D01*
X135825000Y-64903971D01*
X135825000Y-62903971D01*
X137525000Y-62903971D01*
X137525000Y-63096029D01*
X137562468Y-63284397D01*
X137635966Y-63461836D01*
X137742668Y-63621527D01*
X137878473Y-63757332D01*
X138038164Y-63864034D01*
X138215603Y-63937532D01*
X138403971Y-63975000D01*
X138596029Y-63975000D01*
X138784397Y-63937532D01*
X138961836Y-63864034D01*
X139121527Y-63757332D01*
X139257332Y-63621527D01*
X139364034Y-63461836D01*
X139437532Y-63284397D01*
X139475000Y-63096029D01*
X139475000Y-62903971D01*
X139437532Y-62715603D01*
X139364034Y-62538164D01*
X139257332Y-62378473D01*
X139121527Y-62242668D01*
X138961836Y-62135966D01*
X138784397Y-62062468D01*
X138596029Y-62025000D01*
X138403971Y-62025000D01*
X138215603Y-62062468D01*
X138038164Y-62135966D01*
X137878473Y-62242668D01*
X137742668Y-62378473D01*
X137635966Y-62538164D01*
X137562468Y-62715603D01*
X137525000Y-62903971D01*
X135825000Y-62903971D01*
X135825000Y-60903971D01*
X137525000Y-60903971D01*
X137525000Y-61096029D01*
X137562468Y-61284397D01*
X137635966Y-61461836D01*
X137742668Y-61621527D01*
X137878473Y-61757332D01*
X138038164Y-61864034D01*
X138215603Y-61937532D01*
X138403971Y-61975000D01*
X138596029Y-61975000D01*
X138784397Y-61937532D01*
X138961836Y-61864034D01*
X139121527Y-61757332D01*
X139257332Y-61621527D01*
X139364034Y-61461836D01*
X139437532Y-61284397D01*
X139475000Y-61096029D01*
X139475000Y-60903971D01*
X139437532Y-60715603D01*
X139364034Y-60538164D01*
X139257332Y-60378473D01*
X139121527Y-60242668D01*
X138961836Y-60135966D01*
X138784397Y-60062468D01*
X138596029Y-60025000D01*
X138403971Y-60025000D01*
X138215603Y-60062468D01*
X138038164Y-60135966D01*
X137878473Y-60242668D01*
X137742668Y-60378473D01*
X137635966Y-60538164D01*
X137562468Y-60715603D01*
X137525000Y-60903971D01*
X135825000Y-60903971D01*
X135825000Y-58515896D01*
X135848129Y-58280000D01*
X137473549Y-58280000D01*
X137473549Y-59720000D01*
X137479341Y-59778810D01*
X137496496Y-59835360D01*
X137524353Y-59887477D01*
X137561842Y-59933158D01*
X137607523Y-59970647D01*
X137659640Y-59998504D01*
X137716190Y-60015659D01*
X137775000Y-60021451D01*
X139225000Y-60021451D01*
X139283810Y-60015659D01*
X139340360Y-59998504D01*
X139392477Y-59970647D01*
X139438158Y-59933158D01*
X139475647Y-59887477D01*
X139503504Y-59835360D01*
X139520659Y-59778810D01*
X139526451Y-59720000D01*
X139526451Y-59700000D01*
X139660051Y-59700000D01*
X139800001Y-59839950D01*
X139800000Y-63215613D01*
X139796613Y-63250000D01*
X139800000Y-63284387D01*
X139800000Y-63284389D01*
X139810128Y-63387223D01*
X139850155Y-63519174D01*
X139915155Y-63640781D01*
X139980708Y-63720657D01*
X140002630Y-63747369D01*
X140029342Y-63769291D01*
X140730708Y-64470658D01*
X140752630Y-64497370D01*
X140779341Y-64519291D01*
X140779342Y-64519292D01*
X140859218Y-64584845D01*
X140980825Y-64649845D01*
X141112776Y-64689872D01*
X141215610Y-64700000D01*
X141215612Y-64700000D01*
X141249999Y-64703387D01*
X141284386Y-64700000D01*
X147015613Y-64700000D01*
X147050000Y-64703387D01*
X147084387Y-64700000D01*
X147084390Y-64700000D01*
X147187224Y-64689872D01*
X147319175Y-64649845D01*
X147440781Y-64584845D01*
X147547370Y-64497370D01*
X147569296Y-64470653D01*
X149339950Y-62700000D01*
X150110051Y-62700000D01*
X150306272Y-62896221D01*
X150306274Y-62896224D01*
X150403776Y-62993726D01*
X150403779Y-62993728D01*
X152050001Y-64639951D01*
X152050000Y-73160050D01*
X151179343Y-74030708D01*
X151152630Y-74052631D01*
X151130709Y-74079342D01*
X151130708Y-74079343D01*
X151065155Y-74159219D01*
X151011218Y-74260129D01*
X151000155Y-74280826D01*
X150960128Y-74412777D01*
X150953426Y-74480826D01*
X150946613Y-74550000D01*
X150950000Y-74584387D01*
X150950000Y-74715610D01*
X150946613Y-74750000D01*
X150950000Y-74784389D01*
X150950000Y-74915613D01*
X150946613Y-74950000D01*
X150950000Y-74984387D01*
X150950000Y-74984390D01*
X150960128Y-75087224D01*
X151000155Y-75219175D01*
X151065155Y-75340781D01*
X151152631Y-75447370D01*
X151179342Y-75469291D01*
X152206274Y-76496224D01*
X152230713Y-76520663D01*
X152252630Y-76547369D01*
X152279337Y-76569287D01*
X152303776Y-76593726D01*
X152332504Y-76612921D01*
X152359218Y-76634845D01*
X152389699Y-76651137D01*
X152418426Y-76670332D01*
X152450346Y-76683554D01*
X152480825Y-76699845D01*
X152513900Y-76709878D01*
X152545818Y-76723099D01*
X152579702Y-76729839D01*
X152612776Y-76739872D01*
X152647169Y-76743259D01*
X152681056Y-76750000D01*
X152715610Y-76750000D01*
X152750000Y-76753387D01*
X152784390Y-76750000D01*
X152818944Y-76750000D01*
X152852832Y-76743259D01*
X152887223Y-76739872D01*
X152920295Y-76729840D01*
X152954182Y-76723099D01*
X152986103Y-76709877D01*
X153019174Y-76699845D01*
X153049650Y-76683555D01*
X153081574Y-76670332D01*
X153110305Y-76651135D01*
X153140781Y-76634845D01*
X153167489Y-76612926D01*
X153196224Y-76593726D01*
X153220663Y-76569287D01*
X153247369Y-76547370D01*
X153269287Y-76520663D01*
X153293726Y-76496224D01*
X153312925Y-76467490D01*
X153334845Y-76440781D01*
X153351135Y-76410304D01*
X153370332Y-76381574D01*
X153383554Y-76349654D01*
X153399845Y-76319175D01*
X153409878Y-76286100D01*
X153423099Y-76254182D01*
X153429839Y-76220298D01*
X153439872Y-76187224D01*
X153443259Y-76152831D01*
X153450000Y-76118944D01*
X153450000Y-76084387D01*
X153453387Y-76050000D01*
X153450000Y-76015613D01*
X153450000Y-74734387D01*
X153453387Y-74700000D01*
X153450000Y-74665610D01*
X153450000Y-73484387D01*
X153453387Y-73450000D01*
X153450000Y-73415610D01*
X153450000Y-70903971D01*
X159525000Y-70903971D01*
X159525000Y-71096029D01*
X159562468Y-71284397D01*
X159635966Y-71461836D01*
X159742668Y-71621527D01*
X159878473Y-71757332D01*
X160038164Y-71864034D01*
X160215603Y-71937532D01*
X160403971Y-71975000D01*
X160596029Y-71975000D01*
X160784397Y-71937532D01*
X160961836Y-71864034D01*
X161121527Y-71757332D01*
X161257332Y-71621527D01*
X161364034Y-71461836D01*
X161437532Y-71284397D01*
X161475000Y-71096029D01*
X161475000Y-70903971D01*
X161437532Y-70715603D01*
X161364034Y-70538164D01*
X161257332Y-70378473D01*
X161121527Y-70242668D01*
X160961836Y-70135966D01*
X160784397Y-70062468D01*
X160596029Y-70025000D01*
X160403971Y-70025000D01*
X160215603Y-70062468D01*
X160038164Y-70135966D01*
X159878473Y-70242668D01*
X159742668Y-70378473D01*
X159635966Y-70538164D01*
X159562468Y-70715603D01*
X159525000Y-70903971D01*
X153450000Y-70903971D01*
X153450000Y-68903971D01*
X159525000Y-68903971D01*
X159525000Y-69096029D01*
X159562468Y-69284397D01*
X159635966Y-69461836D01*
X159742668Y-69621527D01*
X159878473Y-69757332D01*
X160038164Y-69864034D01*
X160215603Y-69937532D01*
X160403971Y-69975000D01*
X160596029Y-69975000D01*
X160784397Y-69937532D01*
X160961836Y-69864034D01*
X161121527Y-69757332D01*
X161257332Y-69621527D01*
X161364034Y-69461836D01*
X161437532Y-69284397D01*
X161475000Y-69096029D01*
X161475000Y-68903971D01*
X161437532Y-68715603D01*
X161364034Y-68538164D01*
X161257332Y-68378473D01*
X161121527Y-68242668D01*
X160961836Y-68135966D01*
X160784397Y-68062468D01*
X160596029Y-68025000D01*
X160403971Y-68025000D01*
X160215603Y-68062468D01*
X160038164Y-68135966D01*
X159878473Y-68242668D01*
X159742668Y-68378473D01*
X159635966Y-68538164D01*
X159562468Y-68715603D01*
X159525000Y-68903971D01*
X153450000Y-68903971D01*
X153450000Y-66903971D01*
X159525000Y-66903971D01*
X159525000Y-67096029D01*
X159562468Y-67284397D01*
X159635966Y-67461836D01*
X159742668Y-67621527D01*
X159878473Y-67757332D01*
X160038164Y-67864034D01*
X160215603Y-67937532D01*
X160403971Y-67975000D01*
X160596029Y-67975000D01*
X160784397Y-67937532D01*
X160961836Y-67864034D01*
X161121527Y-67757332D01*
X161257332Y-67621527D01*
X161364034Y-67461836D01*
X161437532Y-67284397D01*
X161475000Y-67096029D01*
X161475000Y-66903971D01*
X161437532Y-66715603D01*
X161364034Y-66538164D01*
X161257332Y-66378473D01*
X161121527Y-66242668D01*
X160961836Y-66135966D01*
X160784397Y-66062468D01*
X160596029Y-66025000D01*
X160403971Y-66025000D01*
X160215603Y-66062468D01*
X160038164Y-66135966D01*
X159878473Y-66242668D01*
X159742668Y-66378473D01*
X159635966Y-66538164D01*
X159562468Y-66715603D01*
X159525000Y-66903971D01*
X153450000Y-66903971D01*
X153450000Y-64903971D01*
X159525000Y-64903971D01*
X159525000Y-65096029D01*
X159562468Y-65284397D01*
X159635966Y-65461836D01*
X159742668Y-65621527D01*
X159878473Y-65757332D01*
X160038164Y-65864034D01*
X160215603Y-65937532D01*
X160403971Y-65975000D01*
X160596029Y-65975000D01*
X160784397Y-65937532D01*
X160961836Y-65864034D01*
X161121527Y-65757332D01*
X161257332Y-65621527D01*
X161364034Y-65461836D01*
X161437532Y-65284397D01*
X161475000Y-65096029D01*
X161475000Y-64903971D01*
X161437532Y-64715603D01*
X161364034Y-64538164D01*
X161257332Y-64378473D01*
X161121527Y-64242668D01*
X160961836Y-64135966D01*
X160784397Y-64062468D01*
X160596029Y-64025000D01*
X160403971Y-64025000D01*
X160215603Y-64062468D01*
X160038164Y-64135966D01*
X159878473Y-64242668D01*
X159742668Y-64378473D01*
X159635966Y-64538164D01*
X159562468Y-64715603D01*
X159525000Y-64903971D01*
X153450000Y-64903971D01*
X153450000Y-64384387D01*
X153453387Y-64350000D01*
X153450000Y-64315610D01*
X153439872Y-64212776D01*
X153399845Y-64080825D01*
X153334845Y-63959219D01*
X153247370Y-63852630D01*
X153220658Y-63830709D01*
X152293920Y-62903971D01*
X159525000Y-62903971D01*
X159525000Y-63096029D01*
X159562468Y-63284397D01*
X159635966Y-63461836D01*
X159742668Y-63621527D01*
X159878473Y-63757332D01*
X160038164Y-63864034D01*
X160215603Y-63937532D01*
X160403971Y-63975000D01*
X160596029Y-63975000D01*
X160784397Y-63937532D01*
X160961836Y-63864034D01*
X161121527Y-63757332D01*
X161257332Y-63621527D01*
X161364034Y-63461836D01*
X161437532Y-63284397D01*
X161475000Y-63096029D01*
X161475000Y-62903971D01*
X161437532Y-62715603D01*
X161364034Y-62538164D01*
X161257332Y-62378473D01*
X161121527Y-62242668D01*
X160961836Y-62135966D01*
X160784397Y-62062468D01*
X160596029Y-62025000D01*
X160403971Y-62025000D01*
X160215603Y-62062468D01*
X160038164Y-62135966D01*
X159878473Y-62242668D01*
X159742668Y-62378473D01*
X159635966Y-62538164D01*
X159562468Y-62715603D01*
X159525000Y-62903971D01*
X152293920Y-62903971D01*
X151393728Y-62003779D01*
X151393726Y-62003776D01*
X151296224Y-61906274D01*
X151296221Y-61906272D01*
X150919296Y-61529347D01*
X150897370Y-61502630D01*
X150790781Y-61415155D01*
X150669175Y-61350155D01*
X150537224Y-61310128D01*
X150434390Y-61300000D01*
X150434387Y-61300000D01*
X150400000Y-61296613D01*
X150365613Y-61300000D01*
X149084386Y-61300000D01*
X149049999Y-61296613D01*
X149015612Y-61300000D01*
X149015610Y-61300000D01*
X148912776Y-61310128D01*
X148780825Y-61350155D01*
X148659218Y-61415155D01*
X148591589Y-61470657D01*
X148552630Y-61502630D01*
X148530709Y-61529342D01*
X146760051Y-63300000D01*
X141539950Y-63300000D01*
X141200000Y-62960051D01*
X141200000Y-62431056D01*
X141300000Y-62431056D01*
X141300000Y-62568944D01*
X141326901Y-62704182D01*
X141379668Y-62831574D01*
X141456274Y-62946224D01*
X141553776Y-63043726D01*
X141668426Y-63120332D01*
X141795818Y-63173099D01*
X141931056Y-63200000D01*
X142068944Y-63200000D01*
X142204182Y-63173099D01*
X142331574Y-63120332D01*
X142446224Y-63043726D01*
X142543726Y-62946224D01*
X142557907Y-62925000D01*
X144779133Y-62925000D01*
X144800000Y-62927055D01*
X144820867Y-62925000D01*
X144820874Y-62925000D01*
X144883314Y-62918850D01*
X144963427Y-62894548D01*
X145037260Y-62855084D01*
X145101974Y-62801974D01*
X145115283Y-62785757D01*
X147669984Y-60231056D01*
X147950000Y-60231056D01*
X147950000Y-60368944D01*
X147976901Y-60504182D01*
X148029668Y-60631574D01*
X148106274Y-60746224D01*
X148203776Y-60843726D01*
X148318426Y-60920332D01*
X148445818Y-60973099D01*
X148581056Y-61000000D01*
X148718944Y-61000000D01*
X148854182Y-60973099D01*
X148981574Y-60920332D01*
X149096224Y-60843726D01*
X149193726Y-60746224D01*
X149207907Y-60725000D01*
X150373960Y-60725000D01*
X150934721Y-61285762D01*
X150948026Y-61301974D01*
X151012740Y-61355084D01*
X151086573Y-61394548D01*
X151142383Y-61411478D01*
X151166685Y-61418850D01*
X151175098Y-61419679D01*
X151229126Y-61425000D01*
X151229132Y-61425000D01*
X151249999Y-61427055D01*
X151270866Y-61425000D01*
X159620708Y-61425000D01*
X159635966Y-61461836D01*
X159742668Y-61621527D01*
X159878473Y-61757332D01*
X160038164Y-61864034D01*
X160215603Y-61937532D01*
X160403971Y-61975000D01*
X160596029Y-61975000D01*
X160784397Y-61937532D01*
X160961836Y-61864034D01*
X161121527Y-61757332D01*
X161257332Y-61621527D01*
X161364034Y-61461836D01*
X161437532Y-61284397D01*
X161475000Y-61096029D01*
X161475000Y-60903971D01*
X161437532Y-60715603D01*
X161364034Y-60538164D01*
X161257332Y-60378473D01*
X161121527Y-60242668D01*
X160961836Y-60135966D01*
X160784397Y-60062468D01*
X160596029Y-60025000D01*
X160403971Y-60025000D01*
X160215603Y-60062468D01*
X160038164Y-60135966D01*
X159878473Y-60242668D01*
X159742668Y-60378473D01*
X159635966Y-60538164D01*
X159620708Y-60575000D01*
X151426041Y-60575000D01*
X150865283Y-60014243D01*
X150851974Y-59998026D01*
X150787260Y-59944916D01*
X150713427Y-59905452D01*
X150633314Y-59881150D01*
X150570874Y-59875000D01*
X150570867Y-59875000D01*
X150550000Y-59872945D01*
X150529133Y-59875000D01*
X149207907Y-59875000D01*
X149193726Y-59853776D01*
X149096224Y-59756274D01*
X148981574Y-59679668D01*
X148854182Y-59626901D01*
X148718944Y-59600000D01*
X148581056Y-59600000D01*
X148445818Y-59626901D01*
X148318426Y-59679668D01*
X148203776Y-59756274D01*
X148106274Y-59853776D01*
X148029668Y-59968426D01*
X147976901Y-60095818D01*
X147950000Y-60231056D01*
X147669984Y-60231056D01*
X148426041Y-59475000D01*
X150973960Y-59475000D01*
X151254980Y-59756020D01*
X151250000Y-59781056D01*
X151250000Y-59918944D01*
X151276901Y-60054182D01*
X151329668Y-60181574D01*
X151406274Y-60296224D01*
X151503776Y-60393726D01*
X151618426Y-60470332D01*
X151745818Y-60523099D01*
X151881056Y-60550000D01*
X152018944Y-60550000D01*
X152154182Y-60523099D01*
X152281574Y-60470332D01*
X152396224Y-60393726D01*
X152493726Y-60296224D01*
X152570332Y-60181574D01*
X152623099Y-60054182D01*
X152650000Y-59918944D01*
X152650000Y-59781056D01*
X152623099Y-59645818D01*
X152570332Y-59518426D01*
X152493726Y-59403776D01*
X152396224Y-59306274D01*
X152281574Y-59229668D01*
X152154182Y-59176901D01*
X152018944Y-59150000D01*
X151881056Y-59150000D01*
X151856020Y-59154980D01*
X151465283Y-58764243D01*
X151451974Y-58748026D01*
X151387260Y-58694916D01*
X151313427Y-58655452D01*
X151233314Y-58631150D01*
X151170874Y-58625000D01*
X151170867Y-58625000D01*
X151150000Y-58622945D01*
X151129133Y-58625000D01*
X148270867Y-58625000D01*
X148250000Y-58622945D01*
X148229133Y-58625000D01*
X148229126Y-58625000D01*
X148174327Y-58630397D01*
X148166685Y-58631150D01*
X148086572Y-58655452D01*
X148060855Y-58669199D01*
X148012740Y-58694916D01*
X147948026Y-58748026D01*
X147934721Y-58764238D01*
X144623960Y-62075000D01*
X142557907Y-62075000D01*
X142543726Y-62053776D01*
X142446224Y-61956274D01*
X142331574Y-61879668D01*
X142204182Y-61826901D01*
X142068944Y-61800000D01*
X141931056Y-61800000D01*
X141795818Y-61826901D01*
X141668426Y-61879668D01*
X141553776Y-61956274D01*
X141456274Y-62053776D01*
X141379668Y-62168426D01*
X141326901Y-62295818D01*
X141300000Y-62431056D01*
X141200000Y-62431056D01*
X141200000Y-60931056D01*
X141300000Y-60931056D01*
X141300000Y-61068944D01*
X141326901Y-61204182D01*
X141379668Y-61331574D01*
X141456274Y-61446224D01*
X141553776Y-61543726D01*
X141668426Y-61620332D01*
X141795818Y-61673099D01*
X141931056Y-61700000D01*
X142068944Y-61700000D01*
X142204182Y-61673099D01*
X142331574Y-61620332D01*
X142446224Y-61543726D01*
X142543726Y-61446224D01*
X142557907Y-61425000D01*
X144179133Y-61425000D01*
X144200000Y-61427055D01*
X144220867Y-61425000D01*
X144220874Y-61425000D01*
X144283314Y-61418850D01*
X144363427Y-61394548D01*
X144437260Y-61355084D01*
X144501974Y-61301974D01*
X144515283Y-61285757D01*
X147326041Y-58475000D01*
X152273960Y-58475000D01*
X153471571Y-59672612D01*
X153450000Y-59781056D01*
X153450000Y-59918944D01*
X153476901Y-60054182D01*
X153529668Y-60181574D01*
X153606274Y-60296224D01*
X153703776Y-60393726D01*
X153818426Y-60470332D01*
X153945818Y-60523099D01*
X154081056Y-60550000D01*
X154218944Y-60550000D01*
X154354182Y-60523099D01*
X154481574Y-60470332D01*
X154596224Y-60393726D01*
X154693726Y-60296224D01*
X154770332Y-60181574D01*
X154823099Y-60054182D01*
X154850000Y-59918944D01*
X154850000Y-59781056D01*
X154823099Y-59645818D01*
X154770332Y-59518426D01*
X154693726Y-59403776D01*
X154596224Y-59306274D01*
X154481574Y-59229668D01*
X154354182Y-59176901D01*
X154218944Y-59150000D01*
X154151041Y-59150000D01*
X153281041Y-58280000D01*
X159473549Y-58280000D01*
X159473549Y-59720000D01*
X159479341Y-59778810D01*
X159496496Y-59835360D01*
X159524353Y-59887477D01*
X159561842Y-59933158D01*
X159607523Y-59970647D01*
X159659640Y-59998504D01*
X159716190Y-60015659D01*
X159775000Y-60021451D01*
X161225000Y-60021451D01*
X161283810Y-60015659D01*
X161340360Y-59998504D01*
X161392477Y-59970647D01*
X161438158Y-59933158D01*
X161475647Y-59887477D01*
X161503504Y-59835360D01*
X161520659Y-59778810D01*
X161526451Y-59720000D01*
X161526451Y-58280000D01*
X161520659Y-58221190D01*
X161503504Y-58164640D01*
X161475647Y-58112523D01*
X161438158Y-58066842D01*
X161392477Y-58029353D01*
X161340360Y-58001496D01*
X161283810Y-57984341D01*
X161225000Y-57978549D01*
X159775000Y-57978549D01*
X159716190Y-57984341D01*
X159659640Y-58001496D01*
X159607523Y-58029353D01*
X159561842Y-58066842D01*
X159524353Y-58112523D01*
X159496496Y-58164640D01*
X159479341Y-58221190D01*
X159473549Y-58280000D01*
X153281041Y-58280000D01*
X152765283Y-57764243D01*
X152751974Y-57748026D01*
X152687260Y-57694916D01*
X152613427Y-57655452D01*
X152533314Y-57631150D01*
X152470874Y-57625000D01*
X152470867Y-57625000D01*
X152450000Y-57622945D01*
X152429133Y-57625000D01*
X147170866Y-57625000D01*
X147149999Y-57622945D01*
X147129132Y-57625000D01*
X147129126Y-57625000D01*
X147075098Y-57630321D01*
X147066685Y-57631150D01*
X147064645Y-57631769D01*
X146986573Y-57655452D01*
X146912740Y-57694916D01*
X146848026Y-57748026D01*
X146834721Y-57764238D01*
X144023960Y-60575000D01*
X142557907Y-60575000D01*
X142543726Y-60553776D01*
X142446224Y-60456274D01*
X142331574Y-60379668D01*
X142204182Y-60326901D01*
X142068944Y-60300000D01*
X141931056Y-60300000D01*
X141795818Y-60326901D01*
X141668426Y-60379668D01*
X141553776Y-60456274D01*
X141456274Y-60553776D01*
X141379668Y-60668426D01*
X141326901Y-60795818D01*
X141300000Y-60931056D01*
X141200000Y-60931056D01*
X141200000Y-60000000D01*
X141665612Y-60000000D01*
X141699999Y-60003387D01*
X141734386Y-60000000D01*
X141768944Y-60000000D01*
X141802831Y-59993259D01*
X141837224Y-59989872D01*
X141870298Y-59979839D01*
X141904182Y-59973099D01*
X141936100Y-59959878D01*
X141969175Y-59949845D01*
X141999654Y-59933554D01*
X142031574Y-59920332D01*
X142060304Y-59901135D01*
X142090781Y-59884845D01*
X142117492Y-59862924D01*
X142146224Y-59843726D01*
X142170659Y-59819291D01*
X142197370Y-59797370D01*
X142219293Y-59770657D01*
X142243726Y-59746224D01*
X142262924Y-59717492D01*
X142284845Y-59690781D01*
X142301135Y-59660304D01*
X142320332Y-59631574D01*
X142333554Y-59599654D01*
X142349845Y-59569175D01*
X142359878Y-59536100D01*
X142373099Y-59504182D01*
X142379839Y-59470298D01*
X142389872Y-59437224D01*
X142393259Y-59402831D01*
X142400000Y-59368944D01*
X142400000Y-59334390D01*
X142403387Y-59300000D01*
X142400000Y-59265610D01*
X142400000Y-59231056D01*
X142393259Y-59197169D01*
X142389872Y-59162776D01*
X142379839Y-59129702D01*
X142373099Y-59095818D01*
X142359878Y-59063900D01*
X142349845Y-59030825D01*
X142333554Y-59000346D01*
X142320332Y-58968426D01*
X142301135Y-58939696D01*
X142284845Y-58909219D01*
X142262924Y-58882508D01*
X142243726Y-58853776D01*
X142219291Y-58829341D01*
X142197370Y-58802630D01*
X142170659Y-58780709D01*
X142146224Y-58756274D01*
X142146221Y-58756272D01*
X141919296Y-58529347D01*
X141897370Y-58502630D01*
X141790781Y-58415155D01*
X141669175Y-58350155D01*
X141537224Y-58310128D01*
X141434390Y-58300000D01*
X141434387Y-58300000D01*
X141400000Y-58296613D01*
X141365613Y-58300000D01*
X139984387Y-58300000D01*
X139950000Y-58296613D01*
X139915613Y-58300000D01*
X139526451Y-58300000D01*
X139526451Y-58280000D01*
X139520659Y-58221190D01*
X139503504Y-58164640D01*
X139475647Y-58112523D01*
X139438158Y-58066842D01*
X139392477Y-58029353D01*
X139340360Y-58001496D01*
X139283810Y-57984341D01*
X139225000Y-57978549D01*
X137775000Y-57978549D01*
X137716190Y-57984341D01*
X137659640Y-58001496D01*
X137607523Y-58029353D01*
X137561842Y-58066842D01*
X137524353Y-58112523D01*
X137496496Y-58164640D01*
X137479341Y-58221190D01*
X137473549Y-58280000D01*
X135848129Y-58280000D01*
X135848906Y-58272078D01*
X135915100Y-58052835D01*
X136022614Y-57850630D01*
X136167361Y-57673153D01*
X136343824Y-57527171D01*
X136545276Y-57418246D01*
X136764047Y-57350526D01*
X137006915Y-57325000D01*
X161984104Y-57325000D01*
X162227922Y-57348906D01*
M02*
