G04 #@! TF.GenerationSoftware,KiCad,Pcbnew,(5.1.5-0-10_14)*
G04 #@! TF.CreationDate,2020-04-11T19:26:15-04:00*
G04 #@! TF.ProjectId,crazyflie-usd-spi3,6372617a-7966-46c6-9965-2d7573642d73,rev?*
G04 #@! TF.SameCoordinates,Original*
G04 #@! TF.FileFunction,Soldermask,Top*
G04 #@! TF.FilePolarity,Negative*
%FSLAX46Y46*%
G04 Gerber Fmt 4.6, Leading zero omitted, Abs format (unit mm)*
G04 Created by KiCad (PCBNEW (5.1.5-0-10_14)) date 2020-04-11 19:26:15*
%MOMM*%
%LPD*%
G04 APERTURE LIST*
%ADD10C,0.100000*%
G04 APERTURE END LIST*
D10*
G36*
X149999012Y-76178959D02*
G01*
X150034112Y-76189607D01*
X150066469Y-76206902D01*
X150094826Y-76230174D01*
X150118098Y-76258531D01*
X150135393Y-76290888D01*
X150146041Y-76325988D01*
X150150000Y-76366186D01*
X150150000Y-77433814D01*
X150146041Y-77474012D01*
X150135393Y-77509112D01*
X150118098Y-77541469D01*
X150094826Y-77569826D01*
X150066469Y-77593098D01*
X150034112Y-77610393D01*
X149999012Y-77621041D01*
X149958814Y-77625000D01*
X149441186Y-77625000D01*
X149400988Y-77621041D01*
X149365888Y-77610393D01*
X149333531Y-77593098D01*
X149305174Y-77569826D01*
X149281902Y-77541469D01*
X149264607Y-77509112D01*
X149253959Y-77474012D01*
X149250000Y-77433814D01*
X149250000Y-76366186D01*
X149253959Y-76325988D01*
X149264607Y-76290888D01*
X149281902Y-76258531D01*
X149305174Y-76230174D01*
X149333531Y-76206902D01*
X149365888Y-76189607D01*
X149400988Y-76178959D01*
X149441186Y-76175000D01*
X149958814Y-76175000D01*
X149999012Y-76178959D01*
G37*
G36*
X148099012Y-76178959D02*
G01*
X148134112Y-76189607D01*
X148166469Y-76206902D01*
X148194826Y-76230174D01*
X148218098Y-76258531D01*
X148235393Y-76290888D01*
X148246041Y-76325988D01*
X148250000Y-76366186D01*
X148250000Y-77433814D01*
X148246041Y-77474012D01*
X148235393Y-77509112D01*
X148218098Y-77541469D01*
X148194826Y-77569826D01*
X148166469Y-77593098D01*
X148134112Y-77610393D01*
X148099012Y-77621041D01*
X148058814Y-77625000D01*
X147541186Y-77625000D01*
X147500988Y-77621041D01*
X147465888Y-77610393D01*
X147433531Y-77593098D01*
X147405174Y-77569826D01*
X147381902Y-77541469D01*
X147364607Y-77509112D01*
X147353959Y-77474012D01*
X147350000Y-77433814D01*
X147350000Y-76366186D01*
X147353959Y-76325988D01*
X147364607Y-76290888D01*
X147381902Y-76258531D01*
X147405174Y-76230174D01*
X147433531Y-76206902D01*
X147465888Y-76189607D01*
X147500988Y-76178959D01*
X147541186Y-76175000D01*
X148058814Y-76175000D01*
X148099012Y-76178959D01*
G37*
G36*
X159578887Y-76504439D02*
G01*
X159618680Y-76516510D01*
X159655358Y-76536115D01*
X159687503Y-76562497D01*
X159713885Y-76594642D01*
X159733490Y-76631320D01*
X159745561Y-76671113D01*
X159750000Y-76716186D01*
X159750000Y-77283814D01*
X159745561Y-77328887D01*
X159733490Y-77368680D01*
X159713885Y-77405358D01*
X159687503Y-77437503D01*
X159655358Y-77463885D01*
X159618680Y-77483490D01*
X159578887Y-77495561D01*
X159533814Y-77500000D01*
X158066186Y-77500000D01*
X158021113Y-77495561D01*
X157981320Y-77483490D01*
X157944642Y-77463885D01*
X157912497Y-77437503D01*
X157886115Y-77405358D01*
X157866510Y-77368680D01*
X157854439Y-77328887D01*
X157850000Y-77283814D01*
X157850000Y-76716186D01*
X157854439Y-76671113D01*
X157866510Y-76631320D01*
X157886115Y-76594642D01*
X157912497Y-76562497D01*
X157944642Y-76536115D01*
X157981320Y-76516510D01*
X158021113Y-76504439D01*
X158066186Y-76500000D01*
X159533814Y-76500000D01*
X159578887Y-76504439D01*
G37*
G36*
X137578887Y-76504439D02*
G01*
X137618680Y-76516510D01*
X137655358Y-76536115D01*
X137687503Y-76562497D01*
X137713885Y-76594642D01*
X137733490Y-76631320D01*
X137745561Y-76671113D01*
X137750000Y-76716186D01*
X137750000Y-77283814D01*
X137745561Y-77328887D01*
X137733490Y-77368680D01*
X137713885Y-77405358D01*
X137687503Y-77437503D01*
X137655358Y-77463885D01*
X137618680Y-77483490D01*
X137578887Y-77495561D01*
X137533814Y-77500000D01*
X136066186Y-77500000D01*
X136021113Y-77495561D01*
X135981320Y-77483490D01*
X135944642Y-77463885D01*
X135912497Y-77437503D01*
X135886115Y-77405358D01*
X135866510Y-77368680D01*
X135854439Y-77328887D01*
X135850000Y-77283814D01*
X135850000Y-76716186D01*
X135854439Y-76671113D01*
X135866510Y-76631320D01*
X135886115Y-76594642D01*
X135912497Y-76562497D01*
X135944642Y-76536115D01*
X135981320Y-76516510D01*
X136021113Y-76504439D01*
X136066186Y-76500000D01*
X137533814Y-76500000D01*
X137578887Y-76504439D01*
G37*
G36*
X149049012Y-74078959D02*
G01*
X149084112Y-74089607D01*
X149116469Y-74106902D01*
X149144826Y-74130174D01*
X149168098Y-74158531D01*
X149185393Y-74190888D01*
X149196041Y-74225988D01*
X149200000Y-74266186D01*
X149200000Y-75333814D01*
X149196041Y-75374012D01*
X149185393Y-75409112D01*
X149168098Y-75441469D01*
X149144826Y-75469826D01*
X149116469Y-75493098D01*
X149084112Y-75510393D01*
X149049012Y-75521041D01*
X149008814Y-75525000D01*
X148491186Y-75525000D01*
X148450988Y-75521041D01*
X148415888Y-75510393D01*
X148383531Y-75493098D01*
X148355174Y-75469826D01*
X148331902Y-75441469D01*
X148314607Y-75409112D01*
X148303959Y-75374012D01*
X148300000Y-75333814D01*
X148300000Y-74266186D01*
X148303959Y-74225988D01*
X148314607Y-74190888D01*
X148331902Y-74158531D01*
X148355174Y-74130174D01*
X148383531Y-74106902D01*
X148415888Y-74089607D01*
X148450988Y-74078959D01*
X148491186Y-74075000D01*
X149008814Y-74075000D01*
X149049012Y-74078959D01*
G37*
G36*
X154823700Y-74005160D02*
G01*
X154870536Y-74019367D01*
X154913689Y-74042433D01*
X154951520Y-74073480D01*
X154982567Y-74111311D01*
X155005633Y-74154464D01*
X155019840Y-74201300D01*
X155025000Y-74253686D01*
X155025000Y-75246314D01*
X155019840Y-75298700D01*
X155005633Y-75345536D01*
X154982567Y-75388689D01*
X154951520Y-75426520D01*
X154913689Y-75457567D01*
X154870536Y-75480633D01*
X154823700Y-75494840D01*
X154771314Y-75500000D01*
X154128686Y-75500000D01*
X154076300Y-75494840D01*
X154029464Y-75480633D01*
X153986311Y-75457567D01*
X153948480Y-75426520D01*
X153917433Y-75388689D01*
X153894367Y-75345536D01*
X153880160Y-75298700D01*
X153875000Y-75246314D01*
X153875000Y-74253686D01*
X153880160Y-74201300D01*
X153894367Y-74154464D01*
X153917433Y-74111311D01*
X153948480Y-74073480D01*
X153986311Y-74042433D01*
X154029464Y-74019367D01*
X154076300Y-74005160D01*
X154128686Y-74000000D01*
X154771314Y-74000000D01*
X154823700Y-74005160D01*
G37*
G36*
X153123700Y-74005160D02*
G01*
X153170536Y-74019367D01*
X153213689Y-74042433D01*
X153251520Y-74073480D01*
X153282567Y-74111311D01*
X153305633Y-74154464D01*
X153319840Y-74201300D01*
X153325000Y-74253686D01*
X153325000Y-75246314D01*
X153319840Y-75298700D01*
X153305633Y-75345536D01*
X153282567Y-75388689D01*
X153251520Y-75426520D01*
X153213689Y-75457567D01*
X153170536Y-75480633D01*
X153123700Y-75494840D01*
X153071314Y-75500000D01*
X152428686Y-75500000D01*
X152376300Y-75494840D01*
X152329464Y-75480633D01*
X152286311Y-75457567D01*
X152248480Y-75426520D01*
X152217433Y-75388689D01*
X152194367Y-75345536D01*
X152180160Y-75298700D01*
X152175000Y-75246314D01*
X152175000Y-74253686D01*
X152180160Y-74201300D01*
X152194367Y-74154464D01*
X152217433Y-74111311D01*
X152248480Y-74073480D01*
X152286311Y-74042433D01*
X152329464Y-74019367D01*
X152376300Y-74005160D01*
X152428686Y-74000000D01*
X153071314Y-74000000D01*
X153123700Y-74005160D01*
G37*
G36*
X162978887Y-74504439D02*
G01*
X163018680Y-74516510D01*
X163055358Y-74536115D01*
X163087503Y-74562497D01*
X163113885Y-74594642D01*
X163133490Y-74631320D01*
X163145561Y-74671113D01*
X163150000Y-74716186D01*
X163150000Y-75283814D01*
X163145561Y-75328887D01*
X163133490Y-75368680D01*
X163113885Y-75405358D01*
X163087503Y-75437503D01*
X163055358Y-75463885D01*
X163018680Y-75483490D01*
X162978887Y-75495561D01*
X162933814Y-75500000D01*
X161466186Y-75500000D01*
X161421113Y-75495561D01*
X161381320Y-75483490D01*
X161344642Y-75463885D01*
X161312497Y-75437503D01*
X161286115Y-75405358D01*
X161266510Y-75368680D01*
X161254439Y-75328887D01*
X161250000Y-75283814D01*
X161250000Y-74716186D01*
X161254439Y-74671113D01*
X161266510Y-74631320D01*
X161286115Y-74594642D01*
X161312497Y-74562497D01*
X161344642Y-74536115D01*
X161381320Y-74516510D01*
X161421113Y-74504439D01*
X161466186Y-74500000D01*
X162933814Y-74500000D01*
X162978887Y-74504439D01*
G37*
G36*
X140978887Y-74504439D02*
G01*
X141018680Y-74516510D01*
X141055358Y-74536115D01*
X141087503Y-74562497D01*
X141113885Y-74594642D01*
X141133490Y-74631320D01*
X141145561Y-74671113D01*
X141150000Y-74716186D01*
X141150000Y-75283814D01*
X141145561Y-75328887D01*
X141133490Y-75368680D01*
X141113885Y-75405358D01*
X141087503Y-75437503D01*
X141055358Y-75463885D01*
X141018680Y-75483490D01*
X140978887Y-75495561D01*
X140933814Y-75500000D01*
X139466186Y-75500000D01*
X139421113Y-75495561D01*
X139381320Y-75483490D01*
X139344642Y-75463885D01*
X139312497Y-75437503D01*
X139286115Y-75405358D01*
X139266510Y-75368680D01*
X139254439Y-75328887D01*
X139250000Y-75283814D01*
X139250000Y-74716186D01*
X139254439Y-74671113D01*
X139266510Y-74631320D01*
X139286115Y-74594642D01*
X139312497Y-74562497D01*
X139344642Y-74536115D01*
X139381320Y-74516510D01*
X139421113Y-74504439D01*
X139466186Y-74500000D01*
X140933814Y-74500000D01*
X140978887Y-74504439D01*
G37*
G36*
X159578887Y-72504439D02*
G01*
X159618680Y-72516510D01*
X159655358Y-72536115D01*
X159687503Y-72562497D01*
X159713885Y-72594642D01*
X159733490Y-72631320D01*
X159745561Y-72671113D01*
X159750000Y-72716186D01*
X159750000Y-73283814D01*
X159745561Y-73328887D01*
X159733490Y-73368680D01*
X159713885Y-73405358D01*
X159687503Y-73437503D01*
X159655358Y-73463885D01*
X159618680Y-73483490D01*
X159578887Y-73495561D01*
X159533814Y-73500000D01*
X158066186Y-73500000D01*
X158021113Y-73495561D01*
X157981320Y-73483490D01*
X157944642Y-73463885D01*
X157912497Y-73437503D01*
X157886115Y-73405358D01*
X157866510Y-73368680D01*
X157854439Y-73328887D01*
X157850000Y-73283814D01*
X157850000Y-72716186D01*
X157854439Y-72671113D01*
X157866510Y-72631320D01*
X157886115Y-72594642D01*
X157912497Y-72562497D01*
X157944642Y-72536115D01*
X157981320Y-72516510D01*
X158021113Y-72504439D01*
X158066186Y-72500000D01*
X159533814Y-72500000D01*
X159578887Y-72504439D01*
G37*
G36*
X137578887Y-72504439D02*
G01*
X137618680Y-72516510D01*
X137655358Y-72536115D01*
X137687503Y-72562497D01*
X137713885Y-72594642D01*
X137733490Y-72631320D01*
X137745561Y-72671113D01*
X137750000Y-72716186D01*
X137750000Y-73283814D01*
X137745561Y-73328887D01*
X137733490Y-73368680D01*
X137713885Y-73405358D01*
X137687503Y-73437503D01*
X137655358Y-73463885D01*
X137618680Y-73483490D01*
X137578887Y-73495561D01*
X137533814Y-73500000D01*
X136066186Y-73500000D01*
X136021113Y-73495561D01*
X135981320Y-73483490D01*
X135944642Y-73463885D01*
X135912497Y-73437503D01*
X135886115Y-73405358D01*
X135866510Y-73368680D01*
X135854439Y-73328887D01*
X135850000Y-73283814D01*
X135850000Y-72716186D01*
X135854439Y-72671113D01*
X135866510Y-72631320D01*
X135886115Y-72594642D01*
X135912497Y-72562497D01*
X135944642Y-72536115D01*
X135981320Y-72516510D01*
X136021113Y-72504439D01*
X136066186Y-72500000D01*
X137533814Y-72500000D01*
X137578887Y-72504439D01*
G37*
G36*
X149188393Y-71466361D02*
G01*
X149246951Y-71484124D01*
X149300914Y-71512967D01*
X149348214Y-71551786D01*
X149387033Y-71599086D01*
X149415876Y-71653049D01*
X149433639Y-71711607D01*
X149440000Y-71776187D01*
X149440000Y-72643813D01*
X149433639Y-72708393D01*
X149415876Y-72766951D01*
X149387033Y-72820914D01*
X149348214Y-72868214D01*
X149300914Y-72907033D01*
X149246951Y-72935876D01*
X149188393Y-72953639D01*
X149123813Y-72960000D01*
X148356187Y-72960000D01*
X148291607Y-72953639D01*
X148233049Y-72935876D01*
X148179086Y-72907033D01*
X148131786Y-72868214D01*
X148092967Y-72820914D01*
X148064124Y-72766951D01*
X148046361Y-72708393D01*
X148040000Y-72643813D01*
X148040000Y-71776187D01*
X148046361Y-71711607D01*
X148064124Y-71653049D01*
X148092967Y-71599086D01*
X148131786Y-71551786D01*
X148179086Y-71512967D01*
X148233049Y-71484124D01*
X148291607Y-71466361D01*
X148356187Y-71460000D01*
X149123813Y-71460000D01*
X149188393Y-71466361D01*
G37*
G36*
X154888393Y-71416361D02*
G01*
X154946951Y-71434124D01*
X155000914Y-71462967D01*
X155048214Y-71501786D01*
X155087033Y-71549086D01*
X155115876Y-71603049D01*
X155133639Y-71661607D01*
X155140000Y-71726187D01*
X155140000Y-72593813D01*
X155133639Y-72658393D01*
X155115876Y-72716951D01*
X155087033Y-72770914D01*
X155048214Y-72818214D01*
X155000914Y-72857033D01*
X154946951Y-72885876D01*
X154888393Y-72903639D01*
X154823813Y-72910000D01*
X154056187Y-72910000D01*
X153991607Y-72903639D01*
X153933049Y-72885876D01*
X153879086Y-72857033D01*
X153831786Y-72818214D01*
X153792967Y-72770914D01*
X153764124Y-72716951D01*
X153746361Y-72658393D01*
X153741497Y-72609010D01*
X153738629Y-72594590D01*
X153733002Y-72581007D01*
X153724834Y-72568782D01*
X153714438Y-72558386D01*
X153702213Y-72550218D01*
X153688630Y-72544591D01*
X153674210Y-72541723D01*
X153659508Y-72541723D01*
X153645088Y-72544591D01*
X153631505Y-72550218D01*
X153619280Y-72558386D01*
X153608884Y-72568782D01*
X153600716Y-72581007D01*
X153595090Y-72594589D01*
X153582538Y-72635965D01*
X153561780Y-72674801D01*
X153533842Y-72708842D01*
X153499801Y-72736780D01*
X153460964Y-72757539D01*
X153418828Y-72770321D01*
X153371315Y-72775000D01*
X152728685Y-72775000D01*
X152681172Y-72770321D01*
X152639036Y-72757539D01*
X152600199Y-72736780D01*
X152566158Y-72708842D01*
X152538220Y-72674801D01*
X152517461Y-72635964D01*
X152504679Y-72593828D01*
X152500000Y-72546315D01*
X152500000Y-71953685D01*
X152504679Y-71906172D01*
X152517461Y-71864036D01*
X152538220Y-71825199D01*
X152566158Y-71791158D01*
X152600199Y-71763220D01*
X152639036Y-71742461D01*
X152681172Y-71729679D01*
X152728685Y-71725000D01*
X153371315Y-71725000D01*
X153418828Y-71729679D01*
X153460964Y-71742461D01*
X153499801Y-71763220D01*
X153533842Y-71791158D01*
X153561780Y-71825199D01*
X153582536Y-71864031D01*
X153593231Y-71899287D01*
X153598858Y-71912870D01*
X153607026Y-71925095D01*
X153617422Y-71935491D01*
X153629647Y-71943659D01*
X153643230Y-71949286D01*
X153657650Y-71952154D01*
X153672352Y-71952154D01*
X153686772Y-71949286D01*
X153700355Y-71943659D01*
X153712580Y-71935491D01*
X153722976Y-71925095D01*
X153731144Y-71912870D01*
X153736771Y-71899287D01*
X153740000Y-71877516D01*
X153740000Y-71726187D01*
X153746361Y-71661607D01*
X153764124Y-71603049D01*
X153792967Y-71549086D01*
X153831786Y-71501786D01*
X153879086Y-71462967D01*
X153933049Y-71434124D01*
X153991607Y-71416361D01*
X154056187Y-71410000D01*
X154823813Y-71410000D01*
X154888393Y-71416361D01*
G37*
G36*
X162978887Y-70504439D02*
G01*
X163018680Y-70516510D01*
X163055358Y-70536115D01*
X163087503Y-70562497D01*
X163113885Y-70594642D01*
X163133490Y-70631320D01*
X163145561Y-70671113D01*
X163150000Y-70716186D01*
X163150000Y-71283814D01*
X163145561Y-71328887D01*
X163133490Y-71368680D01*
X163113885Y-71405358D01*
X163087503Y-71437503D01*
X163055358Y-71463885D01*
X163018680Y-71483490D01*
X162978887Y-71495561D01*
X162933814Y-71500000D01*
X161466186Y-71500000D01*
X161421113Y-71495561D01*
X161381320Y-71483490D01*
X161344642Y-71463885D01*
X161312497Y-71437503D01*
X161286115Y-71405358D01*
X161266510Y-71368680D01*
X161254439Y-71328887D01*
X161250000Y-71283814D01*
X161250000Y-70716186D01*
X161254439Y-70671113D01*
X161266510Y-70631320D01*
X161286115Y-70594642D01*
X161312497Y-70562497D01*
X161344642Y-70536115D01*
X161381320Y-70516510D01*
X161421113Y-70504439D01*
X161466186Y-70500000D01*
X162933814Y-70500000D01*
X162978887Y-70504439D01*
G37*
G36*
X140978887Y-70504439D02*
G01*
X141018680Y-70516510D01*
X141055358Y-70536115D01*
X141087503Y-70562497D01*
X141113885Y-70594642D01*
X141133490Y-70631320D01*
X141145561Y-70671113D01*
X141150000Y-70716186D01*
X141150000Y-71283814D01*
X141145561Y-71328887D01*
X141133490Y-71368680D01*
X141113885Y-71405358D01*
X141087503Y-71437503D01*
X141055358Y-71463885D01*
X141018680Y-71483490D01*
X140978887Y-71495561D01*
X140933814Y-71500000D01*
X139466186Y-71500000D01*
X139421113Y-71495561D01*
X139381320Y-71483490D01*
X139344642Y-71463885D01*
X139312497Y-71437503D01*
X139286115Y-71405358D01*
X139266510Y-71368680D01*
X139254439Y-71328887D01*
X139250000Y-71283814D01*
X139250000Y-70716186D01*
X139254439Y-70671113D01*
X139266510Y-70631320D01*
X139286115Y-70594642D01*
X139312497Y-70562497D01*
X139344642Y-70536115D01*
X139381320Y-70516510D01*
X139421113Y-70504439D01*
X139466186Y-70500000D01*
X140933814Y-70500000D01*
X140978887Y-70504439D01*
G37*
G36*
X159578887Y-68504439D02*
G01*
X159618680Y-68516510D01*
X159655358Y-68536115D01*
X159687503Y-68562497D01*
X159713885Y-68594642D01*
X159733490Y-68631320D01*
X159745561Y-68671113D01*
X159750000Y-68716186D01*
X159750000Y-69283814D01*
X159745561Y-69328887D01*
X159733490Y-69368680D01*
X159713885Y-69405358D01*
X159687503Y-69437503D01*
X159655358Y-69463885D01*
X159618680Y-69483490D01*
X159578887Y-69495561D01*
X159533814Y-69500000D01*
X158066186Y-69500000D01*
X158021113Y-69495561D01*
X157981320Y-69483490D01*
X157944642Y-69463885D01*
X157912497Y-69437503D01*
X157886115Y-69405358D01*
X157866510Y-69368680D01*
X157854439Y-69328887D01*
X157850000Y-69283814D01*
X157850000Y-68716186D01*
X157854439Y-68671113D01*
X157866510Y-68631320D01*
X157886115Y-68594642D01*
X157912497Y-68562497D01*
X157944642Y-68536115D01*
X157981320Y-68516510D01*
X158021113Y-68504439D01*
X158066186Y-68500000D01*
X159533814Y-68500000D01*
X159578887Y-68504439D01*
G37*
G36*
X137578887Y-68504439D02*
G01*
X137618680Y-68516510D01*
X137655358Y-68536115D01*
X137687503Y-68562497D01*
X137713885Y-68594642D01*
X137733490Y-68631320D01*
X137745561Y-68671113D01*
X137750000Y-68716186D01*
X137750000Y-69283814D01*
X137745561Y-69328887D01*
X137733490Y-69368680D01*
X137713885Y-69405358D01*
X137687503Y-69437503D01*
X137655358Y-69463885D01*
X137618680Y-69483490D01*
X137578887Y-69495561D01*
X137533814Y-69500000D01*
X136066186Y-69500000D01*
X136021113Y-69495561D01*
X135981320Y-69483490D01*
X135944642Y-69463885D01*
X135912497Y-69437503D01*
X135886115Y-69405358D01*
X135866510Y-69368680D01*
X135854439Y-69328887D01*
X135850000Y-69283814D01*
X135850000Y-68716186D01*
X135854439Y-68671113D01*
X135866510Y-68631320D01*
X135886115Y-68594642D01*
X135912497Y-68562497D01*
X135944642Y-68536115D01*
X135981320Y-68516510D01*
X136021113Y-68504439D01*
X136066186Y-68500000D01*
X137533814Y-68500000D01*
X137578887Y-68504439D01*
G37*
G36*
X162978887Y-66504439D02*
G01*
X163018680Y-66516510D01*
X163055358Y-66536115D01*
X163087503Y-66562497D01*
X163113885Y-66594642D01*
X163133490Y-66631320D01*
X163145561Y-66671113D01*
X163150000Y-66716186D01*
X163150000Y-67283814D01*
X163145561Y-67328887D01*
X163133490Y-67368680D01*
X163113885Y-67405358D01*
X163087503Y-67437503D01*
X163055358Y-67463885D01*
X163018680Y-67483490D01*
X162978887Y-67495561D01*
X162933814Y-67500000D01*
X161466186Y-67500000D01*
X161421113Y-67495561D01*
X161381320Y-67483490D01*
X161344642Y-67463885D01*
X161312497Y-67437503D01*
X161286115Y-67405358D01*
X161266510Y-67368680D01*
X161254439Y-67328887D01*
X161250000Y-67283814D01*
X161250000Y-66716186D01*
X161254439Y-66671113D01*
X161266510Y-66631320D01*
X161286115Y-66594642D01*
X161312497Y-66562497D01*
X161344642Y-66536115D01*
X161381320Y-66516510D01*
X161421113Y-66504439D01*
X161466186Y-66500000D01*
X162933814Y-66500000D01*
X162978887Y-66504439D01*
G37*
G36*
X140978887Y-66504439D02*
G01*
X141018680Y-66516510D01*
X141055358Y-66536115D01*
X141087503Y-66562497D01*
X141113885Y-66594642D01*
X141133490Y-66631320D01*
X141145561Y-66671113D01*
X141150000Y-66716186D01*
X141150000Y-67283814D01*
X141145561Y-67328887D01*
X141133490Y-67368680D01*
X141113885Y-67405358D01*
X141087503Y-67437503D01*
X141055358Y-67463885D01*
X141018680Y-67483490D01*
X140978887Y-67495561D01*
X140933814Y-67500000D01*
X139466186Y-67500000D01*
X139421113Y-67495561D01*
X139381320Y-67483490D01*
X139344642Y-67463885D01*
X139312497Y-67437503D01*
X139286115Y-67405358D01*
X139266510Y-67368680D01*
X139254439Y-67328887D01*
X139250000Y-67283814D01*
X139250000Y-66716186D01*
X139254439Y-66671113D01*
X139266510Y-66631320D01*
X139286115Y-66594642D01*
X139312497Y-66562497D01*
X139344642Y-66536115D01*
X139381320Y-66516510D01*
X139421113Y-66504439D01*
X139466186Y-66500000D01*
X140933814Y-66500000D01*
X140978887Y-66504439D01*
G37*
G36*
X159578887Y-64504439D02*
G01*
X159618680Y-64516510D01*
X159655358Y-64536115D01*
X159687503Y-64562497D01*
X159713885Y-64594642D01*
X159733490Y-64631320D01*
X159745561Y-64671113D01*
X159750000Y-64716186D01*
X159750000Y-65283814D01*
X159745561Y-65328887D01*
X159733490Y-65368680D01*
X159713885Y-65405358D01*
X159687503Y-65437503D01*
X159655358Y-65463885D01*
X159618680Y-65483490D01*
X159578887Y-65495561D01*
X159533814Y-65500000D01*
X158066186Y-65500000D01*
X158021113Y-65495561D01*
X157981320Y-65483490D01*
X157944642Y-65463885D01*
X157912497Y-65437503D01*
X157886115Y-65405358D01*
X157866510Y-65368680D01*
X157854439Y-65328887D01*
X157850000Y-65283814D01*
X157850000Y-64716186D01*
X157854439Y-64671113D01*
X157866510Y-64631320D01*
X157886115Y-64594642D01*
X157912497Y-64562497D01*
X157944642Y-64536115D01*
X157981320Y-64516510D01*
X158021113Y-64504439D01*
X158066186Y-64500000D01*
X159533814Y-64500000D01*
X159578887Y-64504439D01*
G37*
G36*
X137578887Y-64504439D02*
G01*
X137618680Y-64516510D01*
X137655358Y-64536115D01*
X137687503Y-64562497D01*
X137713885Y-64594642D01*
X137733490Y-64631320D01*
X137745561Y-64671113D01*
X137750000Y-64716186D01*
X137750000Y-65283814D01*
X137745561Y-65328887D01*
X137733490Y-65368680D01*
X137713885Y-65405358D01*
X137687503Y-65437503D01*
X137655358Y-65463885D01*
X137618680Y-65483490D01*
X137578887Y-65495561D01*
X137533814Y-65500000D01*
X136066186Y-65500000D01*
X136021113Y-65495561D01*
X135981320Y-65483490D01*
X135944642Y-65463885D01*
X135912497Y-65437503D01*
X135886115Y-65405358D01*
X135866510Y-65368680D01*
X135854439Y-65328887D01*
X135850000Y-65283814D01*
X135850000Y-64716186D01*
X135854439Y-64671113D01*
X135866510Y-64631320D01*
X135886115Y-64594642D01*
X135912497Y-64562497D01*
X135944642Y-64536115D01*
X135981320Y-64516510D01*
X136021113Y-64504439D01*
X136066186Y-64500000D01*
X137533814Y-64500000D01*
X137578887Y-64504439D01*
G37*
G36*
X162978887Y-62504439D02*
G01*
X163018680Y-62516510D01*
X163055358Y-62536115D01*
X163087503Y-62562497D01*
X163113885Y-62594642D01*
X163133490Y-62631320D01*
X163145561Y-62671113D01*
X163150000Y-62716186D01*
X163150000Y-63283814D01*
X163145561Y-63328887D01*
X163133490Y-63368680D01*
X163113885Y-63405358D01*
X163087503Y-63437503D01*
X163055358Y-63463885D01*
X163018680Y-63483490D01*
X162978887Y-63495561D01*
X162933814Y-63500000D01*
X161466186Y-63500000D01*
X161421113Y-63495561D01*
X161381320Y-63483490D01*
X161344642Y-63463885D01*
X161312497Y-63437503D01*
X161286115Y-63405358D01*
X161266510Y-63368680D01*
X161254439Y-63328887D01*
X161250000Y-63283814D01*
X161250000Y-62716186D01*
X161254439Y-62671113D01*
X161266510Y-62631320D01*
X161286115Y-62594642D01*
X161312497Y-62562497D01*
X161344642Y-62536115D01*
X161381320Y-62516510D01*
X161421113Y-62504439D01*
X161466186Y-62500000D01*
X162933814Y-62500000D01*
X162978887Y-62504439D01*
G37*
G36*
X140978887Y-62504439D02*
G01*
X141018680Y-62516510D01*
X141055358Y-62536115D01*
X141087503Y-62562497D01*
X141113885Y-62594642D01*
X141133490Y-62631320D01*
X141145561Y-62671113D01*
X141150000Y-62716186D01*
X141150000Y-63283814D01*
X141145561Y-63328887D01*
X141133490Y-63368680D01*
X141113885Y-63405358D01*
X141087503Y-63437503D01*
X141055358Y-63463885D01*
X141018680Y-63483490D01*
X140978887Y-63495561D01*
X140933814Y-63500000D01*
X139466186Y-63500000D01*
X139421113Y-63495561D01*
X139381320Y-63483490D01*
X139344642Y-63463885D01*
X139312497Y-63437503D01*
X139286115Y-63405358D01*
X139266510Y-63368680D01*
X139254439Y-63328887D01*
X139250000Y-63283814D01*
X139250000Y-62716186D01*
X139254439Y-62671113D01*
X139266510Y-62631320D01*
X139286115Y-62594642D01*
X139312497Y-62562497D01*
X139344642Y-62536115D01*
X139381320Y-62516510D01*
X139421113Y-62504439D01*
X139466186Y-62500000D01*
X140933814Y-62500000D01*
X140978887Y-62504439D01*
G37*
G36*
X148949012Y-60903959D02*
G01*
X148984112Y-60914607D01*
X149016469Y-60931902D01*
X149044826Y-60955174D01*
X149068098Y-60983531D01*
X149085393Y-61015888D01*
X149096041Y-61050988D01*
X149100000Y-61091186D01*
X149100000Y-62308814D01*
X149096041Y-62349012D01*
X149085393Y-62384112D01*
X149068098Y-62416469D01*
X149044826Y-62444826D01*
X149016469Y-62468098D01*
X148984112Y-62485393D01*
X148949012Y-62496041D01*
X148908814Y-62500000D01*
X148391186Y-62500000D01*
X148350988Y-62496041D01*
X148315888Y-62485393D01*
X148283531Y-62468098D01*
X148255174Y-62444826D01*
X148231902Y-62416469D01*
X148214607Y-62384112D01*
X148203959Y-62349012D01*
X148200000Y-62308814D01*
X148200000Y-61091186D01*
X148203959Y-61050988D01*
X148214607Y-61015888D01*
X148231902Y-60983531D01*
X148255174Y-60955174D01*
X148283531Y-60931902D01*
X148315888Y-60914607D01*
X148350988Y-60903959D01*
X148391186Y-60900000D01*
X148908814Y-60900000D01*
X148949012Y-60903959D01*
G37*
G36*
X155549012Y-60503959D02*
G01*
X155584112Y-60514607D01*
X155616469Y-60531902D01*
X155644826Y-60555174D01*
X155668098Y-60583531D01*
X155685393Y-60615888D01*
X155696041Y-60650988D01*
X155700000Y-60691186D01*
X155700000Y-61908814D01*
X155696041Y-61949012D01*
X155685393Y-61984112D01*
X155668098Y-62016469D01*
X155644826Y-62044826D01*
X155616469Y-62068098D01*
X155584112Y-62085393D01*
X155549012Y-62096041D01*
X155508814Y-62100000D01*
X154991186Y-62100000D01*
X154950988Y-62096041D01*
X154915888Y-62085393D01*
X154883531Y-62068098D01*
X154855174Y-62044826D01*
X154831902Y-62016469D01*
X154814607Y-61984112D01*
X154803959Y-61949012D01*
X154800000Y-61908814D01*
X154800000Y-60691186D01*
X154803959Y-60650988D01*
X154814607Y-60615888D01*
X154831902Y-60583531D01*
X154855174Y-60555174D01*
X154883531Y-60531902D01*
X154915888Y-60514607D01*
X154950988Y-60503959D01*
X154991186Y-60500000D01*
X155508814Y-60500000D01*
X155549012Y-60503959D01*
G37*
G36*
X154449012Y-60503959D02*
G01*
X154484112Y-60514607D01*
X154516469Y-60531902D01*
X154544826Y-60555174D01*
X154568098Y-60583531D01*
X154585393Y-60615888D01*
X154596041Y-60650988D01*
X154600000Y-60691186D01*
X154600000Y-61908814D01*
X154596041Y-61949012D01*
X154585393Y-61984112D01*
X154568098Y-62016469D01*
X154544826Y-62044826D01*
X154516469Y-62068098D01*
X154484112Y-62085393D01*
X154449012Y-62096041D01*
X154408814Y-62100000D01*
X153891186Y-62100000D01*
X153850988Y-62096041D01*
X153815888Y-62085393D01*
X153783531Y-62068098D01*
X153755174Y-62044826D01*
X153731902Y-62016469D01*
X153714607Y-61984112D01*
X153703959Y-61949012D01*
X153700000Y-61908814D01*
X153700000Y-60691186D01*
X153703959Y-60650988D01*
X153714607Y-60615888D01*
X153731902Y-60583531D01*
X153755174Y-60555174D01*
X153783531Y-60531902D01*
X153815888Y-60514607D01*
X153850988Y-60503959D01*
X153891186Y-60500000D01*
X154408814Y-60500000D01*
X154449012Y-60503959D01*
G37*
G36*
X152249012Y-60503959D02*
G01*
X152284112Y-60514607D01*
X152316469Y-60531902D01*
X152344826Y-60555174D01*
X152368098Y-60583531D01*
X152385393Y-60615888D01*
X152396041Y-60650988D01*
X152400000Y-60691186D01*
X152400000Y-61908814D01*
X152396041Y-61949012D01*
X152385393Y-61984112D01*
X152368098Y-62016469D01*
X152344826Y-62044826D01*
X152316469Y-62068098D01*
X152284112Y-62085393D01*
X152249012Y-62096041D01*
X152208814Y-62100000D01*
X151691186Y-62100000D01*
X151650988Y-62096041D01*
X151615888Y-62085393D01*
X151583531Y-62068098D01*
X151555174Y-62044826D01*
X151531902Y-62016469D01*
X151514607Y-61984112D01*
X151503959Y-61949012D01*
X151500000Y-61908814D01*
X151500000Y-60691186D01*
X151503959Y-60650988D01*
X151514607Y-60615888D01*
X151531902Y-60583531D01*
X151555174Y-60555174D01*
X151583531Y-60531902D01*
X151615888Y-60514607D01*
X151650988Y-60503959D01*
X151691186Y-60500000D01*
X152208814Y-60500000D01*
X152249012Y-60503959D01*
G37*
G36*
X150049012Y-60503959D02*
G01*
X150084112Y-60514607D01*
X150116469Y-60531902D01*
X150144826Y-60555174D01*
X150168098Y-60583531D01*
X150185393Y-60615888D01*
X150196041Y-60650988D01*
X150200000Y-60691186D01*
X150200000Y-61908814D01*
X150196041Y-61949012D01*
X150185393Y-61984112D01*
X150168098Y-62016469D01*
X150144826Y-62044826D01*
X150116469Y-62068098D01*
X150084112Y-62085393D01*
X150049012Y-62096041D01*
X150008814Y-62100000D01*
X149491186Y-62100000D01*
X149450988Y-62096041D01*
X149415888Y-62085393D01*
X149383531Y-62068098D01*
X149355174Y-62044826D01*
X149331902Y-62016469D01*
X149314607Y-61984112D01*
X149303959Y-61949012D01*
X149300000Y-61908814D01*
X149300000Y-60691186D01*
X149303959Y-60650988D01*
X149314607Y-60615888D01*
X149331902Y-60583531D01*
X149355174Y-60555174D01*
X149383531Y-60531902D01*
X149415888Y-60514607D01*
X149450988Y-60503959D01*
X149491186Y-60500000D01*
X150008814Y-60500000D01*
X150049012Y-60503959D01*
G37*
G36*
X147849012Y-60503959D02*
G01*
X147884112Y-60514607D01*
X147916469Y-60531902D01*
X147944826Y-60555174D01*
X147968098Y-60583531D01*
X147985393Y-60615888D01*
X147996041Y-60650988D01*
X148000000Y-60691186D01*
X148000000Y-61908814D01*
X147996041Y-61949012D01*
X147985393Y-61984112D01*
X147968098Y-62016469D01*
X147944826Y-62044826D01*
X147916469Y-62068098D01*
X147884112Y-62085393D01*
X147849012Y-62096041D01*
X147808814Y-62100000D01*
X147291186Y-62100000D01*
X147250988Y-62096041D01*
X147215888Y-62085393D01*
X147183531Y-62068098D01*
X147155174Y-62044826D01*
X147131902Y-62016469D01*
X147114607Y-61984112D01*
X147103959Y-61949012D01*
X147100000Y-61908814D01*
X147100000Y-60691186D01*
X147103959Y-60650988D01*
X147114607Y-60615888D01*
X147131902Y-60583531D01*
X147155174Y-60555174D01*
X147183531Y-60531902D01*
X147215888Y-60514607D01*
X147250988Y-60503959D01*
X147291186Y-60500000D01*
X147808814Y-60500000D01*
X147849012Y-60503959D01*
G37*
G36*
X153349012Y-60303959D02*
G01*
X153384112Y-60314607D01*
X153416469Y-60331902D01*
X153444826Y-60355174D01*
X153468098Y-60383531D01*
X153485393Y-60415888D01*
X153496041Y-60450988D01*
X153500000Y-60491186D01*
X153500000Y-61708814D01*
X153496041Y-61749012D01*
X153485393Y-61784112D01*
X153468098Y-61816469D01*
X153444826Y-61844826D01*
X153416469Y-61868098D01*
X153384112Y-61885393D01*
X153349012Y-61896041D01*
X153308814Y-61900000D01*
X152791186Y-61900000D01*
X152750988Y-61896041D01*
X152715888Y-61885393D01*
X152683531Y-61868098D01*
X152655174Y-61844826D01*
X152631902Y-61816469D01*
X152614607Y-61784112D01*
X152603959Y-61749012D01*
X152600000Y-61708814D01*
X152600000Y-60491186D01*
X152603959Y-60450988D01*
X152614607Y-60415888D01*
X152631902Y-60383531D01*
X152655174Y-60355174D01*
X152683531Y-60331902D01*
X152715888Y-60314607D01*
X152750988Y-60303959D01*
X152791186Y-60300000D01*
X153308814Y-60300000D01*
X153349012Y-60303959D01*
G37*
G36*
X151149012Y-60303959D02*
G01*
X151184112Y-60314607D01*
X151216469Y-60331902D01*
X151244826Y-60355174D01*
X151268098Y-60383531D01*
X151285393Y-60415888D01*
X151296041Y-60450988D01*
X151300000Y-60491186D01*
X151300000Y-61708814D01*
X151296041Y-61749012D01*
X151285393Y-61784112D01*
X151268098Y-61816469D01*
X151244826Y-61844826D01*
X151216469Y-61868098D01*
X151184112Y-61885393D01*
X151149012Y-61896041D01*
X151108814Y-61900000D01*
X150591186Y-61900000D01*
X150550988Y-61896041D01*
X150515888Y-61885393D01*
X150483531Y-61868098D01*
X150455174Y-61844826D01*
X150431902Y-61816469D01*
X150414607Y-61784112D01*
X150403959Y-61749012D01*
X150400000Y-61708814D01*
X150400000Y-60491186D01*
X150403959Y-60450988D01*
X150414607Y-60415888D01*
X150431902Y-60383531D01*
X150455174Y-60355174D01*
X150483531Y-60331902D01*
X150515888Y-60314607D01*
X150550988Y-60303959D01*
X150591186Y-60300000D01*
X151108814Y-60300000D01*
X151149012Y-60303959D01*
G37*
G36*
X159578887Y-60504439D02*
G01*
X159618680Y-60516510D01*
X159655358Y-60536115D01*
X159687503Y-60562497D01*
X159713885Y-60594642D01*
X159733490Y-60631320D01*
X159745561Y-60671113D01*
X159750000Y-60716186D01*
X159750000Y-61283814D01*
X159745561Y-61328887D01*
X159733490Y-61368680D01*
X159713885Y-61405358D01*
X159687503Y-61437503D01*
X159655358Y-61463885D01*
X159618680Y-61483490D01*
X159578887Y-61495561D01*
X159533814Y-61500000D01*
X158066186Y-61500000D01*
X158021113Y-61495561D01*
X157981320Y-61483490D01*
X157944642Y-61463885D01*
X157912497Y-61437503D01*
X157886115Y-61405358D01*
X157866510Y-61368680D01*
X157854439Y-61328887D01*
X157850000Y-61283814D01*
X157850000Y-60716186D01*
X157854439Y-60671113D01*
X157866510Y-60631320D01*
X157886115Y-60594642D01*
X157912497Y-60562497D01*
X157944642Y-60536115D01*
X157981320Y-60516510D01*
X158021113Y-60504439D01*
X158066186Y-60500000D01*
X159533814Y-60500000D01*
X159578887Y-60504439D01*
G37*
G36*
X137578887Y-60504439D02*
G01*
X137618680Y-60516510D01*
X137655358Y-60536115D01*
X137687503Y-60562497D01*
X137713885Y-60594642D01*
X137733490Y-60631320D01*
X137745561Y-60671113D01*
X137750000Y-60716186D01*
X137750000Y-61283814D01*
X137745561Y-61328887D01*
X137733490Y-61368680D01*
X137713885Y-61405358D01*
X137687503Y-61437503D01*
X137655358Y-61463885D01*
X137618680Y-61483490D01*
X137578887Y-61495561D01*
X137533814Y-61500000D01*
X136066186Y-61500000D01*
X136021113Y-61495561D01*
X135981320Y-61483490D01*
X135944642Y-61463885D01*
X135912497Y-61437503D01*
X135886115Y-61405358D01*
X135866510Y-61368680D01*
X135854439Y-61328887D01*
X135850000Y-61283814D01*
X135850000Y-60716186D01*
X135854439Y-60671113D01*
X135866510Y-60631320D01*
X135886115Y-60594642D01*
X135912497Y-60562497D01*
X135944642Y-60536115D01*
X135981320Y-60516510D01*
X136021113Y-60504439D01*
X136066186Y-60500000D01*
X137533814Y-60500000D01*
X137578887Y-60504439D01*
G37*
G36*
X156518276Y-58016841D02*
G01*
X156581514Y-58036025D01*
X156639806Y-58067183D01*
X156690892Y-58109108D01*
X156732817Y-58160194D01*
X156763975Y-58218486D01*
X156783159Y-58281724D01*
X156790000Y-58351186D01*
X156790000Y-59668814D01*
X156783159Y-59738276D01*
X156763975Y-59801514D01*
X156732817Y-59859806D01*
X156690892Y-59910892D01*
X156639806Y-59952817D01*
X156581514Y-59983975D01*
X156518276Y-60003159D01*
X156448814Y-60010000D01*
X155631186Y-60010000D01*
X155561724Y-60003159D01*
X155498486Y-59983975D01*
X155440194Y-59952817D01*
X155389108Y-59910892D01*
X155347183Y-59859806D01*
X155316025Y-59801514D01*
X155296841Y-59738276D01*
X155290000Y-59668814D01*
X155290000Y-58351186D01*
X155296841Y-58281724D01*
X155316025Y-58218486D01*
X155347183Y-58160194D01*
X155389108Y-58109108D01*
X155440194Y-58067183D01*
X155498486Y-58036025D01*
X155561724Y-58016841D01*
X155631186Y-58010000D01*
X156448814Y-58010000D01*
X156518276Y-58016841D01*
G37*
G36*
X162978887Y-58504439D02*
G01*
X163018680Y-58516510D01*
X163055358Y-58536115D01*
X163087503Y-58562497D01*
X163113885Y-58594642D01*
X163133490Y-58631320D01*
X163145561Y-58671113D01*
X163150000Y-58716186D01*
X163150000Y-59283814D01*
X163145561Y-59328887D01*
X163133490Y-59368680D01*
X163113885Y-59405358D01*
X163087503Y-59437503D01*
X163055358Y-59463885D01*
X163018680Y-59483490D01*
X162978887Y-59495561D01*
X162933814Y-59500000D01*
X161466186Y-59500000D01*
X161421113Y-59495561D01*
X161381320Y-59483490D01*
X161344642Y-59463885D01*
X161312497Y-59437503D01*
X161286115Y-59405358D01*
X161266510Y-59368680D01*
X161254439Y-59328887D01*
X161250000Y-59283814D01*
X161250000Y-58716186D01*
X161254439Y-58671113D01*
X161266510Y-58631320D01*
X161286115Y-58594642D01*
X161312497Y-58562497D01*
X161344642Y-58536115D01*
X161381320Y-58516510D01*
X161421113Y-58504439D01*
X161466186Y-58500000D01*
X162933814Y-58500000D01*
X162978887Y-58504439D01*
G37*
G36*
X140978887Y-58504439D02*
G01*
X141018680Y-58516510D01*
X141055358Y-58536115D01*
X141087503Y-58562497D01*
X141113885Y-58594642D01*
X141133490Y-58631320D01*
X141145561Y-58671113D01*
X141150000Y-58716186D01*
X141150000Y-59283814D01*
X141145561Y-59328887D01*
X141133490Y-59368680D01*
X141113885Y-59405358D01*
X141087503Y-59437503D01*
X141055358Y-59463885D01*
X141018680Y-59483490D01*
X140978887Y-59495561D01*
X140933814Y-59500000D01*
X139466186Y-59500000D01*
X139421113Y-59495561D01*
X139381320Y-59483490D01*
X139344642Y-59463885D01*
X139312497Y-59437503D01*
X139286115Y-59405358D01*
X139266510Y-59368680D01*
X139254439Y-59328887D01*
X139250000Y-59283814D01*
X139250000Y-58716186D01*
X139254439Y-58671113D01*
X139266510Y-58631320D01*
X139286115Y-58594642D01*
X139312497Y-58562497D01*
X139344642Y-58536115D01*
X139381320Y-58516510D01*
X139421113Y-58504439D01*
X139466186Y-58500000D01*
X140933814Y-58500000D01*
X140978887Y-58504439D01*
G37*
G36*
X143368276Y-57066841D02*
G01*
X143431514Y-57086025D01*
X143489806Y-57117183D01*
X143540892Y-57159108D01*
X143582817Y-57210194D01*
X143613975Y-57268486D01*
X143633159Y-57331724D01*
X143640000Y-57401186D01*
X143640000Y-58718814D01*
X143633159Y-58788276D01*
X143613975Y-58851514D01*
X143582817Y-58909806D01*
X143540892Y-58960892D01*
X143489806Y-59002817D01*
X143431514Y-59033975D01*
X143368276Y-59053159D01*
X143298814Y-59060000D01*
X142481186Y-59060000D01*
X142411724Y-59053159D01*
X142348486Y-59033975D01*
X142290194Y-59002817D01*
X142239108Y-58960892D01*
X142197183Y-58909806D01*
X142166025Y-58851514D01*
X142146841Y-58788276D01*
X142140000Y-58718814D01*
X142140000Y-57401186D01*
X142146841Y-57331724D01*
X142166025Y-57268486D01*
X142197183Y-57210194D01*
X142239108Y-57159108D01*
X142290194Y-57117183D01*
X142348486Y-57086025D01*
X142411724Y-57066841D01*
X142481186Y-57060000D01*
X143298814Y-57060000D01*
X143368276Y-57066841D01*
G37*
M02*
