G04 #@! TF.GenerationSoftware,KiCad,Pcbnew,(5.1.5-0-10_14)*
G04 #@! TF.CreationDate,2020-04-11T19:26:15-04:00*
G04 #@! TF.ProjectId,crazyflie-usd-spi3,6372617a-7966-46c6-9965-2d7573642d73,rev?*
G04 #@! TF.SameCoordinates,Original*
G04 #@! TF.FileFunction,Soldermask,Bot*
G04 #@! TF.FilePolarity,Negative*
%FSLAX46Y46*%
G04 Gerber Fmt 4.6, Leading zero omitted, Abs format (unit mm)*
G04 Created by KiCad (PCBNEW (5.1.5-0-10_14)) date 2020-04-11 19:26:15*
%MOMM*%
%LPD*%
G04 APERTURE LIST*
%ADD10C,0.100000*%
G04 APERTURE END LIST*
D10*
G36*
X160655946Y-76241142D02*
G01*
X160801092Y-76285171D01*
X160934859Y-76356671D01*
X161052106Y-76452894D01*
X161148329Y-76570141D01*
X161219829Y-76703908D01*
X161263858Y-76849054D01*
X161278725Y-77000000D01*
X161263858Y-77150946D01*
X161219829Y-77296092D01*
X161148329Y-77429859D01*
X161052106Y-77547106D01*
X160934859Y-77643329D01*
X160801092Y-77714829D01*
X160655946Y-77758858D01*
X160542820Y-77770000D01*
X160457180Y-77770000D01*
X160344054Y-77758858D01*
X160198908Y-77714829D01*
X160065141Y-77643329D01*
X159947894Y-77547106D01*
X159851671Y-77429859D01*
X159780171Y-77296092D01*
X159736142Y-77150946D01*
X159721275Y-77000000D01*
X159736142Y-76849054D01*
X159780171Y-76703908D01*
X159851671Y-76570141D01*
X159947894Y-76452894D01*
X160065141Y-76356671D01*
X160198908Y-76285171D01*
X160344054Y-76241142D01*
X160457180Y-76230000D01*
X160542820Y-76230000D01*
X160655946Y-76241142D01*
G37*
G36*
X138655946Y-76241142D02*
G01*
X138801092Y-76285171D01*
X138934859Y-76356671D01*
X139052106Y-76452894D01*
X139148329Y-76570141D01*
X139219829Y-76703908D01*
X139263858Y-76849054D01*
X139278725Y-77000000D01*
X139263858Y-77150946D01*
X139219829Y-77296092D01*
X139148329Y-77429859D01*
X139052106Y-77547106D01*
X138934859Y-77643329D01*
X138801092Y-77714829D01*
X138655946Y-77758858D01*
X138542820Y-77770000D01*
X138457180Y-77770000D01*
X138344054Y-77758858D01*
X138198908Y-77714829D01*
X138065141Y-77643329D01*
X137947894Y-77547106D01*
X137851671Y-77429859D01*
X137780171Y-77296092D01*
X137736142Y-77150946D01*
X137721275Y-77000000D01*
X137736142Y-76849054D01*
X137780171Y-76703908D01*
X137851671Y-76570141D01*
X137947894Y-76452894D01*
X138065141Y-76356671D01*
X138198908Y-76285171D01*
X138344054Y-76241142D01*
X138457180Y-76230000D01*
X138542820Y-76230000D01*
X138655946Y-76241142D01*
G37*
G36*
X160641440Y-74288930D02*
G01*
X160711475Y-74302861D01*
X160794678Y-74337325D01*
X160843419Y-74357514D01*
X160962161Y-74436855D01*
X161063145Y-74537839D01*
X161142486Y-74656581D01*
X161197139Y-74788526D01*
X161225000Y-74928593D01*
X161225000Y-75071407D01*
X161197139Y-75211474D01*
X161142486Y-75343419D01*
X161063145Y-75462161D01*
X160962161Y-75563145D01*
X160843419Y-75642486D01*
X160794678Y-75662675D01*
X160711475Y-75697139D01*
X160641441Y-75711069D01*
X160571407Y-75725000D01*
X160428593Y-75725000D01*
X160358560Y-75711070D01*
X160288525Y-75697139D01*
X160205322Y-75662675D01*
X160156581Y-75642486D01*
X160037839Y-75563145D01*
X159936855Y-75462161D01*
X159857514Y-75343419D01*
X159802861Y-75211474D01*
X159775000Y-75071407D01*
X159775000Y-74928593D01*
X159802861Y-74788526D01*
X159857514Y-74656581D01*
X159936855Y-74537839D01*
X160037839Y-74436855D01*
X160156581Y-74357514D01*
X160205322Y-74337325D01*
X160288525Y-74302861D01*
X160358560Y-74288930D01*
X160428593Y-74275000D01*
X160571407Y-74275000D01*
X160641440Y-74288930D01*
G37*
G36*
X138641440Y-74288930D02*
G01*
X138711475Y-74302861D01*
X138794678Y-74337325D01*
X138843419Y-74357514D01*
X138962161Y-74436855D01*
X139063145Y-74537839D01*
X139142486Y-74656581D01*
X139197139Y-74788526D01*
X139225000Y-74928593D01*
X139225000Y-75071407D01*
X139197139Y-75211474D01*
X139142486Y-75343419D01*
X139063145Y-75462161D01*
X138962161Y-75563145D01*
X138843419Y-75642486D01*
X138794678Y-75662675D01*
X138711475Y-75697139D01*
X138641440Y-75711070D01*
X138571407Y-75725000D01*
X138428593Y-75725000D01*
X138358560Y-75711070D01*
X138288525Y-75697139D01*
X138205322Y-75662675D01*
X138156581Y-75642486D01*
X138037839Y-75563145D01*
X137936855Y-75462161D01*
X137857514Y-75343419D01*
X137802861Y-75211474D01*
X137775000Y-75071407D01*
X137775000Y-74928593D01*
X137802861Y-74788526D01*
X137857514Y-74656581D01*
X137936855Y-74537839D01*
X138037839Y-74436855D01*
X138156581Y-74357514D01*
X138205322Y-74337325D01*
X138288525Y-74302861D01*
X138358560Y-74288930D01*
X138428593Y-74275000D01*
X138571407Y-74275000D01*
X138641440Y-74288930D01*
G37*
G36*
X160641441Y-72288931D02*
G01*
X160711475Y-72302861D01*
X160794678Y-72337325D01*
X160843419Y-72357514D01*
X160962161Y-72436855D01*
X161063145Y-72537839D01*
X161142486Y-72656581D01*
X161197139Y-72788526D01*
X161225000Y-72928593D01*
X161225000Y-73071407D01*
X161197139Y-73211474D01*
X161142486Y-73343419D01*
X161063145Y-73462161D01*
X160962161Y-73563145D01*
X160843419Y-73642486D01*
X160794678Y-73662675D01*
X160711475Y-73697139D01*
X160641440Y-73711070D01*
X160571407Y-73725000D01*
X160428593Y-73725000D01*
X160358560Y-73711070D01*
X160288525Y-73697139D01*
X160205322Y-73662675D01*
X160156581Y-73642486D01*
X160037839Y-73563145D01*
X159936855Y-73462161D01*
X159857514Y-73343419D01*
X159802861Y-73211474D01*
X159775000Y-73071407D01*
X159775000Y-72928593D01*
X159802861Y-72788526D01*
X159857514Y-72656581D01*
X159936855Y-72537839D01*
X160037839Y-72436855D01*
X160156581Y-72357514D01*
X160205322Y-72337325D01*
X160288525Y-72302861D01*
X160358559Y-72288931D01*
X160428593Y-72275000D01*
X160571407Y-72275000D01*
X160641441Y-72288931D01*
G37*
G36*
X138641441Y-72288931D02*
G01*
X138711475Y-72302861D01*
X138794678Y-72337325D01*
X138843419Y-72357514D01*
X138962161Y-72436855D01*
X139063145Y-72537839D01*
X139142486Y-72656581D01*
X139197139Y-72788526D01*
X139225000Y-72928593D01*
X139225000Y-73071407D01*
X139197139Y-73211474D01*
X139142486Y-73343419D01*
X139063145Y-73462161D01*
X138962161Y-73563145D01*
X138843419Y-73642486D01*
X138794678Y-73662675D01*
X138711475Y-73697139D01*
X138641440Y-73711070D01*
X138571407Y-73725000D01*
X138428593Y-73725000D01*
X138358560Y-73711070D01*
X138288525Y-73697139D01*
X138205322Y-73662675D01*
X138156581Y-73642486D01*
X138037839Y-73563145D01*
X137936855Y-73462161D01*
X137857514Y-73343419D01*
X137802861Y-73211474D01*
X137775000Y-73071407D01*
X137775000Y-72928593D01*
X137802861Y-72788526D01*
X137857514Y-72656581D01*
X137936855Y-72537839D01*
X138037839Y-72436855D01*
X138156581Y-72357514D01*
X138205322Y-72337325D01*
X138288525Y-72302861D01*
X138358559Y-72288931D01*
X138428593Y-72275000D01*
X138571407Y-72275000D01*
X138641441Y-72288931D01*
G37*
G36*
X160641440Y-70288930D02*
G01*
X160711475Y-70302861D01*
X160794678Y-70337325D01*
X160843419Y-70357514D01*
X160962161Y-70436855D01*
X161063145Y-70537839D01*
X161142486Y-70656581D01*
X161197139Y-70788526D01*
X161225000Y-70928593D01*
X161225000Y-71071407D01*
X161197139Y-71211474D01*
X161142486Y-71343419D01*
X161063145Y-71462161D01*
X160962161Y-71563145D01*
X160843419Y-71642486D01*
X160794678Y-71662675D01*
X160711475Y-71697139D01*
X160641440Y-71711070D01*
X160571407Y-71725000D01*
X160428593Y-71725000D01*
X160358560Y-71711070D01*
X160288525Y-71697139D01*
X160205322Y-71662675D01*
X160156581Y-71642486D01*
X160037839Y-71563145D01*
X159936855Y-71462161D01*
X159857514Y-71343419D01*
X159802861Y-71211474D01*
X159775000Y-71071407D01*
X159775000Y-70928593D01*
X159802861Y-70788526D01*
X159857514Y-70656581D01*
X159936855Y-70537839D01*
X160037839Y-70436855D01*
X160156581Y-70357514D01*
X160205322Y-70337325D01*
X160288525Y-70302861D01*
X160358560Y-70288930D01*
X160428593Y-70275000D01*
X160571407Y-70275000D01*
X160641440Y-70288930D01*
G37*
G36*
X138641440Y-70288930D02*
G01*
X138711475Y-70302861D01*
X138794678Y-70337325D01*
X138843419Y-70357514D01*
X138962161Y-70436855D01*
X139063145Y-70537839D01*
X139142486Y-70656581D01*
X139197139Y-70788526D01*
X139225000Y-70928593D01*
X139225000Y-71071407D01*
X139197139Y-71211474D01*
X139142486Y-71343419D01*
X139063145Y-71462161D01*
X138962161Y-71563145D01*
X138843419Y-71642486D01*
X138794678Y-71662675D01*
X138711475Y-71697139D01*
X138641440Y-71711070D01*
X138571407Y-71725000D01*
X138428593Y-71725000D01*
X138358560Y-71711070D01*
X138288525Y-71697139D01*
X138205322Y-71662675D01*
X138156581Y-71642486D01*
X138037839Y-71563145D01*
X137936855Y-71462161D01*
X137857514Y-71343419D01*
X137802861Y-71211474D01*
X137775000Y-71071407D01*
X137775000Y-70928593D01*
X137802861Y-70788526D01*
X137857514Y-70656581D01*
X137936855Y-70537839D01*
X138037839Y-70436855D01*
X138156581Y-70357514D01*
X138205322Y-70337325D01*
X138288525Y-70302861D01*
X138358560Y-70288930D01*
X138428593Y-70275000D01*
X138571407Y-70275000D01*
X138641440Y-70288930D01*
G37*
G36*
X160641441Y-68288931D02*
G01*
X160711475Y-68302861D01*
X160794678Y-68337325D01*
X160843419Y-68357514D01*
X160962161Y-68436855D01*
X161063145Y-68537839D01*
X161142486Y-68656581D01*
X161197139Y-68788526D01*
X161225000Y-68928593D01*
X161225000Y-69071407D01*
X161197139Y-69211474D01*
X161142486Y-69343419D01*
X161063145Y-69462161D01*
X160962161Y-69563145D01*
X160843419Y-69642486D01*
X160794678Y-69662675D01*
X160711475Y-69697139D01*
X160641441Y-69711069D01*
X160571407Y-69725000D01*
X160428593Y-69725000D01*
X160358559Y-69711069D01*
X160288525Y-69697139D01*
X160205322Y-69662675D01*
X160156581Y-69642486D01*
X160037839Y-69563145D01*
X159936855Y-69462161D01*
X159857514Y-69343419D01*
X159802861Y-69211474D01*
X159775000Y-69071407D01*
X159775000Y-68928593D01*
X159802861Y-68788526D01*
X159857514Y-68656581D01*
X159936855Y-68537839D01*
X160037839Y-68436855D01*
X160156581Y-68357514D01*
X160205322Y-68337325D01*
X160288525Y-68302861D01*
X160358559Y-68288931D01*
X160428593Y-68275000D01*
X160571407Y-68275000D01*
X160641441Y-68288931D01*
G37*
G36*
X138641441Y-68288931D02*
G01*
X138711475Y-68302861D01*
X138794678Y-68337325D01*
X138843419Y-68357514D01*
X138962161Y-68436855D01*
X139063145Y-68537839D01*
X139142486Y-68656581D01*
X139197139Y-68788526D01*
X139225000Y-68928593D01*
X139225000Y-69071407D01*
X139197139Y-69211474D01*
X139142486Y-69343419D01*
X139063145Y-69462161D01*
X138962161Y-69563145D01*
X138843419Y-69642486D01*
X138794678Y-69662675D01*
X138711475Y-69697139D01*
X138641441Y-69711069D01*
X138571407Y-69725000D01*
X138428593Y-69725000D01*
X138358559Y-69711069D01*
X138288525Y-69697139D01*
X138205322Y-69662675D01*
X138156581Y-69642486D01*
X138037839Y-69563145D01*
X137936855Y-69462161D01*
X137857514Y-69343419D01*
X137802861Y-69211474D01*
X137775000Y-69071407D01*
X137775000Y-68928593D01*
X137802861Y-68788526D01*
X137857514Y-68656581D01*
X137936855Y-68537839D01*
X138037839Y-68436855D01*
X138156581Y-68357514D01*
X138205322Y-68337325D01*
X138288525Y-68302861D01*
X138358559Y-68288931D01*
X138428593Y-68275000D01*
X138571407Y-68275000D01*
X138641441Y-68288931D01*
G37*
G36*
X160641441Y-66288931D02*
G01*
X160711475Y-66302861D01*
X160794678Y-66337325D01*
X160843419Y-66357514D01*
X160962161Y-66436855D01*
X161063145Y-66537839D01*
X161142486Y-66656581D01*
X161197139Y-66788526D01*
X161225000Y-66928593D01*
X161225000Y-67071407D01*
X161197139Y-67211474D01*
X161142486Y-67343419D01*
X161063145Y-67462161D01*
X160962161Y-67563145D01*
X160843419Y-67642486D01*
X160794678Y-67662675D01*
X160711475Y-67697139D01*
X160641441Y-67711069D01*
X160571407Y-67725000D01*
X160428593Y-67725000D01*
X160358559Y-67711069D01*
X160288525Y-67697139D01*
X160205322Y-67662675D01*
X160156581Y-67642486D01*
X160037839Y-67563145D01*
X159936855Y-67462161D01*
X159857514Y-67343419D01*
X159802861Y-67211474D01*
X159775000Y-67071407D01*
X159775000Y-66928593D01*
X159802861Y-66788526D01*
X159857514Y-66656581D01*
X159936855Y-66537839D01*
X160037839Y-66436855D01*
X160156581Y-66357514D01*
X160205322Y-66337325D01*
X160288525Y-66302861D01*
X160358559Y-66288931D01*
X160428593Y-66275000D01*
X160571407Y-66275000D01*
X160641441Y-66288931D01*
G37*
G36*
X138641441Y-66288931D02*
G01*
X138711475Y-66302861D01*
X138794678Y-66337325D01*
X138843419Y-66357514D01*
X138962161Y-66436855D01*
X139063145Y-66537839D01*
X139142486Y-66656581D01*
X139197139Y-66788526D01*
X139225000Y-66928593D01*
X139225000Y-67071407D01*
X139197139Y-67211474D01*
X139142486Y-67343419D01*
X139063145Y-67462161D01*
X138962161Y-67563145D01*
X138843419Y-67642486D01*
X138794678Y-67662675D01*
X138711475Y-67697139D01*
X138641441Y-67711069D01*
X138571407Y-67725000D01*
X138428593Y-67725000D01*
X138358559Y-67711069D01*
X138288525Y-67697139D01*
X138205322Y-67662675D01*
X138156581Y-67642486D01*
X138037839Y-67563145D01*
X137936855Y-67462161D01*
X137857514Y-67343419D01*
X137802861Y-67211474D01*
X137775000Y-67071407D01*
X137775000Y-66928593D01*
X137802861Y-66788526D01*
X137857514Y-66656581D01*
X137936855Y-66537839D01*
X138037839Y-66436855D01*
X138156581Y-66357514D01*
X138205322Y-66337325D01*
X138288525Y-66302861D01*
X138358559Y-66288931D01*
X138428593Y-66275000D01*
X138571407Y-66275000D01*
X138641441Y-66288931D01*
G37*
G36*
X138641441Y-64288931D02*
G01*
X138711475Y-64302861D01*
X138794678Y-64337325D01*
X138843419Y-64357514D01*
X138962161Y-64436855D01*
X139063145Y-64537839D01*
X139142486Y-64656581D01*
X139197139Y-64788526D01*
X139225000Y-64928593D01*
X139225000Y-65071407D01*
X139197139Y-65211474D01*
X139142486Y-65343419D01*
X139063145Y-65462161D01*
X138962161Y-65563145D01*
X138843419Y-65642486D01*
X138794678Y-65662675D01*
X138711475Y-65697139D01*
X138641441Y-65711069D01*
X138571407Y-65725000D01*
X138428593Y-65725000D01*
X138358559Y-65711069D01*
X138288525Y-65697139D01*
X138205322Y-65662675D01*
X138156581Y-65642486D01*
X138037839Y-65563145D01*
X137936855Y-65462161D01*
X137857514Y-65343419D01*
X137802861Y-65211474D01*
X137775000Y-65071407D01*
X137775000Y-64928593D01*
X137802861Y-64788526D01*
X137857514Y-64656581D01*
X137936855Y-64537839D01*
X138037839Y-64436855D01*
X138156581Y-64357514D01*
X138205322Y-64337325D01*
X138288525Y-64302861D01*
X138358559Y-64288931D01*
X138428593Y-64275000D01*
X138571407Y-64275000D01*
X138641441Y-64288931D01*
G37*
G36*
X160641441Y-64288931D02*
G01*
X160711475Y-64302861D01*
X160794678Y-64337325D01*
X160843419Y-64357514D01*
X160962161Y-64436855D01*
X161063145Y-64537839D01*
X161142486Y-64656581D01*
X161197139Y-64788526D01*
X161225000Y-64928593D01*
X161225000Y-65071407D01*
X161197139Y-65211474D01*
X161142486Y-65343419D01*
X161063145Y-65462161D01*
X160962161Y-65563145D01*
X160843419Y-65642486D01*
X160794678Y-65662675D01*
X160711475Y-65697139D01*
X160641441Y-65711069D01*
X160571407Y-65725000D01*
X160428593Y-65725000D01*
X160358559Y-65711069D01*
X160288525Y-65697139D01*
X160205322Y-65662675D01*
X160156581Y-65642486D01*
X160037839Y-65563145D01*
X159936855Y-65462161D01*
X159857514Y-65343419D01*
X159802861Y-65211474D01*
X159775000Y-65071407D01*
X159775000Y-64928593D01*
X159802861Y-64788526D01*
X159857514Y-64656581D01*
X159936855Y-64537839D01*
X160037839Y-64436855D01*
X160156581Y-64357514D01*
X160205322Y-64337325D01*
X160288525Y-64302861D01*
X160358559Y-64288931D01*
X160428593Y-64275000D01*
X160571407Y-64275000D01*
X160641441Y-64288931D01*
G37*
G36*
X138641441Y-62288931D02*
G01*
X138711475Y-62302861D01*
X138794678Y-62337325D01*
X138843419Y-62357514D01*
X138962161Y-62436855D01*
X139063145Y-62537839D01*
X139142486Y-62656581D01*
X139197139Y-62788526D01*
X139225000Y-62928593D01*
X139225000Y-63071407D01*
X139197139Y-63211474D01*
X139142486Y-63343419D01*
X139063145Y-63462161D01*
X138962161Y-63563145D01*
X138843419Y-63642486D01*
X138794678Y-63662675D01*
X138711475Y-63697139D01*
X138641440Y-63711070D01*
X138571407Y-63725000D01*
X138428593Y-63725000D01*
X138358560Y-63711070D01*
X138288525Y-63697139D01*
X138205322Y-63662675D01*
X138156581Y-63642486D01*
X138037839Y-63563145D01*
X137936855Y-63462161D01*
X137857514Y-63343419D01*
X137802861Y-63211474D01*
X137775000Y-63071407D01*
X137775000Y-62928593D01*
X137802861Y-62788526D01*
X137857514Y-62656581D01*
X137936855Y-62537839D01*
X138037839Y-62436855D01*
X138156581Y-62357514D01*
X138205322Y-62337325D01*
X138288525Y-62302861D01*
X138358559Y-62288931D01*
X138428593Y-62275000D01*
X138571407Y-62275000D01*
X138641441Y-62288931D01*
G37*
G36*
X160641441Y-62288931D02*
G01*
X160711475Y-62302861D01*
X160794678Y-62337325D01*
X160843419Y-62357514D01*
X160962161Y-62436855D01*
X161063145Y-62537839D01*
X161142486Y-62656581D01*
X161197139Y-62788526D01*
X161225000Y-62928593D01*
X161225000Y-63071407D01*
X161197139Y-63211474D01*
X161142486Y-63343419D01*
X161063145Y-63462161D01*
X160962161Y-63563145D01*
X160843419Y-63642486D01*
X160794678Y-63662675D01*
X160711475Y-63697139D01*
X160641440Y-63711070D01*
X160571407Y-63725000D01*
X160428593Y-63725000D01*
X160358560Y-63711070D01*
X160288525Y-63697139D01*
X160205322Y-63662675D01*
X160156581Y-63642486D01*
X160037839Y-63563145D01*
X159936855Y-63462161D01*
X159857514Y-63343419D01*
X159802861Y-63211474D01*
X159775000Y-63071407D01*
X159775000Y-62928593D01*
X159802861Y-62788526D01*
X159857514Y-62656581D01*
X159936855Y-62537839D01*
X160037839Y-62436855D01*
X160156581Y-62357514D01*
X160205322Y-62337325D01*
X160288525Y-62302861D01*
X160358559Y-62288931D01*
X160428593Y-62275000D01*
X160571407Y-62275000D01*
X160641441Y-62288931D01*
G37*
G36*
X138641441Y-60288931D02*
G01*
X138711475Y-60302861D01*
X138794678Y-60337325D01*
X138843419Y-60357514D01*
X138962161Y-60436855D01*
X139063145Y-60537839D01*
X139142486Y-60656581D01*
X139197139Y-60788526D01*
X139225000Y-60928593D01*
X139225000Y-61071407D01*
X139197139Y-61211474D01*
X139142486Y-61343419D01*
X139063145Y-61462161D01*
X138962161Y-61563145D01*
X138843419Y-61642486D01*
X138794678Y-61662675D01*
X138711475Y-61697139D01*
X138641441Y-61711069D01*
X138571407Y-61725000D01*
X138428593Y-61725000D01*
X138358559Y-61711069D01*
X138288525Y-61697139D01*
X138205322Y-61662675D01*
X138156581Y-61642486D01*
X138037839Y-61563145D01*
X137936855Y-61462161D01*
X137857514Y-61343419D01*
X137802861Y-61211474D01*
X137775000Y-61071407D01*
X137775000Y-60928593D01*
X137802861Y-60788526D01*
X137857514Y-60656581D01*
X137936855Y-60537839D01*
X138037839Y-60436855D01*
X138156581Y-60357514D01*
X138205322Y-60337325D01*
X138288525Y-60302861D01*
X138358559Y-60288931D01*
X138428593Y-60275000D01*
X138571407Y-60275000D01*
X138641441Y-60288931D01*
G37*
G36*
X160641441Y-60288931D02*
G01*
X160711475Y-60302861D01*
X160794678Y-60337325D01*
X160843419Y-60357514D01*
X160962161Y-60436855D01*
X161063145Y-60537839D01*
X161142486Y-60656581D01*
X161197139Y-60788526D01*
X161225000Y-60928593D01*
X161225000Y-61071407D01*
X161197139Y-61211474D01*
X161142486Y-61343419D01*
X161063145Y-61462161D01*
X160962161Y-61563145D01*
X160843419Y-61642486D01*
X160794678Y-61662675D01*
X160711475Y-61697139D01*
X160641441Y-61711069D01*
X160571407Y-61725000D01*
X160428593Y-61725000D01*
X160358559Y-61711069D01*
X160288525Y-61697139D01*
X160205322Y-61662675D01*
X160156581Y-61642486D01*
X160037839Y-61563145D01*
X159936855Y-61462161D01*
X159857514Y-61343419D01*
X159802861Y-61211474D01*
X159775000Y-61071407D01*
X159775000Y-60928593D01*
X159802861Y-60788526D01*
X159857514Y-60656581D01*
X159936855Y-60537839D01*
X160037839Y-60436855D01*
X160156581Y-60357514D01*
X160205322Y-60337325D01*
X160288525Y-60302861D01*
X160358559Y-60288931D01*
X160428593Y-60275000D01*
X160571407Y-60275000D01*
X160641441Y-60288931D01*
G37*
G36*
X139275000Y-59770000D02*
G01*
X137725000Y-59770000D01*
X137725000Y-58230000D01*
X139275000Y-58230000D01*
X139275000Y-59770000D01*
G37*
G36*
X161275000Y-59770000D02*
G01*
X159725000Y-59770000D01*
X159725000Y-58230000D01*
X161275000Y-58230000D01*
X161275000Y-59770000D01*
G37*
M02*
