G04 #@! TF.GenerationSoftware,KiCad,Pcbnew,(5.1.5-0-10_14)*
G04 #@! TF.CreationDate,2020-04-11T19:26:15-04:00*
G04 #@! TF.ProjectId,crazyflie-usd-spi3,6372617a-7966-46c6-9965-2d7573642d73,rev?*
G04 #@! TF.SameCoordinates,Original*
G04 #@! TF.FileFunction,Legend,Bot*
G04 #@! TF.FilePolarity,Positive*
%FSLAX46Y46*%
G04 Gerber Fmt 4.6, Leading zero omitted, Abs format (unit mm)*
G04 Created by KiCad (PCBNEW (5.1.5-0-10_14)) date 2020-04-11 19:26:15*
%MOMM*%
%LPD*%
G04 APERTURE LIST*
%ADD10C,0.203200*%
%ADD11R,1.550000X1.540000*%
%ADD12O,1.450000X1.450000*%
%ADD13O,1.550000X1.540000*%
G04 APERTURE END LIST*
D10*
X149500000Y-58200000D02*
X148900000Y-58800000D01*
X149500000Y-58200000D02*
X150100000Y-58800000D01*
X149500000Y-60150000D02*
X149500000Y-58200000D01*
X152983428Y-61341942D02*
X153254361Y-61341942D01*
X153254361Y-61767695D02*
X153254361Y-60954895D01*
X152867314Y-60954895D01*
X152093219Y-61767695D02*
X152364152Y-61380647D01*
X152557676Y-61767695D02*
X152557676Y-60954895D01*
X152248038Y-60954895D01*
X152170628Y-60993600D01*
X152131923Y-61032304D01*
X152093219Y-61109714D01*
X152093219Y-61225828D01*
X152131923Y-61303238D01*
X152170628Y-61341942D01*
X152248038Y-61380647D01*
X152557676Y-61380647D01*
X151590057Y-60954895D02*
X151435238Y-60954895D01*
X151357828Y-60993600D01*
X151280419Y-61071009D01*
X151241714Y-61225828D01*
X151241714Y-61496761D01*
X151280419Y-61651580D01*
X151357828Y-61728990D01*
X151435238Y-61767695D01*
X151590057Y-61767695D01*
X151667466Y-61728990D01*
X151744876Y-61651580D01*
X151783580Y-61496761D01*
X151783580Y-61225828D01*
X151744876Y-61071009D01*
X151667466Y-60993600D01*
X151590057Y-60954895D01*
X150893371Y-61767695D02*
X150893371Y-60954895D01*
X150428914Y-61767695D01*
X150428914Y-60954895D01*
X150157980Y-60954895D02*
X149693523Y-60954895D01*
X149925752Y-61767695D02*
X149925752Y-60954895D01*
X148803314Y-61767695D02*
X148803314Y-60954895D01*
X148609790Y-60954895D01*
X148493676Y-60993600D01*
X148416266Y-61071009D01*
X148377561Y-61148419D01*
X148338857Y-61303238D01*
X148338857Y-61419352D01*
X148377561Y-61574171D01*
X148416266Y-61651580D01*
X148493676Y-61728990D01*
X148609790Y-61767695D01*
X148803314Y-61767695D01*
X147835695Y-60954895D02*
X147680876Y-60954895D01*
X147603466Y-60993600D01*
X147526057Y-61071009D01*
X147487352Y-61225828D01*
X147487352Y-61496761D01*
X147526057Y-61651580D01*
X147603466Y-61728990D01*
X147680876Y-61767695D01*
X147835695Y-61767695D01*
X147913104Y-61728990D01*
X147990514Y-61651580D01*
X148029219Y-61496761D01*
X148029219Y-61225828D01*
X147990514Y-61071009D01*
X147913104Y-60993600D01*
X147835695Y-60954895D01*
X147216419Y-60954895D02*
X147022895Y-61767695D01*
X146868076Y-61187123D01*
X146713257Y-61767695D01*
X146519733Y-60954895D01*
X146210095Y-61767695D02*
X146210095Y-60954895D01*
X145745638Y-61767695D01*
X145745638Y-60954895D01*
%LPC*%
D11*
X138500000Y-59000000D03*
D12*
X138500000Y-61000000D03*
X138500000Y-63000000D03*
X138500000Y-65000000D03*
X138500000Y-67000000D03*
X138500000Y-69000000D03*
X138500000Y-71000000D03*
X138500000Y-73000000D03*
X138500000Y-75000000D03*
D13*
X138500000Y-77000000D03*
X160500000Y-77000000D03*
D12*
X160500000Y-75000000D03*
X160500000Y-73000000D03*
X160500000Y-71000000D03*
X160500000Y-69000000D03*
X160500000Y-67000000D03*
X160500000Y-65000000D03*
X160500000Y-63000000D03*
X160500000Y-61000000D03*
D11*
X160500000Y-59000000D03*
M02*
